<svg width="108" height="30" viewBox="0 0 108 30" fill="none" xmlns="http://www.w3.org/2000/svg">
<circle cx="15" cy="15" r="15" fill="#FFC727"/>
<mask id="mask0_50_213" style="mask-type:alpha" maskUnits="userSpaceOnUse" x="0" y="0" width="30" height="30">
<circle cx="15" cy="15" r="15" fill="white"/>
</mask>
<g mask="url(#mask0_50_213)">
<path d="M17.4863 33.2306C15.7643 33.7671 11.9449 32.0183 10.5126 29.6151C10.4161 29.4488 10.5985 27.6571 10.7218 25.4738C10.7862 24.1435 10.8291 22.6683 10.7755 21.3165C10.7755 21.0375 19.3584 23.017 19.3584 23.017C18.9464 24.7277 18.7446 26.4822 18.7576 28.2418C18.7702 28.4225 18.7971 28.6018 18.8381 28.7782C18.8381 28.8051 18.8381 28.8319 18.8381 28.8694C19.0366 29.9262 19.3262 32.6298 17.4863 33.2306Z" fill="#EB9481"/>
<path d="M18.8059 28.789C18.8059 28.8158 18.8059 28.848 18.8059 28.8802C18.5207 28.9308 18.2318 28.9577 17.9422 28.9607C12.9427 29.0626 11.3602 22.8722 11.0383 21.3004C12.5564 21.4506 19.3101 23.0063 19.3101 23.0063C18.8983 24.7188 18.6965 26.4752 18.7093 28.2365C18.7236 28.4234 18.756 28.6084 18.8059 28.789Z" fill="#263238"/>
<path d="M19.7125 5.82965C19.7125 5.82965 21.7885 7.26729 22.62 8.94096C23.4515 10.6146 22.9365 14.3053 22.9365 14.3053L19.7125 5.82965Z" fill="#263238"/>
<path d="M8.73171 10.8506C8.03971 13.919 10.2659 22.4698 12.5458 24.2615C15.8502 26.8363 20.9356 26.729 23.0384 22.8292C25.0822 19.0742 21.9655 7.95391 19.4657 6.37679C15.759 4.03258 9.7563 6.31242 8.73171 10.8506Z" fill="#EB9481"/>
<path d="M16.5797 15.6679C16.5797 15.6679 16.5368 15.7055 16.5475 15.7323C16.7138 16.3009 16.805 16.9875 16.3329 17.3094C16.3329 17.3094 16.3329 17.3469 16.3329 17.3416C16.9606 17.0895 16.8265 16.1829 16.5797 15.6679Z" fill="#263238"/>
<path d="M15.9092 15.1958C14.9651 15.3621 15.3728 17.245 16.2418 17.0894C17.1108 16.9338 16.7031 15.0563 15.9092 15.1958Z" fill="#263238"/>
<path d="M20.0022 14.9061C20.0022 14.9061 20.0558 14.9061 20.0612 14.949C20.1685 15.5337 20.3884 16.1881 20.957 16.2686V16.3061C20.2972 16.3491 20.0129 15.48 20.0022 14.9061Z" fill="#263238"/>
<path d="M20.3937 14.1873C21.3164 13.9191 21.7885 15.7966 20.9302 16.0327C20.0719 16.2687 19.6213 14.418 20.3937 14.1873Z" fill="#263238"/>
<path d="M14.9811 14.4985C15.2225 14.3804 15.4264 14.2249 15.657 14.0854C15.8877 13.9459 16.1345 13.8226 16.2632 13.549C16.2906 13.4637 16.2891 13.3718 16.2591 13.2875C16.229 13.2031 16.172 13.131 16.0969 13.0823C15.9323 13.0088 15.7511 12.9804 15.572 13.0002C15.3928 13.02 15.2222 13.0872 15.0777 13.1949C14.7515 13.3649 14.5022 13.6525 14.3803 13.9996C14.3611 14.0787 14.3644 14.1616 14.39 14.2388C14.4155 14.3161 14.4623 14.3847 14.5249 14.4367C14.5875 14.4886 14.6635 14.522 14.7441 14.5329C14.8248 14.5439 14.9069 14.5319 14.9811 14.4985Z" fill="#263238"/>
<path d="M20.9194 13.0876C20.6459 13.0876 20.383 13.0876 20.1309 13.0554C19.8511 13.0817 19.5704 13.0158 19.3316 12.8677C19.2661 12.8055 19.2227 12.7236 19.2082 12.6345C19.1937 12.5453 19.2088 12.4539 19.2511 12.3741C19.3597 12.2311 19.5043 12.1195 19.6702 12.0507C19.8361 11.9819 20.0173 11.9583 20.1953 11.9825C20.5609 11.9745 20.9165 12.1026 21.193 12.3419C21.2534 12.4004 21.2955 12.4752 21.3143 12.5572C21.333 12.6391 21.3276 12.7248 21.2986 12.8037C21.2697 12.8826 21.2184 12.9515 21.1511 13.0019C21.0838 13.0522 21.0033 13.082 20.9194 13.0876Z" fill="#263238"/>
<path d="M17.2663 21.0107C17.438 21.118 17.615 21.2789 17.8295 21.2468C18.0464 21.1996 18.2499 21.1042 18.425 20.9678C18.425 20.9678 18.4679 20.9678 18.4572 20.9946C18.398 21.1262 18.3045 21.2394 18.1866 21.3225C18.0686 21.4055 17.9305 21.4553 17.7866 21.4667C17.661 21.4613 17.5398 21.4186 17.4386 21.3441C17.3373 21.2696 17.2605 21.1666 17.218 21.0483C17.218 21.0483 17.2448 20.9946 17.2663 21.0107Z" fill="#263238"/>
<path d="M17.5077 19.1385C17.7057 19.3364 17.9419 19.4918 18.2021 19.5951C18.4622 19.6984 18.7407 19.7475 19.0205 19.7393C19.2647 19.7327 19.5068 19.6912 19.7393 19.6159L19.8734 19.573L19.9968 19.5247C20.0263 19.512 20.0508 19.4898 20.0664 19.4617C20.0819 19.4335 20.0876 19.401 20.0826 19.3692V19.3102V19.2565C20.0021 18.8059 19.809 18.1354 19.809 18.1354C19.9914 18.1783 20.9087 18.3768 20.8443 18.1354C20.3476 16.1279 19.6484 14.1761 18.7576 12.3097C18.7308 12.2507 18.6342 12.3097 18.6557 12.3473C19.0902 14.2087 19.852 15.9789 20.324 17.8403C19.9969 17.7661 19.6612 17.7373 19.3262 17.7545C19.2672 17.7867 19.7178 19.0473 19.7393 19.2565C19.3798 19.3721 19.0008 19.4141 18.6248 19.38C18.2487 19.3459 17.8834 19.2364 17.5507 19.0581C17.497 19.0527 17.4595 19.101 17.5077 19.1385Z" fill="#263238"/>
<path d="M19.4281 19.4443C19.2464 19.81 18.9752 20.1237 18.6396 20.3562C18.4523 20.48 18.2309 20.5419 18.0066 20.5333C17.5131 20.5333 17.4112 20.088 17.4219 19.7018C17.4249 19.4987 17.4538 19.2968 17.5077 19.101C18.0949 19.4173 18.7678 19.5376 19.4281 19.4443Z" fill="#263238"/>
<path d="M18.6396 20.3563C18.4523 20.48 18.2309 20.542 18.0066 20.5333C17.5131 20.5333 17.4112 20.088 17.4219 19.7018C17.6689 19.6582 17.9234 19.699 18.1443 19.8177C18.3652 19.9365 18.5397 20.1262 18.6396 20.3563Z" fill="#FF9BBC"/>
<path d="M9.88497 18.2105C11.4943 17.9209 10.8881 15.1207 10.8881 15.1207C10.8881 15.1207 14.0209 14.0103 13.5703 9.75635C13.5703 9.75635 18.5484 10.4859 20.501 7.61062C22.4536 4.73534 14.8899 -0.0120919 8.50634 7.07418C8.50634 7.07418 5.08927 8.36162 5.1 11.3656C5.11073 14.3697 7.9109 18.5592 9.88497 18.2105Z" fill="#263238"/>
<path d="M13.3558 9.3272C13.3558 9.28965 13.2646 9.3272 13.286 9.36475C14.3589 12.0469 13.05 14.8846 10.0674 15.2655C10.0503 15.2701 10.0351 15.2801 10.0243 15.2942C10.0134 15.3083 10.0076 15.3255 10.0076 15.3433C10.0076 15.361 10.0134 15.3783 10.0243 15.3924C10.0351 15.4064 10.0503 15.4165 10.0674 15.4211C13.0822 15.3406 15.2225 11.9074 13.3558 9.3272Z" fill="#263238"/>
<path d="M14.9328 3.39959C15.9554 3.30723 16.9861 3.36871 17.9905 3.58198C19.4818 3.96821 21.5953 5.30392 20.9516 7.14389C20.0665 9.67049 16.5153 9.70803 14.3106 9.56856C14.2807 9.56287 14.2498 9.56928 14.2246 9.58639C14.1995 9.60349 14.1822 9.62988 14.1765 9.65975C14.1708 9.68963 14.1772 9.72055 14.1943 9.7457C14.2114 9.77085 14.2378 9.78817 14.2677 9.79386C16.5636 10.3303 21.0106 9.75632 21.37 6.80057C21.7777 3.53906 17.1268 3.04018 14.9328 3.39959Z" fill="#263238"/>
<path d="M11.4568 17.8511C11.4568 17.8511 9.23595 15.2387 8.02898 16.0541C6.822 16.8695 8.68342 20.7908 10.223 21.2039C10.4189 21.2736 10.6269 21.3027 10.8345 21.2892C11.042 21.2758 11.2446 21.2202 11.4299 21.1258C11.6151 21.0314 11.7792 20.9002 11.9121 20.7402C12.0449 20.5802 12.1437 20.3948 12.2024 20.1954L11.4568 17.8511Z" fill="#EB9481"/>
<path d="M8.59222 17.1645C8.59222 17.1645 8.59222 17.1967 8.59222 17.2074C9.66509 17.5292 10.3195 18.4465 10.797 19.4175C10.7287 19.3159 10.6389 19.2305 10.534 19.1674C10.4291 19.1043 10.3117 19.065 10.1899 19.0522C10.0682 19.0394 9.94514 19.0535 9.82943 19.0934C9.71372 19.1334 9.60818 19.1982 9.52026 19.2834C9.49344 19.2834 9.52026 19.3478 9.55244 19.337C9.73272 19.2572 9.93362 19.2366 10.1263 19.278C10.3191 19.3195 10.4938 19.4209 10.6253 19.5677C10.8397 19.8092 11.0268 20.0737 11.1832 20.3562C11.2368 20.4421 11.4031 20.3562 11.3549 20.2758C11.2476 18.9293 10.0567 17.1645 8.59222 17.1645Z" fill="#263238"/>
</g>
<path d="M45.56 8.02999C44.96 8.02999 44.4667 7.85665 44.08 7.50999C43.7067 7.14999 43.52 6.70999 43.52 6.18999C43.52 5.65665 43.7067 5.21665 44.08 4.86999C44.4667 4.50999 44.96 4.32999 45.56 4.32999C46.1467 4.32999 46.6267 4.50999 47 4.86999C47.3867 5.21665 47.58 5.65665 47.58 6.18999C47.58 6.70999 47.3867 7.14999 47 7.50999C46.6267 7.85665 46.1467 8.02999 45.56 8.02999ZM47.28 21.79C47.28 23.1633 46.9333 24.15 46.24 24.75C45.5467 25.3633 44.58 25.67 43.34 25.67H42V22.77H42.82C43.1933 22.77 43.46 22.6967 43.62 22.55C43.78 22.4033 43.86 22.1633 43.86 21.83V9.18999H47.28V21.79Z" fill="black"/>
<path d="M54.8189 20.51C53.7256 20.51 52.7389 20.2767 51.8589 19.81C50.9922 19.3433 50.3056 18.6767 49.7989 17.81C49.3056 16.9433 49.0589 15.93 49.0589 14.77C49.0589 13.6233 49.3122 12.6167 49.8189 11.75C50.3256 10.87 51.0189 10.1967 51.8989 9.72999C52.7789 9.26332 53.7656 9.02999 54.8589 9.02999C55.9522 9.02999 56.9389 9.26332 57.8189 9.72999C58.6989 10.1967 59.3922 10.87 59.8989 11.75C60.4056 12.6167 60.6589 13.6233 60.6589 14.77C60.6589 15.9167 60.3989 16.93 59.8789 17.81C59.3722 18.6767 58.6722 19.3433 57.7789 19.81C56.8989 20.2767 55.9122 20.51 54.8189 20.51ZM54.8189 17.55C55.4722 17.55 56.0256 17.31 56.4789 16.83C56.9456 16.35 57.1789 15.6633 57.1789 14.77C57.1789 13.8767 56.9522 13.19 56.4989 12.71C56.0589 12.23 55.5122 11.99 54.8589 11.99C54.1922 11.99 53.6389 12.23 53.1989 12.71C52.7589 13.1767 52.5389 13.8633 52.5389 14.77C52.5389 15.6633 52.7522 16.35 53.1789 16.83C53.6189 17.31 54.1656 17.55 54.8189 17.55Z" fill="black"/>
<path d="M64.1933 8.02999C63.5933 8.02999 63.0999 7.85665 62.7133 7.50999C62.3399 7.14999 62.1533 6.70999 62.1533 6.18999C62.1533 5.65665 62.3399 5.21665 62.7133 4.86999C63.0999 4.50999 63.5933 4.32999 64.1933 4.32999C64.7799 4.32999 65.2599 4.50999 65.6333 4.86999C66.0199 5.21665 66.2133 5.65665 66.2133 6.18999C66.2133 6.70999 66.0199 7.14999 65.6333 7.50999C65.2599 7.85665 64.7799 8.02999 64.1933 8.02999ZM65.8933 9.18999V20.35H62.4733V9.18999H65.8933Z" fill="black"/>
<path d="M75.1717 9.06999C76.4784 9.06999 77.5184 9.49665 78.2917 10.35C79.0784 11.19 79.4717 12.35 79.4717 13.83V20.35H76.0717V14.29C76.0717 13.5433 75.8784 12.9633 75.4917 12.55C75.1051 12.1367 74.5851 11.93 73.9317 11.93C73.2784 11.93 72.7584 12.1367 72.3717 12.55C71.9851 12.9633 71.7917 13.5433 71.7917 14.29V20.35H68.3717V9.18999H71.7917V10.67C72.1384 10.1767 72.6051 9.78999 73.1917 9.50999C73.7784 9.21665 74.4384 9.06999 75.1717 9.06999Z" fill="black"/>
<path d="M92.8683 9.18999V20.35H89.4483V18.83C89.1016 19.3233 88.6283 19.7233 88.0283 20.03C87.4416 20.3233 86.7883 20.47 86.0683 20.47C85.215 20.47 84.4616 20.2833 83.8083 19.91C83.1549 19.5233 82.6483 18.97 82.2883 18.25C81.9283 17.53 81.7483 16.6833 81.7483 15.71V9.18999H85.1483V15.25C85.1483 15.9967 85.3416 16.5767 85.7283 16.99C86.1149 17.4033 86.6349 17.61 87.2883 17.61C87.9549 17.61 88.4816 17.4033 88.8683 16.99C89.2549 16.5767 89.4483 15.9967 89.4483 15.25V9.18999H92.8683Z" fill="black"/>
<path d="M98.7448 10.77C99.0782 10.25 99.5382 9.82999 100.125 9.50999C100.712 9.18999 101.398 9.02999 102.185 9.02999C103.105 9.02999 103.938 9.26332 104.685 9.72999C105.432 10.1967 106.018 10.8633 106.445 11.73C106.885 12.5967 107.105 13.6033 107.105 14.75C107.105 15.8967 106.885 16.91 106.445 17.79C106.018 18.6567 105.432 19.33 104.685 19.81C103.938 20.2767 103.105 20.51 102.185 20.51C101.412 20.51 100.725 20.35 100.125 20.03C99.5382 19.71 99.0782 19.2967 98.7448 18.79V25.67H95.3248V9.18999H98.7448V10.77ZM103.625 14.75C103.625 13.8967 103.385 13.23 102.905 12.75C102.438 12.2567 101.858 12.01 101.165 12.01C100.485 12.01 99.9048 12.2567 99.4248 12.75C98.9582 13.2433 98.7248 13.9167 98.7248 14.77C98.7248 15.6233 98.9582 16.2967 99.4248 16.79C99.9048 17.2833 100.485 17.53 101.165 17.53C101.845 17.53 102.425 17.2833 102.905 16.79C103.385 16.2833 103.625 15.6033 103.625 14.75Z" fill="black"/>
</svg>
