<svg width="108" height="30" viewBox="0 0 108 30" fill="none" xmlns="http://www.w3.org/2000/svg">
<circle cx="15" cy="15" r="15" fill="#FFC727"/>
<mask id="mask0_88_423" style="mask-type:alpha" maskUnits="userSpaceOnUse" x="0" y="0" width="30" height="30">
<circle cx="15" cy="15" r="15" fill="white"/>
</mask>
<g mask="url(#mask0_88_423)">
<path d="M17.4862 33.2305C15.7642 33.767 11.9448 32.0182 10.5125 29.615C10.416 29.4487 10.5983 27.657 10.7217 25.4737C10.7861 24.1434 10.829 22.6682 10.7754 21.3164C10.7754 21.0374 19.3583 23.0169 19.3583 23.0169C18.9462 24.7276 18.7445 26.4821 18.7575 28.2417C18.7701 28.4224 18.797 28.6017 18.838 28.7781C18.838 28.805 18.838 28.8318 18.838 28.8693C19.0364 29.9261 19.3261 32.6297 17.4862 33.2305Z" fill="#EB9481"/>
<path d="M18.8061 28.7889C18.8061 28.8157 18.8061 28.8479 18.8061 28.8801C18.5209 28.9307 18.2321 28.9576 17.9425 28.9606C12.9429 29.0625 11.3604 22.872 11.0386 21.3003C12.5567 21.4505 19.3104 23.0062 19.3104 23.0062C18.8985 24.7187 18.6968 26.475 18.7096 28.2364C18.7239 28.4232 18.7562 28.6083 18.8061 28.7889Z" fill="#263238"/>
<path d="M19.7124 5.82959C19.7124 5.82959 21.7884 7.26723 22.6199 8.9409C23.4513 10.6146 22.9364 14.3052 22.9364 14.3052L19.7124 5.82959Z" fill="#263238"/>
<path d="M8.73183 10.8505C8.03984 13.9189 10.266 22.4697 12.5459 24.2613C15.8503 26.8362 20.9357 26.7289 23.0385 22.8291C25.0823 19.074 21.9656 7.95378 19.4659 6.37667C15.7591 4.03246 9.75642 6.3123 8.73183 10.8505Z" fill="#EB9481"/>
<path d="M16.5798 15.6678C16.5798 15.6678 16.5368 15.7054 16.5476 15.7322C16.7139 16.3008 16.8051 16.9875 16.333 17.3093C16.333 17.3093 16.333 17.3469 16.333 17.3415C16.9606 17.0894 16.8265 16.1828 16.5798 15.6678Z" fill="#263238"/>
<path d="M15.9093 15.1958C14.9651 15.362 15.3728 17.2449 16.2418 17.0894C17.1109 16.9338 16.7032 15.0563 15.9093 15.1958Z" fill="#263238"/>
<path d="M20.0024 14.906C20.0024 14.906 20.0561 14.906 20.0614 14.9489C20.1687 15.5336 20.3887 16.1881 20.9573 16.2685V16.3061C20.2975 16.349 20.0132 15.48 20.0024 14.906Z" fill="#263238"/>
<path d="M20.3938 14.1873C21.3165 13.9191 21.7886 15.7966 20.9303 16.0326C20.072 16.2686 19.6214 14.418 20.3938 14.1873Z" fill="#263238"/>
<path d="M14.9813 14.4984C15.2227 14.3804 15.4265 14.2248 15.6572 14.0853C15.8879 13.9458 16.1346 13.8225 16.2634 13.5489C16.2908 13.4636 16.2893 13.3717 16.2593 13.2874C16.2292 13.203 16.1722 13.1309 16.0971 13.0822C15.9325 13.0087 15.7513 12.9804 15.5722 13.0002C15.393 13.02 15.2224 13.0872 15.0779 13.1948C14.7517 13.3648 14.5024 13.6525 14.3805 13.9995C14.3612 14.0786 14.3646 14.1615 14.3902 14.2387C14.4157 14.316 14.4625 14.3846 14.5251 14.4366C14.5877 14.4886 14.6637 14.5219 14.7443 14.5328C14.825 14.5438 14.9071 14.5318 14.9813 14.4984Z" fill="#263238"/>
<path d="M20.9197 13.0876C20.6462 13.0876 20.3833 13.0876 20.1312 13.0554C19.8514 13.0817 19.5707 13.0158 19.3319 12.8676C19.2664 12.8055 19.223 12.7236 19.2085 12.6344C19.194 12.5453 19.2091 12.4539 19.2514 12.3741C19.36 12.2311 19.5047 12.1194 19.6705 12.0506C19.8364 11.9818 20.0176 11.9583 20.1956 11.9825C20.5612 11.9745 20.9168 12.1026 21.1933 12.3419C21.2537 12.4004 21.2958 12.4752 21.3146 12.5571C21.3333 12.6391 21.3279 12.7247 21.2989 12.8037C21.27 12.8826 21.2187 12.9514 21.1514 13.0018C21.0841 13.0522 21.0036 13.082 20.9197 13.0876Z" fill="#263238"/>
<path d="M17.2665 21.0107C17.4382 21.118 17.6152 21.2789 17.8298 21.2467C18.0467 21.1995 18.2502 21.1042 18.4252 20.9678C18.4252 20.9678 18.4681 20.9678 18.4574 20.9946C18.3982 21.1262 18.3048 21.2394 18.1868 21.3225C18.0688 21.4055 17.9307 21.4553 17.7869 21.4667C17.6613 21.4613 17.5401 21.4186 17.4388 21.3441C17.3376 21.2696 17.2608 21.1666 17.2183 21.0482C17.2183 21.0482 17.2451 20.9946 17.2665 21.0107Z" fill="#263238"/>
<path d="M17.5076 19.1385C17.7055 19.3364 17.9418 19.4918 18.2019 19.5951C18.4621 19.6984 18.7406 19.7475 19.0204 19.7393C19.2646 19.7327 19.5067 19.6911 19.7392 19.6159L19.8733 19.573L19.9967 19.5247C20.0262 19.512 20.0507 19.4898 20.0662 19.4616C20.0818 19.4335 20.0875 19.4009 20.0825 19.3691V19.3101V19.2565C20.002 18.8059 19.8089 18.1353 19.8089 18.1353C19.9913 18.1783 20.9086 18.3767 20.8442 18.1353C20.3474 16.1279 19.6483 14.176 18.7575 12.3097C18.7307 12.2507 18.6341 12.3097 18.6556 12.3472C19.0901 14.2087 19.8518 15.9789 20.3239 17.8403C19.9968 17.7661 19.6611 17.7372 19.3261 17.7545C19.2671 17.7867 19.7177 19.0473 19.7392 19.2565C19.3797 19.3721 19.0007 19.4141 18.6247 19.38C18.2486 19.3459 17.8833 19.2364 17.5505 19.058C17.4969 19.0526 17.4593 19.1009 17.5076 19.1385Z" fill="#263238"/>
<path d="M19.4284 19.4443C19.2467 19.8099 18.9754 20.1236 18.6398 20.3562C18.4525 20.48 18.2312 20.5419 18.0068 20.5332C17.5133 20.5332 17.4114 20.088 17.4221 19.7018C17.4252 19.4987 17.454 19.2968 17.508 19.101C18.0951 19.4172 18.768 19.5375 19.4284 19.4443Z" fill="#263238"/>
<path d="M18.6398 20.3562C18.4525 20.48 18.2312 20.5419 18.0068 20.5332C17.5133 20.5332 17.4114 20.088 17.4221 19.7017C17.6691 19.6581 17.9236 19.6989 18.1445 19.8176C18.3655 19.9364 18.5399 20.1261 18.6398 20.3562Z" fill="#FF9BBC"/>
<path d="M9.88509 18.2105C11.4944 17.9208 10.8882 15.1206 10.8882 15.1206C10.8882 15.1206 14.021 14.0102 13.5704 9.75632C13.5704 9.75632 18.5485 10.4859 20.5011 7.61059C22.4537 4.73531 14.89 -0.0121224 8.50646 7.07415C8.50646 7.07415 5.08939 8.36159 5.10012 11.3656C5.11085 14.3696 7.91102 18.5592 9.88509 18.2105Z" fill="#263238"/>
<path d="M13.356 9.32708C13.356 9.28953 13.2648 9.32708 13.2863 9.36463C14.3591 12.0468 13.0502 14.8845 10.0677 15.2654C10.0505 15.2699 10.0353 15.28 10.0245 15.2941C10.0137 15.3082 10.0078 15.3254 10.0078 15.3432C10.0078 15.3609 10.0137 15.3782 10.0245 15.3922C10.0353 15.4063 10.0505 15.4164 10.0677 15.421C13.0824 15.3405 15.2228 11.9073 13.356 9.32708Z" fill="#263238"/>
<path d="M14.9332 3.39956C15.9558 3.3072 16.9865 3.36868 17.9909 3.58194C19.4822 3.96818 21.5957 5.30389 20.952 7.14386C20.0669 9.67046 16.5157 9.708 14.3109 9.56853C14.2811 9.56284 14.2502 9.56925 14.225 9.58636C14.1999 9.60346 14.1825 9.62985 14.1768 9.65972C14.1711 9.6896 14.1776 9.72052 14.1947 9.74567C14.2118 9.77082 14.2382 9.78814 14.268 9.79383C16.564 10.3303 21.011 9.75629 21.3704 6.80054C21.7781 3.53903 17.1272 3.04015 14.9332 3.39956Z" fill="#263238"/>
<path d="M11.457 17.8511C11.457 17.8511 9.23613 15.2387 8.02916 16.054C6.82219 16.8694 8.68361 20.7907 10.2232 21.2038C10.4191 21.2735 10.6271 21.3026 10.8346 21.2892C11.0422 21.2758 11.2448 21.2202 11.43 21.1258C11.6153 21.0314 11.7794 20.9002 11.9122 20.7402C12.0451 20.5802 12.1439 20.3948 12.2026 20.1953L11.457 17.8511Z" fill="#EB9481"/>
<path d="M8.59229 17.1644C8.59229 17.1644 8.59229 17.1966 8.59229 17.2073C9.66515 17.5292 10.3196 18.4465 10.797 19.4174C10.7287 19.3159 10.639 19.2305 10.5341 19.1674C10.4292 19.1043 10.3118 19.0649 10.19 19.0521C10.0683 19.0393 9.9452 19.0534 9.8295 19.0934C9.71379 19.1333 9.60824 19.1982 9.52032 19.2833C9.4935 19.2833 9.52032 19.3477 9.5525 19.337C9.73278 19.2572 9.93368 19.2366 10.1264 19.278C10.3191 19.3194 10.4938 19.4208 10.6254 19.5676C10.8398 19.8092 11.0269 20.0736 11.1833 20.3562C11.2369 20.442 11.4032 20.3562 11.3549 20.2757C11.2476 18.9293 10.0567 17.1644 8.59229 17.1644Z" fill="#263238"/>
</g>
<path d="M45.56 8.02996C44.96 8.02996 44.4667 7.85662 44.08 7.50996C43.7067 7.14996 43.52 6.70996 43.52 6.18996C43.52 5.65662 43.7067 5.21662 44.08 4.86996C44.4667 4.50996 44.96 4.32996 45.56 4.32996C46.1467 4.32996 46.6267 4.50996 47 4.86996C47.3867 5.21662 47.58 5.65662 47.58 6.18996C47.58 6.70996 47.3867 7.14996 47 7.50996C46.6267 7.85662 46.1467 8.02996 45.56 8.02996ZM47.28 21.79C47.28 23.1633 46.9333 24.15 46.24 24.75C45.5467 25.3633 44.58 25.67 43.34 25.67H42V22.77H42.82C43.1933 22.77 43.46 22.6966 43.62 22.55C43.78 22.4033 43.86 22.1633 43.86 21.83V9.18996H47.28V21.79Z" fill="white"/>
<path d="M54.8189 20.51C53.7256 20.51 52.7389 20.2766 51.8589 19.81C50.9922 19.3433 50.3056 18.6766 49.7989 17.81C49.3056 16.9433 49.0589 15.93 49.0589 14.77C49.0589 13.6233 49.3122 12.6166 49.8189 11.75C50.3256 10.87 51.0189 10.1966 51.8989 9.72996C52.7789 9.26329 53.7656 9.02996 54.8589 9.02996C55.9522 9.02996 56.9389 9.26329 57.8189 9.72996C58.6989 10.1966 59.3922 10.87 59.8989 11.75C60.4056 12.6166 60.6589 13.6233 60.6589 14.77C60.6589 15.9166 60.3989 16.93 59.8789 17.81C59.3722 18.6766 58.6722 19.3433 57.7789 19.81C56.8989 20.2766 55.9122 20.51 54.8189 20.51ZM54.8189 17.55C55.4722 17.55 56.0256 17.31 56.4789 16.83C56.9456 16.35 57.1789 15.6633 57.1789 14.77C57.1789 13.8766 56.9522 13.19 56.4989 12.71C56.0589 12.23 55.5122 11.99 54.8589 11.99C54.1922 11.99 53.6389 12.23 53.1989 12.71C52.7589 13.1766 52.5389 13.8633 52.5389 14.77C52.5389 15.6633 52.7522 16.35 53.1789 16.83C53.6189 17.31 54.1656 17.55 54.8189 17.55Z" fill="white"/>
<path d="M64.1933 8.02996C63.5933 8.02996 63.0999 7.85662 62.7133 7.50996C62.3399 7.14996 62.1533 6.70996 62.1533 6.18996C62.1533 5.65662 62.3399 5.21662 62.7133 4.86996C63.0999 4.50996 63.5933 4.32996 64.1933 4.32996C64.7799 4.32996 65.2599 4.50996 65.6333 4.86996C66.0199 5.21662 66.2133 5.65662 66.2133 6.18996C66.2133 6.70996 66.0199 7.14996 65.6333 7.50996C65.2599 7.85662 64.7799 8.02996 64.1933 8.02996ZM65.8933 9.18996V20.35H62.4733V9.18996H65.8933Z" fill="white"/>
<path d="M75.1717 9.06996C76.4784 9.06996 77.5184 9.49662 78.2917 10.35C79.0784 11.19 79.4717 12.35 79.4717 13.83V20.35H76.0717V14.29C76.0717 13.5433 75.8784 12.9633 75.4917 12.55C75.1051 12.1366 74.5851 11.93 73.9317 11.93C73.2784 11.93 72.7584 12.1366 72.3717 12.55C71.9851 12.9633 71.7917 13.5433 71.7917 14.29V20.35H68.3717V9.18996H71.7917V10.67C72.1384 10.1766 72.6051 9.78996 73.1917 9.50996C73.7784 9.21662 74.4384 9.06996 75.1717 9.06996Z" fill="white"/>
<path d="M92.8683 9.18996V20.35H89.4483V18.83C89.1016 19.3233 88.6283 19.7233 88.0283 20.03C87.4416 20.3233 86.7883 20.47 86.0683 20.47C85.215 20.47 84.4616 20.2833 83.8083 19.91C83.1549 19.5233 82.6483 18.97 82.2883 18.25C81.9283 17.53 81.7483 16.6833 81.7483 15.71V9.18996H85.1483V15.25C85.1483 15.9966 85.3416 16.5766 85.7283 16.99C86.1149 17.4033 86.6349 17.61 87.2883 17.61C87.9549 17.61 88.4816 17.4033 88.8683 16.99C89.2549 16.5766 89.4483 15.9966 89.4483 15.25V9.18996H92.8683Z" fill="white"/>
<path d="M98.7448 10.77C99.0782 10.25 99.5382 9.82996 100.125 9.50996C100.712 9.18996 101.398 9.02996 102.185 9.02996C103.105 9.02996 103.938 9.26329 104.685 9.72996C105.432 10.1966 106.018 10.8633 106.445 11.73C106.885 12.5966 107.105 13.6033 107.105 14.75C107.105 15.8966 106.885 16.91 106.445 17.79C106.018 18.6566 105.432 19.33 104.685 19.81C103.938 20.2766 103.105 20.51 102.185 20.51C101.412 20.51 100.725 20.35 100.125 20.03C99.5382 19.71 99.0782 19.2966 98.7448 18.79V25.67H95.3248V9.18996H98.7448V10.77ZM103.625 14.75C103.625 13.8966 103.385 13.23 102.905 12.75C102.438 12.2566 101.858 12.01 101.165 12.01C100.485 12.01 99.9048 12.2566 99.4248 12.75C98.9582 13.2433 98.7248 13.9166 98.7248 14.77C98.7248 15.6233 98.9582 16.2966 99.4248 16.79C99.9048 17.2833 100.485 17.53 101.165 17.53C101.845 17.53 102.425 17.2833 102.905 16.79C103.385 16.2833 103.625 15.6033 103.625 14.75Z" fill="white"/>
</svg>
