<svg width="92" height="12" viewBox="0 0 92 12" fill="none" xmlns="http://www.w3.org/2000/svg">
<g clip-path="url(#clip0_88_407)">
<path d="M16.5085 0.833374V11.2219H14.5996V0.833374H16.5085Z" fill="white"/>
<path d="M24.3574 4.03833V11.2218H23.1816C22.9372 11.2218 22.7804 11.1103 22.7113 10.8874L22.5868 10.3857C22.4439 10.5251 22.2963 10.6528 22.1441 10.7689C21.9919 10.885 21.8283 10.9849 21.6531 11.0685C21.4824 11.1521 21.2957 11.2172 21.0928 11.2636C20.8946 11.3101 20.6779 11.3333 20.4426 11.3333C20.0553 11.3333 19.7095 11.2659 19.4052 11.1312C19.1055 10.9965 18.8542 10.8084 18.6513 10.5669C18.4484 10.3253 18.294 10.0373 18.1879 9.7029C18.0819 9.36845 18.0288 9.0015 18.0288 8.60203V4.03833H19.9377V8.60203C19.9377 9.0015 20.0277 9.31271 20.2075 9.53567C20.392 9.75399 20.664 9.86314 21.0237 9.86314C21.2911 9.86314 21.5424 9.80508 21.7776 9.68896C22.0127 9.56818 22.2363 9.40562 22.4485 9.20124V4.03833H24.3574Z" fill="white"/>
<path d="M37.4857 11.2219V9.77264V5.41797L36.9325 5.32043C36.7895 5.29255 36.6719 5.24146 36.5796 5.16714C36.4921 5.09282 36.4482 4.98598 36.4482 4.84663V4.08021H37.4857V3.60642C37.4857 3.19766 37.548 2.82838 37.6725 2.49859C37.8016 2.16415 37.9838 1.88313 38.2189 1.65552C38.4541 1.42328 38.7423 1.24444 39.0835 1.11903C39.4246 0.993616 39.8096 0.930908 40.2385 0.930908C40.4045 0.930908 40.5613 0.942521 40.7088 0.965746C40.861 0.984327 41.0131 1.01452 41.1653 1.05632L41.1238 2.0039C41.1146 2.14789 41.0524 2.24312 40.9371 2.28957C40.8265 2.33138 40.7019 2.35227 40.5635 2.35227C40.3699 2.35227 40.1947 2.37318 40.038 2.41498C39.8858 2.45679 39.7567 2.52879 39.6506 2.63097C39.5445 2.72852 39.4639 2.86323 39.4086 3.03508C39.3532 3.20231 39.3255 3.41133 39.3255 3.66216V4.08021H41.0961V5.41797H39.3878V11.2219H37.4857Z" fill="white"/>
<path d="M46.3398 6.78355C46.3398 6.58382 46.3121 6.39338 46.2568 6.21221C46.2061 6.03106 46.1231 5.87081 46.0079 5.73146C45.8926 5.59211 45.7473 5.48296 45.5721 5.40399C45.3969 5.32038 45.1871 5.27858 44.9427 5.27858C44.4862 5.27858 44.1288 5.40864 43.8706 5.66875C43.6124 5.92887 43.4442 6.30047 43.3657 6.78355H46.3398ZM43.3381 7.92621C43.398 8.59974 43.5871 9.09211 43.9052 9.40332C44.228 9.71454 44.6476 9.87014 45.164 9.87014C45.4268 9.87014 45.6528 9.83995 45.8418 9.77957C46.0355 9.71454 46.2038 9.64487 46.3467 9.57055C46.4943 9.49158 46.6257 9.4219 46.741 9.36152C46.8608 9.29649 46.9784 9.26397 47.0937 9.26397C47.2412 9.26397 47.3565 9.31971 47.4396 9.4312L47.9928 10.1279C47.79 10.3648 47.5664 10.5622 47.322 10.7202C47.0775 10.8735 46.8239 10.9966 46.5612 11.0895C46.2984 11.1777 46.0332 11.2381 45.7658 11.2706C45.4983 11.3078 45.2401 11.3263 44.9911 11.3263C44.4932 11.3263 44.0274 11.2451 43.594 11.0825C43.1652 10.9153 42.7894 10.6714 42.4666 10.3509C42.1485 10.0258 41.8972 9.62396 41.7127 9.14553C41.5283 8.6671 41.436 8.11202 41.436 7.4803C41.436 6.99258 41.5145 6.53273 41.6713 6.10074C41.8326 5.66875 42.0632 5.2925 42.3628 4.972C42.6626 4.6515 43.0268 4.39835 43.4557 4.21255C43.8844 4.02211 44.3687 3.92688 44.9081 3.92688C45.3646 3.92688 45.7842 4.0012 46.167 4.14984C46.5543 4.29384 46.8862 4.50519 47.1629 4.78389C47.4442 5.06258 47.6609 5.40631 47.813 5.81507C47.9698 6.21918 48.0482 6.68136 48.0482 7.2016C48.0482 7.3456 48.0413 7.46404 48.0274 7.55694C48.0136 7.64985 47.9905 7.72416 47.9583 7.7799C47.926 7.83564 47.8822 7.87512 47.8269 7.89835C47.7715 7.91693 47.7001 7.92621 47.6124 7.92621H43.3381Z" fill="white"/>
<path d="M51.0243 5.22287C51.2502 4.81411 51.5107 4.49128 51.8059 4.25439C52.101 4.01749 52.4468 3.89905 52.8433 3.89905C53.1661 3.89905 53.429 3.97569 53.6318 4.12898L53.5073 5.55034C53.4843 5.64324 53.4473 5.70827 53.3967 5.74543C53.3505 5.77795 53.286 5.79421 53.203 5.79421C53.1292 5.79421 53.0232 5.78491 52.8849 5.76633C52.7465 5.7431 52.6174 5.73149 52.4975 5.73149C52.3223 5.73149 52.1655 5.75704 52.0273 5.80813C51.8934 5.85924 51.7736 5.93122 51.6675 6.02413C51.5615 6.11703 51.4647 6.23083 51.377 6.36553C51.294 6.50024 51.2157 6.65352 51.1419 6.82539V11.2219H49.2329V4.0384H50.3603C50.554 4.0384 50.6877 4.07323 50.7615 4.1429C50.8353 4.21258 50.8883 4.33336 50.9206 4.50522L51.0243 5.22287Z" fill="white"/>
<path d="M56.2179 4.87446C56.3609 4.73511 56.5084 4.60737 56.6606 4.49125C56.8173 4.37513 56.981 4.27526 57.1517 4.19164C57.3268 4.10803 57.5136 4.043 57.7118 3.99656C57.9148 3.95011 58.1338 3.92688 58.3689 3.92688C58.7562 3.92688 59.0998 3.99423 59.3995 4.12894C59.6992 4.26364 59.9505 4.45176 60.1534 4.6933C60.3609 4.93485 60.5154 5.22283 60.6168 5.55728C60.7229 5.89171 60.7759 6.25866 60.7759 6.65814V11.2218H58.8738V6.65814C58.8738 6.25866 58.7816 5.94978 58.5971 5.73146C58.4128 5.5085 58.1407 5.39702 57.7811 5.39702C57.5136 5.39702 57.2623 5.45508 57.0272 5.5712C56.7919 5.68734 56.5683 5.8499 56.3563 6.05893V11.2218H54.4473V4.03836H55.6231C55.8629 4.03836 56.0219 4.14984 56.1004 4.3728L56.2179 4.87446Z" fill="white"/>
<path d="M66.0239 8.21889C65.5581 8.24211 65.1708 8.28392 64.8619 8.3443C64.5529 8.40004 64.3063 8.47436 64.1219 8.56726C63.942 8.66016 63.8129 8.767 63.7346 8.88776C63.6607 9.00389 63.6238 9.13162 63.6238 9.27097C63.6238 9.54967 63.6999 9.74709 63.8521 9.86321C64.0088 9.97933 64.2256 10.0374 64.5023 10.0374C64.8204 10.0374 65.0948 9.98166 65.3253 9.87018C65.5604 9.75406 65.7934 9.57522 66.0239 9.33369V8.21889ZM62.1368 5.03474C62.5564 4.65386 63.0198 4.37051 63.527 4.18472C64.0342 3.99426 64.5829 3.89905 65.1731 3.89905C65.5973 3.89905 65.9754 3.96872 66.3075 4.10807C66.644 4.24742 66.9276 4.44251 67.1582 4.69333C67.3933 4.93952 67.5732 5.23447 67.6977 5.57821C67.8222 5.92194 67.8844 6.29818 67.8844 6.70694V11.2219H67.0129C66.833 11.2219 66.6948 11.1963 66.5979 11.1452C66.5057 11.0941 66.4297 10.9873 66.3697 10.8247L66.2175 10.3649C66.0377 10.5228 65.8625 10.6622 65.6918 10.7829C65.5259 10.9037 65.353 11.0059 65.1731 11.0895C64.9933 11.1685 64.7996 11.2288 64.5922 11.2706C64.3892 11.3125 64.161 11.3333 63.9074 11.3333C63.5939 11.3333 63.308 11.2915 63.0498 11.2079C62.7916 11.1243 62.568 11.0012 62.3789 10.8387C62.1945 10.6714 62.0515 10.4647 61.95 10.2185C61.8486 9.97236 61.7979 9.68903 61.7979 9.36852C61.7979 9.10376 61.8647 8.83899 61.9985 8.57422C62.1322 8.30946 62.3604 8.07025 62.6832 7.85658C63.0106 7.63826 63.444 7.45942 63.9835 7.32007C64.5276 7.17609 65.2077 7.0948 66.0239 7.07622V6.70694C66.0239 6.25638 65.9294 5.92659 65.7403 5.71756C65.5512 5.50389 65.2791 5.39705 64.9241 5.39705C64.6613 5.39705 64.4423 5.42957 64.267 5.4946C64.0919 5.55498 63.9374 5.62234 63.8037 5.69666C63.6746 5.76633 63.5524 5.83368 63.4371 5.89871C63.3218 5.9591 63.1881 5.98929 63.0359 5.98929C62.9022 5.98929 62.7893 5.95677 62.6971 5.89174C62.6094 5.82207 62.5357 5.74078 62.4757 5.64789L62.1368 5.03474Z" fill="white"/>
<path d="M71.1451 4.87446C71.288 4.73511 71.4356 4.60737 71.5878 4.49125C71.7446 4.37513 71.9082 4.27526 72.0788 4.19164C72.2541 4.10803 72.4408 4.043 72.6391 3.99656C72.8419 3.95011 73.0609 3.92688 73.2962 3.92688C73.6835 3.92688 74.027 3.99423 74.3267 4.12894C74.6264 4.26364 74.8777 4.45176 75.0806 4.6933C75.2881 4.93485 75.4426 5.22283 75.544 5.55728C75.65 5.89171 75.7031 6.25866 75.7031 6.65814V11.2218H73.8011V6.65814C73.8011 6.25866 73.7088 5.94978 73.5244 5.73146C73.3399 5.5085 73.0679 5.39702 72.7082 5.39702C72.4408 5.39702 72.1895 5.45508 71.9543 5.5712C71.7192 5.68734 71.4956 5.8499 71.2834 6.05893V11.2218H69.3745V4.03836H70.5503C70.7901 4.03836 70.9492 4.14984 71.0275 4.3728L71.1451 4.87446Z" fill="white"/>
<path d="M81.6288 5.9057C81.4489 5.69668 81.253 5.55036 81.0408 5.46675C80.8334 5.38314 80.6121 5.34133 80.3769 5.34133C80.1463 5.34133 79.9365 5.38547 79.7474 5.47372C79.5584 5.56197 79.3947 5.70132 79.2564 5.89176C79.1227 6.07757 79.0189 6.31678 78.9452 6.60942C78.8714 6.90206 78.8346 7.25043 78.8346 7.65454C78.8346 8.05401 78.8645 8.39309 78.9244 8.67179C78.9843 8.95049 79.0697 9.17577 79.1803 9.34764C79.2956 9.5195 79.434 9.64492 79.5954 9.72388C79.7567 9.7982 79.9365 9.83537 80.1349 9.83537C80.4714 9.83537 80.7527 9.76802 80.9786 9.6333C81.2092 9.4986 81.4258 9.30816 81.6288 9.06198V5.9057ZM83.5377 0.833374V11.2219H82.3619C82.1175 11.2219 81.9607 11.1104 81.8916 10.8875L81.7325 10.2604C81.5896 10.4183 81.4374 10.5623 81.2761 10.6924C81.1193 10.8224 80.9486 10.9362 80.7643 11.0338C80.5798 11.1267 80.3815 11.1987 80.1694 11.2498C79.9573 11.3009 79.7268 11.3264 79.4778 11.3264C79.0951 11.3264 78.7446 11.2451 78.4265 11.0825C78.1083 10.92 77.8316 10.6831 77.5964 10.3719C77.3659 10.056 77.1861 9.67047 77.0569 9.21525C76.9278 8.76005 76.8633 8.23982 76.8633 7.65454C76.8633 7.12037 76.9348 6.62336 77.0777 6.1635C77.2253 5.70365 77.4327 5.3065 77.7002 4.97205C77.9676 4.63762 78.2904 4.37518 78.6685 4.18474C79.0466 3.99429 79.4662 3.89907 79.9273 3.89907C80.3146 3.89907 80.6398 3.95713 80.9026 4.07326C81.1699 4.18938 81.4121 4.3473 81.6288 4.54705V0.833374H83.5377Z" fill="white"/>
<path d="M88.3416 3.92688C88.8764 3.92688 89.363 4.01282 89.801 4.18468C90.239 4.35654 90.6148 4.60272 90.9284 4.92323C91.2419 5.23909 91.484 5.62463 91.6546 6.07983C91.8252 6.53505 91.9105 7.04831 91.9105 7.61965C91.9105 8.19099 91.8252 8.70657 91.6546 9.16643C91.484 9.62164 91.2419 10.0095 90.9284 10.33C90.6148 10.6505 90.239 10.8967 89.801 11.0686C89.363 11.2404 88.8764 11.3263 88.3416 11.3263C87.8021 11.3263 87.3111 11.2404 86.8684 11.0686C86.4304 10.8967 86.0545 10.6505 85.741 10.33C85.4274 10.0095 85.1831 9.62164 85.0079 9.16643C84.8373 8.70657 84.752 8.19099 84.752 7.61965C84.752 7.04831 84.8373 6.53505 85.0079 6.07983C85.1831 5.62463 85.4274 5.23909 85.741 4.92323C86.0545 4.60272 86.4304 4.35654 86.8684 4.18468C87.3111 4.01282 87.8021 3.92688 88.3416 3.92688ZM88.3416 9.88408C88.8857 9.88408 89.2891 9.69596 89.552 9.31972C89.8148 8.93883 89.9462 8.37446 89.9462 7.62662C89.9462 6.88341 89.8148 6.3237 89.552 5.94745C89.2891 5.56656 88.8857 5.37612 88.3416 5.37612C87.7837 5.37612 87.3733 5.56656 87.1105 5.94745C86.8476 6.3237 86.7162 6.88341 86.7162 7.62662C86.7162 8.37446 86.8476 8.93883 87.1105 9.31972C87.3733 9.69596 87.7837 9.88408 88.3416 9.88408Z" fill="white"/>
<path fill-rule="evenodd" clip-rule="evenodd" d="M27.8973 11.2218V4.03833H25.9883V11.2218H27.8973Z" fill="white"/>
<path fill-rule="evenodd" clip-rule="evenodd" d="M37.4858 11.2218H37.861V9.77258H37.4858V11.2218Z" fill="white"/>
<path d="M34.6651 5.21583C34.7113 5.08577 34.7343 4.95339 34.7343 4.81869V4.03833H29.2772V5.48756H32.5557L29.3257 9.7865C29.2472 9.89334 29.185 10.0071 29.1389 10.1279C29.0973 10.2487 29.0767 10.3485 29.0767 10.4275V11.2218H37.4855V9.77256H31.2829L34.4852 5.5224C34.5591 5.44344 34.6191 5.34124 34.6651 5.21583Z" fill="white"/>
<path d="M11.9451 6C11.9451 9.31371 9.27107 12 5.97253 12C2.674 12 0 9.31371 0 6C0 2.68629 2.674 0 5.97253 0C9.27107 0 11.9451 2.68629 11.9451 6Z" fill="white"/>
<path d="M7.08743 10.0026C6.73902 10.1283 6.36275 10.2 5.97255 10.2C4.9831 10.2 4.0912 9.75496 3.47802 9.05146C3.34911 8.9043 3.23414 8.74637 3.1331 8.57768C2.81258 8.04646 2.62793 7.42193 2.62793 6.75431V2.54409C2.62793 2.33232 2.79168 2.16362 2.99723 2.16003H3.0042C3.11917 2.16003 3.22717 2.21746 3.29685 2.31078V2.31437L3.74281 2.92455L4.85767 4.45718H7.08743L8.20229 2.92455L8.64824 2.31437V2.31078C8.71793 2.21746 8.82593 2.16003 8.9409 2.16003H8.94787C9.15342 2.16362 9.31717 2.33232 9.31717 2.54409V6.75431C9.31717 7.37527 9.15691 7.96031 8.87819 8.46281C8.48449 9.1735 7.84693 9.72625 7.08743 10.0026ZM5.41512 6.75431C5.41512 6.60201 5.35638 6.45594 5.25185 6.34824C5.14731 6.24054 5.00552 6.18003 4.85767 6.18003C4.70983 6.18003 4.56805 6.24054 4.46351 6.34824C4.35897 6.45594 4.30024 6.60201 4.30024 6.75431C4.30024 6.90663 4.35897 7.0527 4.46351 7.1604C4.56805 7.2681 4.70983 7.32861 4.85767 7.32861C5.00552 7.32861 5.14731 7.2681 5.25185 7.1604C5.35638 7.0527 5.41512 6.90663 5.41512 6.75431ZM7.08743 7.32861C7.23526 7.32861 7.37705 7.2681 7.48159 7.1604C7.58613 7.0527 7.64486 6.90663 7.64486 6.75431C7.64486 6.60201 7.58613 6.45594 7.48159 6.34824C7.37705 6.24054 7.23526 6.18003 7.08743 6.18003C6.93958 6.18003 6.79779 6.24054 6.69325 6.34824C6.58872 6.45594 6.52998 6.60201 6.52998 6.75431C6.52998 6.90663 6.58872 7.0527 6.69325 7.1604C6.79779 7.2681 6.93958 7.32861 7.08743 7.32861Z" fill="black"/>
</g>
<defs>
<clipPath id="clip0_88_407">
<rect width="92" height="12" fill="white"/>
</clipPath>
</defs>
</svg>
