<svg width="61" height="60" viewBox="0 0 61 60" fill="none" xmlns="http://www.w3.org/2000/svg">
<path d="M30.5524 60C47.1209 60 60.5524 46.5685 60.5524 30C60.5524 13.4315 47.1209 0 30.5524 0C13.9839 0 0.552401 13.4315 0.552401 30C0.552401 46.5685 13.9839 60 30.5524 60Z" fill="#FFC727"/>
<mask id="mask0_59_128" style="mask-type:alpha" maskUnits="userSpaceOnUse" x="0" y="0" width="61" height="60">
<path d="M30.5524 60C47.1209 60 60.5524 46.5685 60.5524 30C60.5524 13.4315 47.1209 0 30.5524 0C13.9839 0 0.552401 13.4315 0.552401 30C0.552401 46.5685 13.9839 60 30.5524 60Z" fill="white"/>
</mask>
<g mask="url(#mask0_59_128)">
<path d="M35.5249 66.4613C32.081 67.5342 24.4422 64.0366 21.5777 59.2302C21.3846 58.8976 21.7493 55.3142 21.9961 50.9477C22.1248 48.287 22.2107 45.3366 22.1034 42.633C22.1034 42.0751 39.2692 46.034 39.2692 46.034C38.4451 49.4554 38.0416 52.9645 38.0676 56.4837C38.0928 56.845 38.1466 57.2037 38.2286 57.5565C38.2286 57.6102 38.2286 57.6638 38.2286 57.7389C38.6255 59.8525 39.2049 65.2597 35.5249 66.4613Z" fill="#EB9481"/>
<path d="M38.1642 57.578C38.1642 57.6317 38.1642 57.6961 38.1642 57.7604C37.5938 57.8616 37.0161 57.9154 36.4369 57.9213C26.4378 58.1252 23.2728 45.7443 22.6291 42.6008C25.6653 42.9012 39.1727 46.0126 39.1727 46.0126C38.349 49.4377 37.9455 52.9503 37.9711 56.473C37.9997 56.8467 38.0644 57.2168 38.1642 57.578Z" fill="#263238"/>
<path d="M39.9774 11.6593C39.9774 11.6593 44.1294 14.5346 45.7923 17.8819C47.4553 21.2293 46.4253 28.6106 46.4253 28.6106L39.9774 11.6593Z" fill="#263238"/>
<path d="M18.0158 21.7013C16.6318 27.8381 21.0842 44.9395 25.6439 48.5229C32.2527 53.6727 42.4235 53.4581 46.6291 45.6584C50.7167 38.1483 44.4834 15.9078 39.4838 12.7536C32.0703 8.06517 20.0649 12.6248 18.0158 21.7013Z" fill="#EB9481"/>
<path d="M33.7118 31.3358C33.7118 31.3358 33.626 31.4109 33.6475 31.4646C33.9801 32.6018 34.1625 33.9751 33.2183 34.6188C33.2183 34.6188 33.2183 34.6939 33.2183 34.6832C34.4736 34.1789 34.2054 32.3658 33.7118 31.3358Z" fill="#263238"/>
<path d="M32.3708 30.3916C30.4826 30.7242 31.2979 34.49 33.036 34.1788C34.774 33.8677 33.9586 30.1127 32.3708 30.3916Z" fill="#263238"/>
<path d="M40.5568 29.8121C40.5568 29.8121 40.664 29.8121 40.6748 29.898C40.8893 31.0674 41.3292 32.3763 42.4665 32.5372V32.6123C41.1468 32.6981 40.5782 30.9601 40.5568 29.8121Z" fill="#263238"/>
<path d="M41.3399 28.3747C43.1852 27.8383 44.1293 31.5933 42.4128 32.0654C40.6962 32.5374 39.795 28.836 41.3399 28.3747Z" fill="#263238"/>
<path d="M30.5147 28.997C30.9975 28.7609 31.4052 28.4498 31.8665 28.1709C32.3278 27.8919 32.8214 27.6452 33.0788 27.098C33.1336 26.9275 33.1307 26.7437 33.0706 26.575C33.0105 26.4063 32.8965 26.2621 32.7463 26.1646C32.4171 26.0176 32.0547 25.961 31.6964 26.0006C31.3381 26.0402 30.9969 26.1746 30.7078 26.3899C30.0554 26.7298 29.5568 27.3051 29.3131 27.9992C29.2746 28.1574 29.2813 28.3232 29.3324 28.4777C29.3835 28.6323 29.477 28.7694 29.6023 28.8734C29.7275 28.9774 29.8794 29.0441 30.0407 29.0659C30.2021 29.0878 30.3663 29.0639 30.5147 28.997Z" fill="#263238"/>
<path d="M42.3913 26.1752C41.8442 26.1752 41.3185 26.1752 40.8142 26.1109C40.2547 26.1635 39.6932 26.0316 39.2156 25.7354C39.0846 25.6111 38.9979 25.4472 38.9688 25.269C38.9398 25.0907 38.97 24.9078 39.0547 24.7483C39.2719 24.4623 39.5611 24.239 39.8929 24.1014C40.2247 23.9638 40.587 23.9168 40.9429 23.9651C41.6742 23.9491 42.3854 24.2053 42.9385 24.684C43.0593 24.801 43.1435 24.9505 43.181 25.1144C43.2185 25.2783 43.2076 25.4496 43.1497 25.6075C43.0918 25.7653 42.9893 25.903 42.8547 26.0038C42.7201 26.1046 42.5591 26.1641 42.3913 26.1752Z" fill="#263238"/>
<path d="M35.0851 42.0215C35.4284 42.2361 35.7824 42.5579 36.2116 42.4936C36.6453 42.3992 37.0523 42.2085 37.4025 41.9357C37.4025 41.9357 37.4883 41.9357 37.4668 41.9893C37.3485 42.2525 37.1615 42.4789 36.9256 42.645C36.6897 42.8111 36.4134 42.9107 36.1258 42.9334C35.8745 42.9227 35.6322 42.8373 35.4296 42.6883C35.2271 42.5392 35.0735 42.3333 34.9885 42.0966C34.9885 42.0966 35.0422 41.9893 35.0851 42.0215Z" fill="#263238"/>
<path d="M35.5679 38.2771C35.9638 38.6729 36.4363 38.9836 36.9566 39.1903C37.4768 39.3969 38.0338 39.495 38.5934 39.4787C39.0819 39.4655 39.566 39.3824 40.031 39.2319L40.2992 39.1461L40.546 39.0495C40.6051 39.0241 40.6541 38.9797 40.6851 38.9234C40.7162 38.867 40.7277 38.802 40.7177 38.7384V38.6204V38.5131C40.5567 37.6119 40.1705 36.2708 40.1705 36.2708C40.5353 36.3566 42.3698 36.7536 42.2411 36.2708C41.2475 32.2559 39.8493 28.3521 38.0677 24.6195C38.014 24.5015 37.8209 24.6195 37.8638 24.6946C38.7329 28.4174 40.2563 31.9579 41.2005 35.6807C40.5463 35.5323 39.8748 35.4745 39.2049 35.5091C39.0869 35.5734 39.9881 38.0947 40.031 38.5131C39.3121 38.7443 38.554 38.8283 37.802 38.7601C37.0499 38.6919 36.3193 38.4729 35.6537 38.1161C35.5464 38.1054 35.4714 38.202 35.5679 38.2771Z" fill="#263238"/>
<path d="M39.4088 38.8887C39.0454 39.62 38.5028 40.2474 37.8316 40.7125C37.4571 40.9601 37.0143 41.0839 36.5657 41.0666C35.5786 41.0666 35.3748 40.1761 35.3963 39.4036C35.4023 38.9974 35.46 38.5937 35.5679 38.202C36.7422 38.8346 38.088 39.0752 39.4088 38.8887Z" fill="#263238"/>
<path d="M37.8316 40.7126C37.4571 40.9601 37.0143 41.084 36.5657 41.0666C35.5786 41.0666 35.3748 40.1762 35.3963 39.4037C35.8902 39.3164 36.3992 39.3981 36.8411 39.6355C37.2829 39.873 37.6319 40.2524 37.8316 40.7126Z" fill="#FF9BBC"/>
<path d="M20.3224 36.4211C23.541 35.8418 22.3287 30.2414 22.3287 30.2414C22.3287 30.2414 28.5942 28.0206 27.693 19.5128C27.693 19.5128 37.6492 20.9719 41.5545 15.2213C45.4597 9.47075 30.3323 -0.0241175 17.5652 14.1484C17.5652 14.1484 10.731 16.7233 10.7525 22.7314C10.774 28.7394 16.3743 37.1185 20.3224 36.4211Z" fill="#263238"/>
<path d="M27.2639 18.6544C27.2639 18.5793 27.0816 18.6544 27.1245 18.7295C29.2702 24.0938 26.6524 29.7693 20.6873 30.531C20.653 30.5401 20.6226 30.5603 20.601 30.5884C20.5793 30.6166 20.5676 30.6511 20.5676 30.6866C20.5676 30.7221 20.5793 30.7566 20.601 30.7847C20.6226 30.8129 20.653 30.8331 20.6873 30.8421C26.7168 30.6812 30.9975 23.8149 27.2639 18.6544Z" fill="#263238"/>
<path d="M30.4181 6.79923C32.4633 6.61452 34.5247 6.73748 36.5335 7.16401C39.516 7.93647 43.7431 10.6079 42.4557 14.2878C40.6854 19.341 33.5831 19.4161 29.1736 19.1372C29.1138 19.1258 29.052 19.1386 29.0017 19.1728C28.9514 19.207 28.9168 19.2598 28.9054 19.3196C28.894 19.3793 28.9068 19.4412 28.941 19.4915C28.9752 19.5418 29.028 19.5764 29.0878 19.5878C33.6796 20.6607 42.5737 19.5127 43.2925 13.6012C44.1079 7.07818 34.8061 6.08041 30.4181 6.79923Z" fill="#263238"/>
<path d="M23.4659 35.7023C23.4659 35.7023 19.0243 30.4774 16.6104 32.1082C14.1964 33.739 17.9192 41.5816 20.9984 42.4077C21.3902 42.5472 21.8063 42.6053 22.2213 42.5785C22.6363 42.5517 23.0416 42.4404 23.4121 42.2516C23.7827 42.0628 24.1108 41.8004 24.3765 41.4805C24.6422 41.1605 24.8398 40.7897 24.9572 40.3907L23.4659 35.7023Z" fill="#EB9481"/>
<path d="M17.7369 34.329C17.7369 34.329 17.7369 34.3933 17.7369 34.4148C19.8826 35.0585 21.1915 36.8931 22.1464 38.835C22.0098 38.6318 21.8302 38.4611 21.6205 38.3349C21.4107 38.2086 21.1758 38.13 20.9323 38.1044C20.6888 38.0788 20.4427 38.107 20.2113 38.1869C19.9799 38.2668 19.7688 38.3964 19.5929 38.5668C19.5393 38.5668 19.5929 38.6955 19.6573 38.6741C20.0179 38.5145 20.4197 38.4732 20.8051 38.5561C21.1906 38.639 21.5399 38.8418 21.803 39.1354C22.2319 39.6185 22.6061 40.1474 22.9188 40.7125C23.0261 40.8842 23.3587 40.7125 23.2622 40.5516C23.0476 37.8587 20.6658 34.329 17.7369 34.329Z" fill="#263238"/>
</g>
</svg>
