<svg width="110" height="22" viewBox="0 0 110 22" fill="none" xmlns="http://www.w3.org/2000/svg">
<path d="M3.56 3.7C2.96 3.7 2.46667 3.5267 2.08 3.18C1.70667 2.82 1.52 2.38 1.52 1.86C1.52 1.3267 1.70667 0.886701 2.08 0.540001C2.46667 0.180001 2.96 0 3.56 0C4.14667 0 4.62667 0.180001 5 0.540001C5.38667 0.886701 5.58 1.3267 5.58 1.86C5.58 2.38 5.38667 2.82 5 3.18C4.62667 3.5267 4.14667 3.7 3.56 3.7ZM5.28 17.46C5.28 18.8333 4.93333 19.82 4.24 20.42C3.54667 21.0333 2.58 21.34 1.34 21.34H0V18.44H0.82C1.19333 18.44 1.46 18.3667 1.62 18.22C1.78 18.0733 1.86 17.8333 1.86 17.5V4.86H5.28V17.46Z" fill="#EDEDED"/>
<path d="M12.8189 16.18C11.7256 16.18 10.7389 15.9467 9.8589 15.48C8.99223 15.0133 8.30556 14.3467 7.7989 13.48C7.30556 12.6133 7.0589 11.6 7.0589 10.44C7.0589 9.2933 7.31223 8.2867 7.8189 7.42C8.32556 6.54 9.0189 5.8667 9.8989 5.4C10.7789 4.9333 11.7656 4.7 12.8589 4.7C13.9522 4.7 14.9389 4.9333 15.8189 5.4C16.6989 5.8667 17.3922 6.54 17.8989 7.42C18.4056 8.2867 18.6589 9.2933 18.6589 10.44C18.6589 11.5867 18.3989 12.6 17.8789 13.48C17.3722 14.3467 16.6722 15.0133 15.7789 15.48C14.8989 15.9467 13.9122 16.18 12.8189 16.18ZM12.8189 13.22C13.4722 13.22 14.0256 12.98 14.4789 12.5C14.9456 12.02 15.1789 11.3333 15.1789 10.44C15.1789 9.5467 14.9522 8.86 14.4989 8.38C14.0589 7.9 13.5122 7.66 12.8589 7.66C12.1922 7.66 11.6389 7.9 11.1989 8.38C10.7589 8.8467 10.5389 9.5333 10.5389 10.44C10.5389 11.3333 10.7522 12.02 11.1789 12.5C11.6189 12.98 12.1656 13.22 12.8189 13.22Z" fill="#EDEDED"/>
<path d="M22.1933 3.7C21.5933 3.7 21.0999 3.5267 20.7133 3.18C20.3399 2.82 20.1533 2.38 20.1533 1.86C20.1533 1.3267 20.3399 0.886701 20.7133 0.540001C21.0999 0.180001 21.5933 0 22.1933 0C22.7799 0 23.2599 0.180001 23.6333 0.540001C24.0199 0.886701 24.2133 1.3267 24.2133 1.86C24.2133 2.38 24.0199 2.82 23.6333 3.18C23.2599 3.5267 22.7799 3.7 22.1933 3.7ZM23.8933 4.86V16.02H20.4733V4.86H23.8933Z" fill="#EDEDED"/>
<path d="M33.1717 4.73999C34.4784 4.73999 35.5184 5.16669 36.2917 6.01999C37.0784 6.85999 37.4717 8.01999 37.4717 9.49999V16.02H34.0717V9.95999C34.0717 9.21329 33.8784 8.63329 33.4917 8.21999C33.1051 7.80669 32.5851 7.59999 31.9317 7.59999C31.2784 7.59999 30.7584 7.80669 30.3717 8.21999C29.9851 8.63329 29.7917 9.21329 29.7917 9.95999V16.02H26.3717V4.85999H29.7917V6.33999C30.1384 5.84669 30.6051 5.45999 31.1917 5.17999C31.7784 4.88669 32.4384 4.73999 33.1717 4.73999Z" fill="#EDEDED"/>
<path d="M50.8683 4.86V16.02H47.4483V14.5C47.1016 14.9933 46.6283 15.3933 46.0283 15.7C45.4416 15.9933 44.7883 16.14 44.0683 16.14C43.2149 16.14 42.4616 15.9533 41.8083 15.58C41.1549 15.1933 40.6483 14.64 40.2883 13.92C39.9283 13.2 39.7483 12.3533 39.7483 11.38V4.86H43.1483V10.92C43.1483 11.6667 43.3416 12.2467 43.7283 12.66C44.1149 13.0733 44.6349 13.28 45.2883 13.28C45.9549 13.28 46.4816 13.0733 46.8683 12.66C47.2549 12.2467 47.4483 11.6667 47.4483 10.92V4.86H50.8683Z" fill="#EDEDED"/>
<path d="M56.7448 6.44C57.0782 5.92 57.5382 5.5 58.1248 5.18C58.7115 4.86 59.3982 4.7 60.1848 4.7C61.1048 4.7 61.9382 4.9333 62.6848 5.4C63.4315 5.8667 64.0182 6.5333 64.4448 7.4C64.8848 8.2667 65.1048 9.2733 65.1048 10.42C65.1048 11.5667 64.8848 12.58 64.4448 13.46C64.0182 14.3267 63.4315 15 62.6848 15.48C61.9382 15.9467 61.1048 16.18 60.1848 16.18C59.4115 16.18 58.7248 16.02 58.1248 15.7C57.5382 15.38 57.0782 14.9667 56.7448 14.46V21.34H53.3248V4.86H56.7448V6.44ZM61.6248 10.42C61.6248 9.5667 61.3848 8.9 60.9048 8.42C60.4382 7.9267 59.8582 7.68 59.1648 7.68C58.4848 7.68 57.9048 7.9267 57.4248 8.42C56.9582 8.9133 56.7248 9.5867 56.7248 10.44C56.7248 11.2933 56.9582 11.9667 57.4248 12.46C57.9048 12.9533 58.4848 13.2 59.1648 13.2C59.8448 13.2 60.4248 12.9533 60.9048 12.46C61.3848 11.9533 61.6248 11.2733 61.6248 10.42Z" fill="#EDEDED"/>
<path d="M68.572 16.084C68.268 16.084 68.016 15.992 67.816 15.808C67.624 15.616 67.528 15.38 67.528 15.1C67.528 14.82 67.624 14.588 67.816 14.404C68.016 14.212 68.268 14.116 68.572 14.116C68.868 14.116 69.112 14.212 69.304 14.404C69.496 14.588 69.592 14.82 69.592 15.1C69.592 15.38 69.496 15.616 69.304 15.808C69.112 15.992 68.868 16.084 68.572 16.084Z" fill="#EDEDED"/>
<path d="M70.5132 12.652C70.5132 11.98 70.6452 11.384 70.9092 10.864C71.1812 10.344 71.5452 9.944 72.0012 9.664C72.4652 9.384 72.9812 9.244 73.5492 9.244C74.0452 9.244 74.4772 9.344 74.8452 9.544C75.2212 9.744 75.5212 9.996 75.7452 10.3V9.352H77.4372V16H75.7452V15.028C75.5292 15.34 75.2292 15.6 74.8452 15.808C74.4692 16.008 74.0332 16.108 73.5372 16.108C72.9772 16.108 72.4652 15.964 72.0012 15.676C71.5452 15.388 71.1812 14.984 70.9092 14.464C70.6452 13.936 70.5132 13.332 70.5132 12.652ZM75.7452 12.676C75.7452 12.268 75.6652 11.92 75.5052 11.632C75.3452 11.336 75.1292 11.112 74.8572 10.96C74.5852 10.8 74.2932 10.72 73.9812 10.72C73.6692 10.72 73.3812 10.796 73.1172 10.948C72.8532 11.1 72.6372 11.324 72.4692 11.62C72.3092 11.908 72.2292 12.252 72.2292 12.652C72.2292 13.052 72.3092 13.404 72.4692 13.708C72.6372 14.004 72.8532 14.232 73.1172 14.392C73.3892 14.552 73.6772 14.632 73.9812 14.632C74.2932 14.632 74.5852 14.556 74.8572 14.404C75.1292 14.244 75.3452 14.02 75.5052 13.732C75.6652 13.436 75.7452 13.084 75.7452 12.676Z" fill="#EDEDED"/>
<path d="M78.646 12.652C78.646 11.98 78.778 11.384 79.042 10.864C79.314 10.344 79.682 9.94399 80.146 9.66399C80.61 9.38399 81.126 9.244 81.694 9.244C82.126 9.244 82.538 9.33999 82.93 9.53199C83.322 9.71599 83.634 9.96399 83.866 10.276V7.12H85.57V16H83.866V15.016C83.658 15.344 83.366 15.608 82.99 15.808C82.614 16.008 82.178 16.108 81.682 16.108C81.122 16.108 80.61 15.964 80.146 15.676C79.682 15.388 79.314 14.984 79.042 14.464C78.778 13.936 78.646 13.332 78.646 12.652ZM83.878 12.676C83.878 12.268 83.798 11.92 83.638 11.632C83.478 11.336 83.262 11.112 82.99 10.96C82.718 10.8 82.426 10.72 82.114 10.72C81.802 10.72 81.514 10.796 81.25 10.948C80.986 11.1 80.77 11.324 80.602 11.62C80.442 11.908 80.362 12.252 80.362 12.652C80.362 13.052 80.442 13.404 80.602 13.708C80.77 14.004 80.986 14.232 81.25 14.392C81.522 14.552 81.81 14.632 82.114 14.632C82.426 14.632 82.718 14.556 82.99 14.404C83.262 14.244 83.478 14.02 83.638 13.732C83.798 13.436 83.878 13.084 83.878 12.676Z" fill="#EDEDED"/>
<path d="M95.4668 9.256C96.2828 9.256 96.9388 9.508 97.4348 10.012C97.9388 10.508 98.1908 11.204 98.1908 12.1V16H96.5108V12.328C96.5108 11.808 96.3788 11.412 96.1148 11.14C95.8508 10.86 95.4908 10.72 95.0348 10.72C94.5788 10.72 94.2148 10.86 93.9428 11.14C93.6788 11.412 93.5468 11.808 93.5468 12.328V16H91.8668V12.328C91.8668 11.808 91.7348 11.412 91.4708 11.14C91.2068 10.86 90.8468 10.72 90.3908 10.72C89.9268 10.72 89.5588 10.86 89.2868 11.14C89.0228 11.412 88.8908 11.808 88.8908 12.328V16H87.2108V9.352H88.8908V10.156C89.1068 9.876 89.3828 9.656 89.7188 9.496C90.0628 9.336 90.4388 9.256 90.8468 9.256C91.3668 9.256 91.8308 9.368 92.2388 9.592C92.6468 9.808 92.9628 10.12 93.1868 10.528C93.4028 10.144 93.7148 9.836 94.1228 9.604C94.5388 9.372 94.9868 9.256 95.4668 9.256Z" fill="#EDEDED"/>
<path d="M100.637 8.56001C100.341 8.56001 100.093 8.468 99.893 8.284C99.701 8.092 99.605 7.856 99.605 7.576C99.605 7.296 99.701 7.064 99.893 6.88C100.093 6.688 100.341 6.59201 100.637 6.59201C100.933 6.59201 101.177 6.688 101.369 6.88C101.569 7.064 101.669 7.296 101.669 7.576C101.669 7.856 101.569 8.092 101.369 8.284C101.177 8.468 100.933 8.56001 100.637 8.56001ZM101.465 9.35201V16H99.785V9.35201H101.465Z" fill="#EDEDED"/>
<path d="M106.809 9.256C107.601 9.256 108.241 9.508 108.729 10.012C109.217 10.508 109.461 11.204 109.461 12.1V16H107.781V12.328C107.781 11.8 107.649 11.396 107.385 11.116C107.121 10.828 106.761 10.684 106.305 10.684C105.841 10.684 105.473 10.828 105.201 11.116C104.937 11.396 104.805 11.8 104.805 12.328V16H103.125V9.352H104.805V10.18C105.029 9.892 105.313 9.668 105.657 9.508C106.009 9.34 106.393 9.256 106.809 9.256Z" fill="#EDEDED"/>
</svg>
