<svg width="77" height="10" viewBox="0 0 77 10" fill="none" xmlns="http://www.w3.org/2000/svg">
<path d="M13.8203 0.694445V9.35155H12.2222V0.694445H13.8203Z" fill="#EDEDED"/>
<path d="M20.3912 3.36531V9.35155H19.4068C19.2022 9.35155 19.071 9.25865 19.0131 9.07285L18.9089 8.6548C18.7892 8.77092 18.6657 8.87737 18.5383 8.97414C18.4109 9.07091 18.2739 9.15413 18.1272 9.22381C17.9843 9.29348 17.828 9.34767 17.6582 9.38638C17.4922 9.42509 17.3107 9.44444 17.1139 9.44444C16.7896 9.44444 16.5001 9.38832 16.2453 9.27606C15.9944 9.16381 15.7841 9.00704 15.6142 8.80576C15.4444 8.60448 15.3151 8.36449 15.2263 8.08579C15.1375 7.80709 15.0931 7.50129 15.0931 7.1684V3.36531H16.6912V7.1684C16.6912 7.50129 16.7665 7.76064 16.917 7.94644C17.0714 8.12837 17.2992 8.21933 17.6003 8.21933C17.8242 8.21933 18.0345 8.17094 18.2314 8.07417C18.4283 7.97353 18.6155 7.83805 18.7931 7.66774V3.36531H20.3912Z" fill="#EDEDED"/>
<path d="M31.3817 9.35155V8.14385V4.51495L30.9185 4.43366C30.7989 4.41044 30.7004 4.36786 30.6232 4.30592C30.5499 4.24399 30.5132 4.15496 30.5132 4.03884V3.40015H31.3817V3.00533C31.3817 2.66469 31.4339 2.35696 31.5381 2.08214C31.6462 1.80344 31.7986 1.56925 31.9955 1.37958C32.1924 1.18604 32.4336 1.03701 32.7193 0.932501C33.0049 0.827988 33.3273 0.775732 33.6862 0.775732C33.8252 0.775732 33.9565 0.785409 34.08 0.804763C34.2074 0.820247 34.3348 0.845407 34.4621 0.880244L34.4274 1.66989C34.4197 1.78989 34.3676 1.86924 34.2711 1.90795C34.1784 1.94279 34.0742 1.96021 33.9584 1.96021C33.7963 1.96021 33.6496 1.97762 33.5183 2.01246C33.3909 2.0473 33.2829 2.1073 33.1941 2.19245C33.1053 2.27374 33.0377 2.386 32.9914 2.52922C32.9451 2.66857 32.9219 2.84275 32.9219 3.05178V3.40015H34.4042V4.51495H32.9741V9.35155H31.3817Z" fill="#EDEDED"/>
<path d="M38.7942 5.65297C38.7942 5.48653 38.7711 5.32782 38.7247 5.17686C38.6823 5.0259 38.6128 4.89236 38.5163 4.77623C38.4198 4.66011 38.2982 4.56914 38.1515 4.50334C38.0048 4.43366 37.8292 4.39882 37.6246 4.39882C37.2424 4.39882 36.9433 4.50721 36.7271 4.72397C36.5109 4.94074 36.3701 5.25041 36.3044 5.65297H38.7942ZM36.2813 6.60519C36.3315 7.16646 36.4897 7.57677 36.7561 7.83612C37.0263 8.09546 37.3776 8.22514 37.8099 8.22514C38.0299 8.22514 38.2191 8.19998 38.3773 8.14965C38.5395 8.09546 38.6804 8.0374 38.8 7.97547C38.9235 7.90966 39.0336 7.8516 39.1301 7.80128C39.2304 7.74709 39.3289 7.71999 39.4254 7.71999C39.5489 7.71999 39.6454 7.76644 39.7149 7.85934L40.1781 8.43997C40.0082 8.63738 39.821 8.80189 39.6164 8.9335C39.4119 9.06123 39.1995 9.16381 38.9795 9.24123C38.7595 9.31477 38.5375 9.36509 38.3136 9.39219C38.0898 9.42316 37.8736 9.43864 37.6651 9.43864C37.2482 9.43864 36.8584 9.3709 36.4955 9.23542C36.1365 9.09607 35.8219 8.89285 35.5517 8.62577C35.2853 8.35481 35.075 8.01998 34.9206 7.62129C34.7662 7.22259 34.689 6.76003 34.689 6.2336C34.689 5.82716 34.7546 5.44395 34.8858 5.08396C35.0209 4.72397 35.2139 4.41044 35.4648 4.14335C35.7158 3.87626 36.0207 3.6653 36.3797 3.51047C36.7387 3.35177 37.144 3.27241 37.5957 3.27241C37.9778 3.27241 38.3291 3.33435 38.6495 3.45821C38.9737 3.57821 39.2517 3.75433 39.4833 3.98658C39.7187 4.21883 39.9002 4.50527 40.0275 4.8459C40.1588 5.18267 40.2244 5.56781 40.2244 6.00135C40.2244 6.12134 40.2186 6.22005 40.207 6.29746C40.1955 6.37488 40.1762 6.43681 40.1491 6.48326C40.1221 6.52971 40.0854 6.56262 40.0391 6.58197C39.9928 6.59745 39.933 6.60519 39.8596 6.60519H36.2813Z" fill="#EDEDED"/>
<path d="M42.7158 4.35237C42.9049 4.01174 43.123 3.74272 43.37 3.54531C43.6171 3.3479 43.9066 3.24919 44.2386 3.24919C44.5088 3.24919 44.7288 3.31306 44.8987 3.4408L44.7944 4.62527C44.7751 4.70268 44.7443 4.75688 44.7018 4.78784C44.6632 4.81494 44.6092 4.82849 44.5397 4.82849C44.4779 4.82849 44.3891 4.82074 44.2733 4.80526C44.1575 4.78591 44.0494 4.77623 43.9491 4.77623C43.8024 4.77623 43.6711 4.79752 43.5553 4.8401C43.4434 4.88268 43.343 4.94268 43.2542 5.02009C43.1655 5.09751 43.0844 5.19234 43.0111 5.3046C42.9416 5.41685 42.876 5.54459 42.8142 5.68781V9.35155H41.2161V3.36531H42.1599C42.322 3.36531 42.434 3.39435 42.4957 3.45241C42.5575 3.51047 42.6019 3.61111 42.6289 3.75433L42.7158 4.35237Z" fill="#EDEDED"/>
<path d="M47.0637 4.06206C47.1833 3.94594 47.3069 3.83949 47.4343 3.74272C47.5655 3.64595 47.7025 3.56273 47.8454 3.49305C47.992 3.42338 48.1484 3.36919 48.3144 3.33048C48.4842 3.29177 48.6676 3.27241 48.8644 3.27241C49.1887 3.27241 49.4763 3.32854 49.7272 3.4408C49.9781 3.55305 50.1885 3.70982 50.3583 3.9111C50.532 4.11238 50.6613 4.35237 50.7463 4.63107C50.835 4.90977 50.8794 5.21557 50.8794 5.54846V9.35155H49.2871V5.54846C49.2871 5.21557 49.2099 4.95816 49.0555 4.77623C48.9011 4.59043 48.6734 4.49753 48.3723 4.49753C48.1484 4.49753 47.938 4.54592 47.7411 4.64269C47.5443 4.73946 47.3571 4.87494 47.1795 5.04912V9.35155H45.5814V3.36531H46.5657C46.7664 3.36531 46.8996 3.45821 46.9652 3.64401L47.0637 4.06206Z" fill="#EDEDED"/>
<path d="M55.2729 6.84906C54.883 6.86841 54.5587 6.90325 54.3001 6.95357C54.0415 7.00002 53.835 7.06195 53.6806 7.13937C53.53 7.21678 53.4219 7.30581 53.3563 7.40646C53.2945 7.50323 53.2637 7.60967 53.2637 7.7258C53.2637 7.95805 53.3274 8.12256 53.4547 8.21933C53.586 8.3161 53.7674 8.36449 53.999 8.36449C54.2654 8.36449 54.495 8.31804 54.6881 8.22514C54.8849 8.12837 55.0799 7.97934 55.2729 7.77805V6.84906ZM52.0188 4.19561C52.37 3.8782 52.758 3.64208 53.1826 3.48725C53.6072 3.32854 54.0666 3.24919 54.5607 3.24919C54.9158 3.24919 55.2323 3.30725 55.5103 3.42338C55.7921 3.5395 56.0295 3.70208 56.2225 3.9111C56.4193 4.11625 56.5699 4.36205 56.6741 4.64849C56.7783 4.93493 56.8304 5.24847 56.8304 5.5891V9.35155H56.1009C55.9503 9.35155 55.8345 9.33026 55.7535 9.28768C55.6763 9.2451 55.6126 9.15607 55.5624 9.02059L55.435 8.63738C55.2844 8.76899 55.1378 8.88511 54.9949 8.98575C54.856 9.08639 54.7112 9.17155 54.5607 9.24123C54.4101 9.30703 54.248 9.35735 54.0743 9.39219C53.9044 9.42703 53.7134 9.44444 53.5011 9.44444C53.2386 9.44444 52.9992 9.40961 52.7831 9.33993C52.5669 9.27026 52.3797 9.16768 52.2214 9.0322C52.067 8.89285 51.9473 8.7206 51.8624 8.51545C51.7775 8.31029 51.735 8.07417 51.735 7.80709C51.735 7.58645 51.791 7.36581 51.903 7.14518C52.0149 6.92454 52.206 6.72519 52.4762 6.54713C52.7503 6.3652 53.1131 6.21618 53.5648 6.10005C54.0202 5.98006 54.5896 5.91232 55.2729 5.89683V5.5891C55.2729 5.21363 55.1937 4.9388 55.0355 4.76462C54.8772 4.58656 54.6495 4.49753 54.3522 4.49753C54.1322 4.49753 53.9488 4.52463 53.8022 4.57882C53.6555 4.62914 53.5262 4.68527 53.4142 4.7472C53.3061 4.80526 53.2038 4.86139 53.1073 4.91558C53.0108 4.9659 52.8989 4.99106 52.7715 4.99106C52.6595 4.99106 52.565 4.96396 52.4878 4.90977C52.4144 4.85171 52.3527 4.78397 52.3025 4.70656L52.0188 4.19561Z" fill="#EDEDED"/>
<path d="M59.5602 4.06206C59.6798 3.94594 59.8034 3.83949 59.9308 3.74272C60.062 3.64595 60.199 3.56273 60.3419 3.49305C60.4885 3.42338 60.6449 3.36919 60.8109 3.33048C60.9807 3.29177 61.1641 3.27241 61.3609 3.27241C61.6852 3.27241 61.9728 3.32854 62.2237 3.4408C62.4746 3.55305 62.685 3.70982 62.8548 3.9111C63.0285 4.11238 63.1578 4.35237 63.2428 4.63107C63.3315 4.90977 63.3759 5.21557 63.3759 5.54846V9.35155H61.7836V5.54846C61.7836 5.21557 61.7064 4.95816 61.552 4.77623C61.3976 4.59043 61.1699 4.49753 60.8688 4.49753C60.6449 4.49753 60.4345 4.54592 60.2376 4.64269C60.0408 4.73946 59.8535 4.87494 59.676 5.04912V9.35155H58.0779V3.36531H59.0622C59.2629 3.36531 59.3961 3.45821 59.4617 3.64401L59.5602 4.06206Z" fill="#EDEDED"/>
<path d="M68.3368 4.92139C68.1863 4.7472 68.0222 4.62527 67.8446 4.55559C67.6709 4.48592 67.4856 4.45108 67.2888 4.45108C67.0958 4.45108 66.9201 4.48785 66.7619 4.5614C66.6036 4.63495 66.4666 4.75107 66.3508 4.90977C66.2388 5.06461 66.152 5.26395 66.0902 5.50782C66.0284 5.75168 65.9976 6.04199 65.9976 6.37875C65.9976 6.71164 66.0226 6.99421 66.0728 7.22646C66.123 7.45871 66.1944 7.64645 66.2871 7.78967C66.3836 7.93289 66.4994 8.0374 66.6345 8.1032C66.7696 8.16514 66.9201 8.1961 67.0861 8.1961C67.3679 8.1961 67.6034 8.13998 67.7925 8.02772C67.9855 7.91547 68.167 7.75677 68.3368 7.55161V4.92139ZM69.9349 0.694445V9.35155H68.9506C68.746 9.35155 68.6147 9.25865 68.5568 9.07285L68.4237 8.55028C68.304 8.68189 68.1766 8.80189 68.0415 8.91027C67.9103 9.01865 67.7674 9.11349 67.613 9.19478C67.4586 9.27219 67.2926 9.33219 67.1151 9.37477C66.9375 9.41735 66.7445 9.43864 66.536 9.43864C66.2157 9.43864 65.9223 9.3709 65.6559 9.23542C65.3896 9.09994 65.158 8.90253 64.9611 8.64318C64.7681 8.37997 64.6176 8.05869 64.5095 7.67935C64.4014 7.30001 64.3473 6.86648 64.3473 6.37875C64.3473 5.93361 64.4072 5.51943 64.5268 5.13622C64.6504 4.75301 64.8241 4.42205 65.048 4.14335C65.2718 3.86465 65.5421 3.64595 65.8586 3.48725C66.1751 3.32854 66.5264 3.24919 66.9124 3.24919C67.2367 3.24919 67.5088 3.29758 67.7288 3.39435C67.9527 3.49112 68.1554 3.62272 68.3368 3.78917V0.694445H69.9349Z" fill="#EDEDED"/>
<path d="M73.9567 3.27241C74.4045 3.27241 74.8117 3.34403 75.1784 3.48725C75.5451 3.63047 75.8597 3.83562 76.1222 4.10271C76.3847 4.36592 76.5874 4.6872 76.7302 5.06654C76.873 5.44588 76.9444 5.87361 76.9444 6.34972C76.9444 6.82583 76.873 7.25549 76.7302 7.63871C76.5874 8.01805 76.3847 8.34126 76.1222 8.60835C75.8597 8.87543 75.5451 9.08059 75.1784 9.22381C74.8117 9.36703 74.4045 9.43864 73.9567 9.43864C73.505 9.43864 73.0939 9.36703 72.7234 9.22381C72.3567 9.08059 72.042 8.87543 71.7796 8.60835C71.5171 8.34126 71.3125 8.01805 71.1658 7.63871C71.023 7.25549 70.9516 6.82583 70.9516 6.34972C70.9516 5.87361 71.023 5.44588 71.1658 5.06654C71.3125 4.6872 71.5171 4.36592 71.7796 4.10271C72.042 3.83562 72.3567 3.63047 72.7234 3.48725C73.0939 3.34403 73.505 3.27241 73.9567 3.27241ZM73.9567 8.23675C74.4122 8.23675 74.7499 8.07998 74.97 7.76644C75.19 7.44904 75.3 6.97873 75.3 6.35553C75.3 5.73619 75.19 5.26976 74.97 4.95622C74.7499 4.63882 74.4122 4.48011 73.9567 4.48011C73.4896 4.48011 73.146 4.63882 72.926 4.95622C72.706 5.26976 72.596 5.73619 72.596 6.35553C72.596 6.97873 72.706 7.44904 72.926 7.76644C73.146 8.07998 73.4896 8.23675 73.9567 8.23675Z" fill="#EDEDED"/>
<path fill-rule="evenodd" clip-rule="evenodd" d="M23.3547 9.35155V3.36531H21.7566V9.35155H23.3547Z" fill="#EDEDED"/>
<path fill-rule="evenodd" clip-rule="evenodd" d="M31.3817 9.35155H31.6957V8.14385H31.3817V9.35155Z" fill="#EDEDED"/>
<path d="M29.0206 4.34657C29.0592 4.23819 29.0785 4.12787 29.0785 4.01561V3.36531H24.51V4.57301H27.2546L24.5505 8.15546C24.4849 8.24449 24.4328 8.33932 24.3942 8.43997C24.3595 8.54061 24.3421 8.62383 24.3421 8.68963V9.35155H31.3817V8.14385H26.1892L28.87 4.60204C28.9318 4.53624 28.982 4.45108 29.0206 4.34657Z" fill="#EDEDED"/>
<path d="M10 5C10 7.76142 7.76142 10 5 10C2.23858 10 0 7.76142 0 5C0 2.23858 2.23858 0 5 0C7.76142 0 10 2.23858 10 5Z" fill="#EDEDED"/>
<path d="M5.93333 8.33549C5.64167 8.44018 5.32667 8.5 5 8.5C4.17167 8.5 3.425 8.12911 2.91167 7.54286C2.80375 7.42022 2.7075 7.28862 2.62292 7.14804C2.35458 6.70536 2.2 6.18491 2.2 5.62857V2.12004C2.2 1.94357 2.33708 1.80299 2.50917 1.8H2.515C2.61125 1.8 2.70167 1.84786 2.76 1.92563V1.92862L3.13333 2.4371L4.06667 3.71429H5.93333L6.86667 2.4371L7.24 1.92862V1.92563C7.29833 1.84786 7.38875 1.8 7.485 1.8H7.49083C7.66292 1.80299 7.8 1.94357 7.8 2.12004V5.62857C7.8 6.14603 7.66583 6.63357 7.4325 7.05232C7.10292 7.64455 6.56917 8.10518 5.93333 8.33549ZM4.53333 5.62857C4.53333 5.50165 4.48417 5.37992 4.39665 5.29017C4.30913 5.20042 4.19043 5.15 4.06667 5.15C3.9429 5.15 3.8242 5.20042 3.73668 5.29017C3.64917 5.37992 3.6 5.50165 3.6 5.62857C3.6 5.7555 3.64917 5.87722 3.73668 5.96697C3.8242 6.05672 3.9429 6.10714 4.06667 6.10714C4.19043 6.10714 4.30913 6.05672 4.39665 5.96697C4.48417 5.87722 4.53333 5.7555 4.53333 5.62857ZM5.93333 6.10714C6.0571 6.10714 6.1758 6.05672 6.26332 5.96697C6.35083 5.87722 6.4 5.7555 6.4 5.62857C6.4 5.50165 6.35083 5.37992 6.26332 5.29017C6.1758 5.20042 6.0571 5.15 5.93333 5.15C5.80957 5.15 5.69087 5.20042 5.60335 5.29017C5.51583 5.37992 5.46667 5.50165 5.46667 5.62857C5.46667 5.7555 5.51583 5.87722 5.60335 5.96697C5.69087 6.05672 5.80957 6.10714 5.93333 6.10714Z" fill="black"/>
</svg>
