<svg width="110" height="90" viewBox="0 0 110 90" fill="none" xmlns="http://www.w3.org/2000/svg">
<circle cx="54.5524" cy="30" r="30" fill="#FFC727"/>
<mask id="mask0_5_39" style="mask-type:alpha" maskUnits="userSpaceOnUse" x="24" y="0" width="61" height="60">
<circle cx="54.5524" cy="30" r="30" fill="white"/>
</mask>
<g mask="url(#mask0_5_39)">
<path d="M59.5249 66.4613C56.081 67.5342 48.4422 64.0366 45.5777 59.2302C45.3846 58.8976 45.7493 55.3142 45.9961 50.9477C46.1248 48.287 46.2107 45.3366 46.1034 42.633C46.1034 42.0751 63.2692 46.034 63.2692 46.034C62.4451 49.4554 62.0416 52.9645 62.0676 56.4837C62.0928 56.845 62.1466 57.2037 62.2286 57.5565C62.2286 57.6102 62.2286 57.6638 62.2286 57.7389C62.6255 59.8525 63.2049 65.2597 59.5249 66.4613Z" fill="#EB9481"/>
<path d="M62.1642 57.578C62.1642 57.6317 62.1642 57.6961 62.1642 57.7604C61.5938 57.8616 61.0161 57.9154 60.4369 57.9213C50.4378 58.1252 47.2728 45.7443 46.6291 42.6008C49.6653 42.9012 63.1727 46.0126 63.1727 46.0126C62.349 49.4377 61.9455 52.9503 61.9711 56.473C61.9997 56.8467 62.0644 57.2168 62.1642 57.578Z" fill="#263238"/>
<path d="M63.9774 11.6593C63.9774 11.6593 68.1294 14.5346 69.7923 17.8819C71.4553 21.2293 70.4253 28.6106 70.4253 28.6106L63.9774 11.6593Z" fill="#263238"/>
<path d="M42.0158 21.7013C40.6318 27.8381 45.0842 44.9395 49.6439 48.5229C56.2527 53.6727 66.4235 53.4581 70.6291 45.6584C74.7167 38.1483 68.4834 15.9078 63.4838 12.7536C56.0703 8.06517 44.0649 12.6248 42.0158 21.7013Z" fill="#EB9481"/>
<path d="M57.7118 31.3358C57.7118 31.3358 57.626 31.4109 57.6475 31.4646C57.9801 32.6018 58.1625 33.9751 57.2183 34.6188C57.2183 34.6188 57.2183 34.6939 57.2183 34.6832C58.4736 34.1789 58.2054 32.3658 57.7118 31.3358Z" fill="#263238"/>
<path d="M56.3708 30.3916C54.4826 30.7242 55.2979 34.49 57.036 34.1788C58.774 33.8677 57.9586 30.1127 56.3708 30.3916Z" fill="#263238"/>
<path d="M64.5568 29.8121C64.5568 29.8121 64.664 29.8121 64.6748 29.898C64.8893 31.0674 65.3292 32.3763 66.4665 32.5372V32.6123C65.1468 32.6981 64.5782 30.9601 64.5568 29.8121Z" fill="#263238"/>
<path d="M65.3399 28.3747C67.1852 27.8383 68.1293 31.5933 66.4128 32.0654C64.6962 32.5374 63.795 28.836 65.3399 28.3747Z" fill="#263238"/>
<path d="M54.5147 28.997C54.9975 28.7609 55.4052 28.4498 55.8665 28.1709C56.3278 27.8919 56.8214 27.6452 57.0788 27.098C57.1336 26.9275 57.1307 26.7437 57.0706 26.575C57.0105 26.4063 56.8965 26.2621 56.7463 26.1646C56.4171 26.0176 56.0547 25.961 55.6964 26.0006C55.3381 26.0402 54.9969 26.1746 54.7078 26.3899C54.0554 26.7298 53.5568 27.3051 53.3131 27.9992C53.2746 28.1574 53.2813 28.3232 53.3324 28.4777C53.3835 28.6323 53.477 28.7694 53.6023 28.8734C53.7275 28.9774 53.8794 29.0441 54.0407 29.0659C54.2021 29.0878 54.3663 29.0639 54.5147 28.997Z" fill="#263238"/>
<path d="M66.3913 26.1752C65.8442 26.1752 65.3185 26.1752 64.8142 26.1109C64.2547 26.1635 63.6932 26.0316 63.2156 25.7354C63.0846 25.6111 62.9979 25.4472 62.9688 25.269C62.9398 25.0907 62.97 24.9078 63.0547 24.7483C63.2719 24.4623 63.5611 24.239 63.8929 24.1014C64.2247 23.9638 64.587 23.9168 64.9429 23.9651C65.6742 23.9491 66.3854 24.2053 66.9385 24.684C67.0593 24.801 67.1435 24.9505 67.181 25.1144C67.2185 25.2783 67.2076 25.4496 67.1497 25.6075C67.0918 25.7653 66.9893 25.903 66.8547 26.0038C66.7201 26.1046 66.5591 26.1641 66.3913 26.1752Z" fill="#263238"/>
<path d="M59.0851 42.0215C59.4284 42.2361 59.7824 42.5579 60.2116 42.4936C60.6453 42.3992 61.0523 42.2085 61.4025 41.9357C61.4025 41.9357 61.4883 41.9357 61.4668 41.9893C61.3485 42.2525 61.1615 42.4789 60.9256 42.645C60.6897 42.8111 60.4134 42.9107 60.1258 42.9334C59.8745 42.9227 59.6322 42.8373 59.4296 42.6883C59.2271 42.5392 59.0735 42.3333 58.9885 42.0966C58.9885 42.0966 59.0422 41.9893 59.0851 42.0215Z" fill="#263238"/>
<path d="M59.5679 38.2771C59.9638 38.6729 60.4363 38.9836 60.9566 39.1903C61.4768 39.3969 62.0338 39.495 62.5934 39.4787C63.0819 39.4655 63.566 39.3824 64.031 39.2319L64.2992 39.1461L64.546 39.0495C64.6051 39.0241 64.6541 38.9797 64.6851 38.9234C64.7162 38.867 64.7277 38.802 64.7177 38.7384V38.6204V38.5131C64.5567 37.6119 64.1705 36.2708 64.1705 36.2708C64.5353 36.3566 66.3698 36.7536 66.2411 36.2708C65.2475 32.2559 63.8493 28.3521 62.0677 24.6195C62.014 24.5015 61.8209 24.6195 61.8638 24.6946C62.7329 28.4174 64.2563 31.9579 65.2005 35.6807C64.5463 35.5323 63.8748 35.4745 63.2049 35.5091C63.0869 35.5734 63.9881 38.0947 64.031 38.5131C63.3121 38.7443 62.554 38.8283 61.802 38.7601C61.0499 38.6919 60.3193 38.4729 59.6537 38.1161C59.5464 38.1054 59.4714 38.202 59.5679 38.2771Z" fill="#263238"/>
<path d="M63.4088 38.8887C63.0454 39.62 62.5028 40.2474 61.8316 40.7125C61.4571 40.9601 61.0143 41.0839 60.5657 41.0666C59.5786 41.0666 59.3748 40.1761 59.3963 39.4036C59.4023 38.9974 59.46 38.5937 59.5679 38.202C60.7422 38.8346 62.088 39.0752 63.4088 38.8887Z" fill="#263238"/>
<path d="M61.8316 40.7126C61.4571 40.9601 61.0143 41.084 60.5657 41.0666C59.5786 41.0666 59.3748 40.1762 59.3963 39.4037C59.8902 39.3164 60.3992 39.3981 60.8411 39.6355C61.2829 39.873 61.6319 40.2524 61.8316 40.7126Z" fill="#FF9BBC"/>
<path d="M44.3224 36.4211C47.541 35.8418 46.3287 30.2414 46.3287 30.2414C46.3287 30.2414 52.5942 28.0206 51.693 19.5128C51.693 19.5128 61.6492 20.9719 65.5545 15.2213C69.4597 9.47074 54.3323 -0.0241225 41.5652 14.1484C41.5652 14.1484 34.731 16.7233 34.7525 22.7314C34.774 28.7394 40.3743 37.1185 44.3224 36.4211Z" fill="#263238"/>
<path d="M51.2639 18.6544C51.2639 18.5793 51.0816 18.6544 51.1245 18.7295C53.2702 24.0938 50.6524 29.7693 44.6873 30.531C44.653 30.5401 44.6226 30.5603 44.601 30.5884C44.5793 30.6166 44.5676 30.6511 44.5676 30.6866C44.5676 30.7221 44.5793 30.7566 44.601 30.7847C44.6226 30.8129 44.653 30.8331 44.6873 30.8421C50.7168 30.6812 54.9975 23.8149 51.2639 18.6544Z" fill="#263238"/>
<path d="M54.4181 6.79923C56.4633 6.61452 58.5247 6.73748 60.5335 7.16401C63.516 7.93647 67.7431 10.6079 66.4557 14.2878C64.6854 19.341 57.5831 19.4161 53.1736 19.1372C53.1138 19.1258 53.052 19.1386 53.0017 19.1728C52.9514 19.207 52.9168 19.2598 52.9054 19.3196C52.894 19.3793 52.9068 19.4412 52.941 19.4915C52.9752 19.5418 53.028 19.5764 53.0878 19.5878C57.6796 20.6607 66.5737 19.5127 67.2925 13.6012C68.1079 7.07818 58.8061 6.08041 54.4181 6.79923Z" fill="#263238"/>
<path d="M47.4659 35.7023C47.4659 35.7023 43.0243 30.4774 40.6104 32.1082C38.1964 33.739 41.9192 41.5816 44.9984 42.4077C45.3902 42.5472 45.8063 42.6053 46.2213 42.5785C46.6363 42.5517 47.0416 42.4404 47.4121 42.2516C47.7827 42.0628 48.1108 41.8004 48.3765 41.4805C48.6422 41.1605 48.8398 40.7897 48.9572 40.3907L47.4659 35.7023Z" fill="#EB9481"/>
<path d="M41.7369 34.329C41.7369 34.329 41.7369 34.3933 41.7369 34.4148C43.8826 35.0585 45.1915 36.8931 46.1464 38.835C46.0098 38.6318 45.8302 38.4611 45.6205 38.3349C45.4107 38.2086 45.1758 38.13 44.9323 38.1044C44.6888 38.0788 44.4427 38.107 44.2113 38.1869C43.9799 38.2668 43.7688 38.3964 43.5929 38.5668C43.5393 38.5668 43.5929 38.6955 43.6573 38.6741C44.0179 38.5145 44.4197 38.4732 44.8051 38.5561C45.1906 38.639 45.5399 38.8418 45.803 39.1354C46.2319 39.6185 46.6061 40.1474 46.9188 40.7125C47.0261 40.8842 47.3587 40.7125 47.2622 40.5516C47.0476 37.8587 44.6658 34.329 41.7369 34.329Z" fill="#263238"/>
</g>
<path d="M3.56 71.7C2.96 71.7 2.46667 71.5267 2.08 71.18C1.70667 70.82 1.52 70.38 1.52 69.86C1.52 69.3267 1.70667 68.8867 2.08 68.54C2.46667 68.18 2.96 68 3.56 68C4.14667 68 4.62667 68.18 5 68.54C5.38667 68.8867 5.58 69.3267 5.58 69.86C5.58 70.38 5.38667 70.82 5 71.18C4.62667 71.5267 4.14667 71.7 3.56 71.7ZM5.28 85.46C5.28 86.8333 4.93333 87.82 4.24 88.42C3.54667 89.0333 2.58 89.34 1.34 89.34H0V86.44H0.82C1.19333 86.44 1.46 86.3667 1.62 86.22C1.78 86.0733 1.86 85.8333 1.86 85.5V72.86H5.28V85.46Z" fill="black"/>
<path d="M12.8189 84.18C11.7256 84.18 10.7389 83.9467 9.85891 83.48C8.99224 83.0133 8.30557 82.3467 7.79891 81.48C7.30557 80.6133 7.05891 79.6 7.05891 78.44C7.05891 77.2933 7.31224 76.2867 7.81891 75.42C8.32557 74.54 9.01891 73.8667 9.89891 73.4C10.7789 72.9333 11.7656 72.7 12.8589 72.7C13.9522 72.7 14.9389 72.9333 15.8189 73.4C16.6989 73.8667 17.3922 74.54 17.8989 75.42C18.4056 76.2867 18.6589 77.2933 18.6589 78.44C18.6589 79.5867 18.3989 80.6 17.8789 81.48C17.3722 82.3467 16.6722 83.0133 15.7789 83.48C14.8989 83.9467 13.9122 84.18 12.8189 84.18ZM12.8189 81.22C13.4722 81.22 14.0256 80.98 14.4789 80.5C14.9456 80.02 15.1789 79.3333 15.1789 78.44C15.1789 77.5467 14.9522 76.86 14.4989 76.38C14.0589 75.9 13.5122 75.66 12.8589 75.66C12.1922 75.66 11.6389 75.9 11.1989 76.38C10.7589 76.8467 10.5389 77.5333 10.5389 78.44C10.5389 79.3333 10.7522 80.02 11.1789 80.5C11.6189 80.98 12.1656 81.22 12.8189 81.22Z" fill="black"/>
<path d="M22.1933 71.7C21.5933 71.7 21.0999 71.5267 20.7133 71.18C20.3399 70.82 20.1533 70.38 20.1533 69.86C20.1533 69.3267 20.3399 68.8867 20.7133 68.54C21.0999 68.18 21.5933 68 22.1933 68C22.7799 68 23.2599 68.18 23.6333 68.54C24.0199 68.8867 24.2133 69.3267 24.2133 69.86C24.2133 70.38 24.0199 70.82 23.6333 71.18C23.2599 71.5267 22.7799 71.7 22.1933 71.7ZM23.8933 72.86V84.02H20.4733V72.86H23.8933Z" fill="black"/>
<path d="M33.1717 72.74C34.4784 72.74 35.5184 73.1667 36.2917 74.02C37.0784 74.86 37.4717 76.02 37.4717 77.5V84.02H34.0717V77.96C34.0717 77.2133 33.8784 76.6333 33.4917 76.22C33.1051 75.8067 32.5851 75.6 31.9317 75.6C31.2784 75.6 30.7584 75.8067 30.3717 76.22C29.9851 76.6333 29.7917 77.2133 29.7917 77.96V84.02H26.3717V72.86H29.7917V74.34C30.1384 73.8467 30.6051 73.46 31.1917 73.18C31.7784 72.8867 32.4384 72.74 33.1717 72.74Z" fill="black"/>
<path d="M50.8683 72.86V84.02H47.4483V82.5C47.1016 82.9933 46.6283 83.3933 46.0283 83.7C45.4416 83.9933 44.7883 84.14 44.0683 84.14C43.2149 84.14 42.4616 83.9533 41.8083 83.58C41.1549 83.1933 40.6483 82.64 40.2883 81.92C39.9283 81.2 39.7483 80.3533 39.7483 79.38V72.86H43.1483V78.92C43.1483 79.6667 43.3416 80.2467 43.7283 80.66C44.1149 81.0733 44.6349 81.28 45.2883 81.28C45.9549 81.28 46.4816 81.0733 46.8683 80.66C47.2549 80.2467 47.4483 79.6667 47.4483 78.92V72.86H50.8683Z" fill="black"/>
<path d="M56.7448 74.44C57.0782 73.92 57.5382 73.5 58.1248 73.18C58.7115 72.86 59.3982 72.7 60.1848 72.7C61.1048 72.7 61.9382 72.9333 62.6848 73.4C63.4315 73.8667 64.0182 74.5333 64.4448 75.4C64.8848 76.2667 65.1048 77.2733 65.1048 78.42C65.1048 79.5667 64.8848 80.58 64.4448 81.46C64.0182 82.3267 63.4315 83 62.6848 83.48C61.9382 83.9467 61.1048 84.18 60.1848 84.18C59.4115 84.18 58.7248 84.02 58.1248 83.7C57.5382 83.38 57.0782 82.9667 56.7448 82.46V89.34H53.3248V72.86H56.7448V74.44ZM61.6248 78.42C61.6248 77.5667 61.3848 76.9 60.9048 76.42C60.4382 75.9267 59.8582 75.68 59.1648 75.68C58.4848 75.68 57.9048 75.9267 57.4248 76.42C56.9582 76.9133 56.7248 77.5867 56.7248 78.44C56.7248 79.2933 56.9582 79.9667 57.4248 80.46C57.9048 80.9533 58.4848 81.2 59.1648 81.2C59.8448 81.2 60.4248 80.9533 60.9048 80.46C61.3848 79.9533 61.6248 79.2733 61.6248 78.42Z" fill="black"/>
<path d="M68.572 84.084C68.268 84.084 68.016 83.992 67.816 83.808C67.624 83.616 67.528 83.38 67.528 83.1C67.528 82.82 67.624 82.588 67.816 82.404C68.016 82.212 68.268 82.116 68.572 82.116C68.868 82.116 69.112 82.212 69.304 82.404C69.496 82.588 69.592 82.82 69.592 83.1C69.592 83.38 69.496 83.616 69.304 83.808C69.112 83.992 68.868 84.084 68.572 84.084Z" fill="black"/>
<path d="M70.5132 80.652C70.5132 79.98 70.6452 79.384 70.9092 78.864C71.1812 78.344 71.5452 77.944 72.0012 77.664C72.4652 77.384 72.9812 77.244 73.5492 77.244C74.0452 77.244 74.4772 77.344 74.8452 77.544C75.2212 77.744 75.5212 77.996 75.7452 78.3V77.352H77.4372V84H75.7452V83.028C75.5292 83.34 75.2292 83.6 74.8452 83.808C74.4692 84.008 74.0332 84.108 73.5372 84.108C72.9772 84.108 72.4652 83.964 72.0012 83.676C71.5452 83.388 71.1812 82.984 70.9092 82.464C70.6452 81.936 70.5132 81.332 70.5132 80.652ZM75.7452 80.676C75.7452 80.268 75.6652 79.92 75.5052 79.632C75.3452 79.336 75.1292 79.112 74.8572 78.96C74.5852 78.8 74.2932 78.72 73.9812 78.72C73.6692 78.72 73.3812 78.796 73.1172 78.948C72.8532 79.1 72.6372 79.324 72.4692 79.62C72.3092 79.908 72.2292 80.252 72.2292 80.652C72.2292 81.052 72.3092 81.404 72.4692 81.708C72.6372 82.004 72.8532 82.232 73.1172 82.392C73.3892 82.552 73.6772 82.632 73.9812 82.632C74.2932 82.632 74.5852 82.556 74.8572 82.404C75.1292 82.244 75.3452 82.02 75.5052 81.732C75.6652 81.436 75.7452 81.084 75.7452 80.676Z" fill="black"/>
<path d="M78.646 80.652C78.646 79.98 78.778 79.384 79.042 78.864C79.314 78.344 79.682 77.944 80.146 77.664C80.61 77.384 81.126 77.244 81.694 77.244C82.126 77.244 82.538 77.34 82.93 77.532C83.322 77.716 83.634 77.964 83.866 78.276V75.12H85.57V84H83.866V83.016C83.658 83.344 83.366 83.608 82.99 83.808C82.614 84.008 82.178 84.108 81.682 84.108C81.122 84.108 80.61 83.964 80.146 83.676C79.682 83.388 79.314 82.984 79.042 82.464C78.778 81.936 78.646 81.332 78.646 80.652ZM83.878 80.676C83.878 80.268 83.798 79.92 83.638 79.632C83.478 79.336 83.262 79.112 82.99 78.96C82.718 78.8 82.426 78.72 82.114 78.72C81.802 78.72 81.514 78.796 81.25 78.948C80.986 79.1 80.77 79.324 80.602 79.62C80.442 79.908 80.362 80.252 80.362 80.652C80.362 81.052 80.442 81.404 80.602 81.708C80.77 82.004 80.986 82.232 81.25 82.392C81.522 82.552 81.81 82.632 82.114 82.632C82.426 82.632 82.718 82.556 82.99 82.404C83.262 82.244 83.478 82.02 83.638 81.732C83.798 81.436 83.878 81.084 83.878 80.676Z" fill="black"/>
<path d="M95.4668 77.256C96.2828 77.256 96.9388 77.508 97.4348 78.012C97.9388 78.508 98.1908 79.204 98.1908 80.1V84H96.5108V80.328C96.5108 79.808 96.3788 79.412 96.1148 79.14C95.8508 78.86 95.4908 78.72 95.0348 78.72C94.5788 78.72 94.2148 78.86 93.9428 79.14C93.6788 79.412 93.5468 79.808 93.5468 80.328V84H91.8668V80.328C91.8668 79.808 91.7348 79.412 91.4708 79.14C91.2068 78.86 90.8468 78.72 90.3908 78.72C89.9268 78.72 89.5588 78.86 89.2868 79.14C89.0228 79.412 88.8908 79.808 88.8908 80.328V84H87.2108V77.352H88.8908V78.156C89.1068 77.876 89.3828 77.656 89.7188 77.496C90.0628 77.336 90.4388 77.256 90.8468 77.256C91.3668 77.256 91.8308 77.368 92.2388 77.592C92.6468 77.808 92.9628 78.12 93.1868 78.528C93.4028 78.144 93.7148 77.836 94.1228 77.604C94.5388 77.372 94.9868 77.256 95.4668 77.256Z" fill="black"/>
<path d="M100.637 76.56C100.341 76.56 100.093 76.468 99.893 76.284C99.701 76.092 99.605 75.856 99.605 75.576C99.605 75.296 99.701 75.064 99.893 74.88C100.093 74.688 100.341 74.592 100.637 74.592C100.933 74.592 101.177 74.688 101.369 74.88C101.569 75.064 101.669 75.296 101.669 75.576C101.669 75.856 101.569 76.092 101.369 76.284C101.177 76.468 100.933 76.56 100.637 76.56ZM101.465 77.352V84H99.785V77.352H101.465Z" fill="black"/>
<path d="M106.809 77.256C107.601 77.256 108.241 77.508 108.729 78.012C109.217 78.508 109.461 79.204 109.461 80.1V84H107.781V80.328C107.781 79.8 107.649 79.396 107.385 79.116C107.121 78.828 106.761 78.684 106.305 78.684C105.841 78.684 105.473 78.828 105.201 79.116C104.937 79.396 104.805 79.8 104.805 80.328V84H103.125V77.352H104.805V78.18C105.029 77.892 105.313 77.668 105.657 77.508C106.009 77.34 106.393 77.256 106.809 77.256Z" fill="black"/>
</svg>
