<svg width="412" height="417" viewBox="0 0 412 417" fill="none" xmlns="http://www.w3.org/2000/svg">
<path d="M48.4501 346.2C42.7401 346.437 36.3701 346.798 31.6401 342.627C27.2701 338.806 23.3801 333.023 23.9501 326.406C24.1201 324.524 24.5001 323.363 26.2901 324.152C29.0201 325.381 31.1201 328.774 33.0001 331.141C35.4015 334.241 38.0566 337.079 40.9301 339.617C42.9301 341.376 45.1501 342.898 47.2201 344.588L48.0001 345.242C48.0901 345.321 48.2001 345.4 48.2901 345.49H48.4601C48.5058 345.487 48.5514 345.498 48.5919 345.522C48.6325 345.545 48.6664 345.581 48.6901 345.626C48.6996 345.662 48.6996 345.701 48.6901 345.738C48.7096 345.786 48.7185 345.838 48.7162 345.891C48.7139 345.943 48.7004 345.994 48.6768 346.04C48.6533 346.085 48.6204 346.123 48.5809 346.151C48.5415 346.179 48.4966 346.196 48.4501 346.2Z" fill="#455A64"/>
<path d="M48.7301 345.783C43.7301 345.682 38.2901 345.941 34.2801 342.097C32.4374 340.262 30.8646 338.108 29.6201 335.717C29.0301 334.646 27.2901 331.468 28.0201 330.205C29.3201 327.951 35.3001 337.239 36.1301 338.096C39.2688 341.298 43.0893 343.531 47.2201 344.577L48.0001 345.231C45.0672 344.55 42.2533 343.331 39.6701 341.624C36.1101 339.234 34.1201 335.683 31.3401 332.381C30.7301 331.659 28.9201 329.258 28.2301 330.757C27.7801 331.738 29.4601 334.849 29.8201 335.514C31.0096 337.779 32.4965 339.827 34.2301 341.59C38.2301 345.524 43.6301 345.389 48.6901 345.625C48.7061 345.647 48.718 345.672 48.7249 345.7C48.7317 345.727 48.7335 345.755 48.7301 345.783Z" fill="white"/>
<path d="M51.6001 350.134C51.6001 350.382 51.5101 350.63 51.4701 350.878C51.4635 350.908 51.4511 350.935 51.4338 350.959C51.4165 350.982 51.3947 351.001 51.3701 351.014C51.3141 351.037 51.2523 351.036 51.1968 351.011C51.1414 350.986 51.0962 350.939 51.0701 350.878C51.0539 350.831 51.0539 350.779 51.0701 350.732V350.63L51.1301 350.405C51.1344 350.383 51.1344 350.36 51.1301 350.337C50.1301 346.076 49.7301 341.646 48.6601 337.386C47.6601 333.316 46.3801 329.326 45.6601 325.166C45.1901 322.551 43.5801 309.385 48.6601 311.054C50.9401 311.786 52.5001 315.495 53.3601 317.715C54.4901 320.706 55.1304 323.903 55.2501 327.15C55.6501 335.165 53.0401 342.458 51.6001 350.134Z" fill="#455A64"/>
<path d="M53.25 333.778C53.3498 330.777 53.0703 327.775 52.42 324.862C52.19 323.859 51.08 319.023 49.63 319.147C48.69 319.215 48.53 321.3 48.45 321.988C48.12 324.907 48.96 327.894 49.45 330.746C50.4552 336.533 51.0835 342.395 51.33 348.286C51.33 348.658 51.24 349.041 51.2 349.413C51.16 349.785 51.13 350.033 51.09 350.349C51.09 350.45 51.09 350.551 51.09 350.664V350.912C51.1178 350.971 51.1631 351.017 51.218 351.042C51.273 351.067 51.3339 351.069 51.39 351.047L51.48 350.326C51.48 350.529 51.48 350.709 51.48 350.912C51.48 350.709 51.55 350.506 51.58 350.304V350.168C51.58 349.841 51.58 349.514 51.58 349.188C52.4058 344.093 52.9635 338.947 53.25 333.778ZM51.55 347.035C51.41 343.597 51.11 340.158 50.68 336.754C50.33 333.993 49.87 331.265 49.36 328.559C49.0211 327.032 48.8003 325.474 48.7 323.904C48.7 322.709 48.81 318.268 50.84 321.018C52.3 323.013 52.65 327.252 52.84 329.698C53.0084 332.418 52.9615 335.149 52.7 337.859C52.37 340.936 51.92 343.991 51.55 347.035Z" fill="white"/>
<path d="M54.68 367.798H54.47C49.24 367.505 42.28 368.057 37.94 364.157C34.73 361.35 31.55 355.624 32.55 350.799C33.71 345.366 40.22 351.927 41.95 353.471C46.4432 357.875 50.7133 362.561 54.74 367.505L54.81 367.606C54.91 367.719 54.8 367.775 54.68 367.798Z" fill="#455A64"/>
<path d="M54.86 367.629L53.96 366.986C50.52 364.552 47.17 361.948 43.96 359.163C43.14 358.465 37.27 352.569 36.38 354.655C35.85 355.928 37.79 358.521 38.38 359.4C39.5068 360.975 40.8587 362.328 42.38 363.402C45.86 365.837 50.09 366.366 54.03 367.55C54.21 367.55 54.4 367.651 54.59 367.708L54.68 367.775C54.8 367.775 54.9 367.719 54.86 367.629ZM44.55 364.281C42.8858 363.429 41.361 362.267 40.04 360.843C39.16 359.907 36.04 356.334 36.9 354.936C37.33 354.17 37.69 354.576 38.52 355.038C38.9051 355.243 39.2761 355.481 39.63 355.748C40.51 356.402 41.31 357.157 42.13 357.89C43.5567 359.182 45.0134 360.437 46.5 361.655C48.93 363.65 51.43 365.521 53.98 367.291C50.82 366.22 47.55 365.792 44.55 364.281Z" fill="white"/>
<path d="M64.2201 355.714C62.8442 362.47 59.7103 368.609 55.2201 373.344C55.1876 373.356 55.1526 373.356 55.1201 373.344C55.0714 373.362 55.0189 373.361 54.9703 373.343C54.9217 373.325 54.8796 373.29 54.8501 373.243C54.8121 373.197 54.791 373.136 54.791 373.073C54.791 373.011 54.8121 372.95 54.8501 372.904L55.1101 372.6C55.9801 364.597 56.9301 356.639 57.6601 348.613C57.8401 346.719 59.1501 334.68 62.4301 336.642C64.4301 337.848 64.5901 342.785 64.7601 345.006C65.076 348.585 64.8939 352.198 64.2201 355.714Z" fill="#455A64"/>
<path d="M62.3201 344.949C62.1501 344.273 61.8401 343.585 61.1701 344.059C59.9001 344.949 59.3901 350.608 59.1701 352.175C58.2901 358.634 56.9401 364.845 55.5601 371.168C55.4401 371.698 55.3301 372.228 55.2101 372.769L54.8901 373.254C54.9185 373.302 54.9606 373.339 55.0095 373.357C55.0585 373.376 55.1116 373.375 55.1601 373.355C55.1659 373.303 55.1659 373.25 55.1601 373.197C55.3101 372.995 55.4601 372.769 55.5901 372.555C57.826 369.093 59.5702 365.259 60.7601 361.192C61.5094 358.629 62.0189 355.985 62.2801 353.302C62.5501 350.788 62.9901 347.373 62.3201 344.949ZM55.6201 372.115C55.5601 372.217 55.4901 372.318 55.4301 372.431C55.4901 372.217 55.5501 372.003 55.6001 371.788C56.949 366.988 58.0179 362.092 58.8001 357.134C59.1801 354.609 59.4201 352.062 59.8801 349.56C60.0701 348.5 60.5401 345.479 61.3101 344.994C62.0801 344.51 62.0801 345.682 62.1601 346.358C62.1601 346.843 62.1601 347.733 62.2201 348.196C62.3082 356.753 59.9986 365.124 55.6201 372.115Z" fill="white"/>
<path d="M56.13 390.557H55.13L55.07 387.457C54.94 383.275 54.79 379.093 54.57 374.911C54.45 372.521 54.3 370.154 54.08 367.809C54.0751 367.731 54.0751 367.651 54.08 367.573C54.0496 367.379 54.0296 367.183 54.02 366.986C54.02 366.795 54.02 366.581 53.95 366.378C53.4793 361.071 52.2677 355.882 50.36 351.002C49.7 349.379 48.97 347.79 48.21 346.212L47.99 345.761C47.9701 345.721 47.9467 345.683 47.92 345.648C47.85 345.479 47.77 345.332 47.69 345.175L47.52 344.825C45.1 340.035 42.34 335.447 39.72 330.836C38.96 329.517 38.21 328.199 37.48 326.869C37.4266 326.795 37.3797 326.716 37.34 326.632C37.28 326.542 37.23 326.44 37.17 326.339C33.88 320.477 30.64 314.571 27.17 308.822C27.04 308.607 27.35 308.427 27.47 308.63C29.78 312.44 32.18 316.194 34.55 319.97C34.87 320.466 35.18 320.984 35.55 321.48L37.41 324.468C38.65 326.463 39.88 328.458 41.07 330.476C44.5889 336.097 47.8015 341.955 50.69 348.015C50.89 348.477 51.09 348.94 51.28 349.402C51.47 349.864 51.53 349.988 51.63 350.27C51.73 350.552 51.91 350.946 52.04 351.284C54.1669 357.185 55.3551 363.462 55.55 369.827C55.55 370.267 55.55 370.718 55.62 371.168C55.62 371.36 55.62 371.574 55.62 371.788C55.62 372.003 55.62 372.003 55.62 372.115C55.62 372.228 55.62 372.397 55.62 372.544C55.62 372.645 55.62 372.747 55.62 372.859C55.62 373.243 55.62 373.615 55.62 373.986C55.77 378.168 55.87 382.35 55.95 386.521C56.05 387.885 56.09 389.215 56.13 390.557Z" fill="#455A64"/>
<path d="M24.9601 314.796C22.1001 310.467 18.4301 301.517 22.6501 296.873C23.4173 295.966 24.4563 295.413 25.5652 295.321C26.6742 295.229 27.7737 295.606 28.6501 296.377C30.8801 298.192 31.8801 301.619 32.6501 304.459C34.5801 312.045 35.8601 319.767 38.2701 327.195C38.3685 327.457 38.4553 327.724 38.5301 327.996C38.5301 328.154 38.3601 328.221 38.3101 328.063C38.2601 327.906 38.1601 327.579 38.0801 327.342C33.4401 323.622 28.3501 319.936 24.9601 314.796Z" fill="#455A64"/>
<path d="M38.2301 327.218C38.2301 327.218 38.2301 327.128 38.1601 327.083C37.1675 325.268 36.2758 323.386 35.4901 321.447C33.8919 317.414 32.5193 313.273 31.3801 309.047C30.9201 307.424 28.8601 299.454 26.3801 302.633C25.3201 303.975 25.4701 306.33 25.6401 307.976C25.9244 310.603 26.6688 313.139 27.8301 315.438C30.1001 320.038 33.6201 323.521 37.3201 326.621L37.8301 327.049L37.9301 327.24L38.0001 327.376C38.0164 327.404 38.0414 327.424 38.0701 327.432C38.0903 327.443 38.1123 327.449 38.1347 327.45C38.1571 327.451 38.1794 327.446 38.2001 327.437C38.2208 327.427 38.2396 327.413 38.2551 327.394C38.2706 327.376 38.2825 327.354 38.2901 327.331C38.2905 327.307 38.285 327.285 38.2744 327.265C38.2638 327.245 38.2485 327.229 38.2301 327.218ZM37.1101 326.339C34.0512 323.775 31.354 320.704 29.1101 317.231C27.9708 315.386 27.0874 313.356 26.4901 311.211C26.2247 310.255 26.034 309.274 25.9201 308.281C25.8239 307.534 25.7838 306.78 25.8001 306.026C25.8501 304.392 26.4501 302.644 27.3101 302.43C28.3701 302.216 28.7301 302.915 29.4201 304.29C29.6579 304.751 29.8684 305.229 30.0501 305.722C30.491 306.957 30.8748 308.218 31.2001 309.498C31.7901 311.606 32.4001 313.703 33.0701 315.777C33.5201 317.186 34.0101 318.583 34.5401 319.947C35.4409 322.315 36.4868 324.608 37.6701 326.812L37.1101 326.339Z" fill="white"/>
<path d="M363.13 326.914C362.66 331.208 361.93 335.458 361.13 339.696C360.7 342.109 360.24 344.498 359.81 346.911C359.33 349.571 358.63 352.265 359.27 354.948C359.284 355.071 359.284 355.196 359.27 355.32C359.239 355.366 359.197 355.401 359.149 355.422C359.1 355.443 359.048 355.448 358.998 355.438C358.947 355.427 358.9 355.401 358.861 355.362C358.823 355.324 358.795 355.274 358.78 355.218C358.776 355.162 358.776 355.105 358.78 355.049V354.993C358.43 354.28 358.155 353.523 357.96 352.738C357.217 350.713 356.582 348.639 356.06 346.527C354.95 342.214 354.329 337.76 354.21 333.271C354.103 329.254 354.477 325.239 355.32 321.334C356 318.223 356.96 313.567 359.03 311.189C360.9 309.025 362.45 312.485 363.03 314.232C364.17 318.268 363.55 322.844 363.13 326.914Z" fill="#455A64"/>
<path d="M359.72 317.794C358.33 317.794 357.32 322.856 356.83 325.042C356.055 328.488 355.655 332.027 355.64 335.582C355.663 341.964 356.647 348.295 358.55 354.305C358.62 354.542 358.69 354.79 358.77 355.038C358.77 355.038 358.77 355.038 358.77 355.094C358.77 355.151 358.77 355.207 358.77 355.263C358.785 355.319 358.813 355.369 358.852 355.407C358.89 355.446 358.937 355.472 358.988 355.483C359.038 355.493 359.091 355.488 359.139 355.467C359.187 355.446 359.229 355.411 359.26 355.365C359.18 354.835 359.11 354.316 359.05 353.787C358.99 353.257 358.95 352.84 358.93 352.366C358.55 347.226 359.2 341.973 359.78 336.867C360.55 330.915 361.55 317.806 359.72 317.794ZM358.72 353.381C358.79 354.08 358.89 354.767 359 355.444C358.86 354.948 358.72 354.44 358.59 353.944C357.061 348.598 356.18 343.043 355.97 337.431C355.873 334.266 356.078 331.099 356.58 327.984C356.848 326.315 357.209 324.666 357.66 323.047C357.85 322.371 358.86 318.133 359.72 318.347C360.32 318.493 360.47 322.303 360.47 322.382C360.47 323.149 360.47 323.915 360.47 324.637C360.47 326.215 360.36 327.793 360.24 329.36C359.98 332.741 359.54 336.123 359.18 339.505C358.541 344.093 358.387 348.751 358.72 353.381Z" fill="white"/>
<path d="M385.02 338.806C382.47 344.442 378.17 348.714 373.73 352.333C371.35 354.305 368.89 356.154 366.48 358.059C364.232 359.626 362.132 361.447 360.21 363.492L359.97 363.785C359.475 364.405 359.04 365.081 358.67 365.803C358.659 365.829 358.642 365.851 358.621 365.867C358.6 365.883 358.575 365.892 358.55 365.893C358.55 365.983 358.5 366.062 358.47 366.141C358.44 366.22 358.36 366.141 358.37 366.141V365.859C358.348 365.829 358.336 365.791 358.336 365.752C358.336 365.713 358.348 365.675 358.37 365.645V365.555V365.284C359.1 358.724 363.17 352.096 366.61 347.046C370.05 341.996 374.3 337.532 379.61 335.221C380.95 334.646 383.98 333.046 385.34 334.274C386.7 335.503 385.55 337.588 385.02 338.806Z" fill="#455A64"/>
<path d="M381.08 338.806C379.87 337.442 376.3 340.812 375.4 341.601C372.738 344.054 370.268 346.762 368.02 349.695C364.168 354.229 360.973 359.417 358.55 365.07C358.5 365.138 358.47 365.194 358.42 365.25V365.532C358.4 365.56 358.383 365.59 358.37 365.622C358.35 365.656 358.34 365.695 358.34 365.735C358.34 365.775 358.35 365.815 358.37 365.848L358.55 365.611C358.99 364.991 359.46 364.394 359.94 363.808L360.18 363.515C363.638 359.594 367.312 355.923 371.18 352.524C373.849 350.107 376.31 347.413 378.53 344.476C379.16 343.72 382.1 339.933 381.08 338.806ZM379.96 341.804C376.96 347.44 371.74 351.555 367.31 355.658C364.26 358.353 361.447 361.373 358.91 364.676C361.258 359.649 364.191 354.998 367.63 350.845C369.512 348.4 371.515 346.078 373.63 343.89C374.771 342.697 375.987 341.601 377.27 340.609C378.037 340.007 378.863 339.504 379.73 339.11C381.42 338.513 380.48 340.846 379.96 341.804Z" fill="white"/>
<path d="M357.86 379.206C357.832 379.254 357.793 379.294 357.748 379.322C357.702 379.349 357.652 379.363 357.6 379.363C357.621 379.399 357.644 379.433 357.67 379.465C357.679 379.474 357.686 379.486 357.691 379.498C357.695 379.511 357.698 379.524 357.698 379.538C357.698 379.552 357.695 379.565 357.691 379.578C357.686 379.59 357.679 379.602 357.67 379.611C357.663 379.621 357.653 379.629 357.643 379.634C357.633 379.639 357.621 379.642 357.61 379.642C357.599 379.642 357.588 379.639 357.577 379.634C357.567 379.629 357.558 379.621 357.55 379.611C352.83 374.201 348.29 367.629 345.94 360.449C344.926 357.428 344.355 354.241 344.25 351.014C344.2 348.759 344.1 344.363 345.77 342.751C349.14 339.516 352.21 353.234 352.67 355.297C353.51 359.073 354.06 362.906 354.83 366.693C355.67 370.842 356.78 374.911 357.89 378.969C357.9 379.009 357.902 379.05 357.897 379.091C357.891 379.131 357.879 379.17 357.86 379.206Z" fill="#455A64"/>
<path d="M357.86 379.194C357.68 378.845 357.5 378.495 357.33 378.146C354.476 372.392 352.428 366.175 351.26 359.716C350.755 356.453 350.006 353.244 349.02 350.123C348.74 349.368 347.9 346.437 346.79 347.869C346.21 348.646 346.69 354.181 346.92 355.613C347.486 358.864 348.403 362.025 349.65 365.025C351.691 370.09 354.288 374.847 357.38 379.183L357.65 379.566C357.659 379.557 357.666 379.545 357.671 379.533C357.675 379.52 357.678 379.507 357.678 379.493C357.678 379.479 357.675 379.466 357.671 379.453C357.666 379.441 357.659 379.429 357.65 379.42C357.622 379.393 357.601 379.358 357.59 379.318C357.641 379.328 357.693 379.321 357.74 379.299C357.788 379.277 357.829 379.241 357.86 379.194ZM351.02 367.415C349.659 364.504 348.573 361.44 347.78 358.273C347.478 357.008 347.241 355.725 347.07 354.429C346.924 353.415 346.848 352.39 346.84 351.363C346.84 348.861 347.03 348.207 347.41 348.117C347.64 348.117 347.95 348.342 348.61 349.83C349.014 350.807 349.332 351.827 349.56 352.874C349.9 354.362 350.2 355.838 350.49 357.382C351.06 360.37 351.6 363.379 352.37 366.299C353.455 370.503 355.032 374.525 357.06 378.259C354.776 374.845 352.755 371.217 351.02 367.415Z" fill="white"/>
<path d="M372.99 366.051C372.436 368.69 371.382 371.162 369.9 373.299C367.1 377.661 363.52 381.28 360.46 385.405C360 386.014 359.56 386.645 359.13 387.288C359.08 387.355 358.73 388.268 358.73 388.189L358.89 387.243C359.38 384.357 360.99 375.632 363 371.18C364.198 368.353 365.699 365.703 367.47 363.289C368.33 362.162 370.37 359.795 371.9 360.313C373.43 360.832 373.23 364.664 372.99 366.051Z" fill="#455A64"/>
<path d="M370.55 364.292C368.91 363.165 364.69 371.642 364.12 372.747C362.02 376.813 360.4 381.171 359.3 385.71C359.17 386.217 359.05 386.724 358.94 387.243C358.83 387.761 358.78 388.167 358.78 388.189C358.78 388.212 359.13 387.367 359.18 387.288L359.4 386.95C359.76 386.42 360.13 385.901 360.51 385.405C362.34 382.317 364.23 379.251 366.01 376.106C367.313 373.858 368.45 371.495 369.41 369.038C369.55 368.474 371.22 364.788 370.55 364.292ZM370.08 366.682C367.75 374.077 362.99 379.904 359.36 386.476L359.19 386.792C359.24 386.6 359.28 386.408 359.34 386.217C360.319 382.489 361.608 378.873 363.19 375.418C364.156 373.314 365.238 371.281 366.43 369.331C367.035 368.228 367.703 367.17 368.43 366.164C368.77 365.746 369.73 364.642 370.06 364.822C370.39 365.002 370.18 366.197 370.03 366.682H370.08Z" fill="white"/>
<path d="M389.44 304.989C384.57 317.603 371.8 323.476 366.26 335.616V335.683C366.09 336.055 365.93 336.427 365.78 336.811C365.766 336.85 365.743 336.884 365.713 336.911C365.684 336.937 365.649 336.954 365.612 336.961C365.575 336.968 365.537 336.964 365.501 336.949C365.466 336.935 365.435 336.91 365.41 336.878C365.392 336.846 365.383 336.809 365.383 336.771C365.383 336.733 365.392 336.696 365.41 336.664C365.443 336.572 365.479 336.482 365.52 336.394C366.39 328.819 369.15 321.018 372.36 314.334C375.16 308.517 378.99 303.062 384.29 300.029C385.6 299.263 388.15 297.673 389.61 298.902C391.07 300.131 390.04 303.456 389.44 304.989Z" fill="#455A64"/>
<path d="M385.05 305.553C384.44 305.034 383.5 305.654 382.97 305.97C381.642 306.749 380.4 307.702 379.27 308.81C376.974 311.1 374.989 313.759 373.38 316.701C370.494 321.644 368.163 326.971 366.44 332.561C366.07 333.823 365.74 335.097 365.44 336.394C365.44 336.563 365.38 336.72 365.34 336.878C365.365 336.908 365.396 336.931 365.431 336.944C365.465 336.958 365.502 336.962 365.538 336.957C365.574 336.951 365.608 336.936 365.638 336.913C365.668 336.889 365.693 336.858 365.71 336.822C365.85 336.439 366.01 336.089 366.17 335.695V335.593C367.116 333.078 368.278 330.673 369.64 328.413C371.877 324.992 374.309 321.739 376.92 318.674C378.01 317.467 387.2 307.311 385.05 305.553ZM384.28 308.461C382.8 311.426 380.5 313.838 378.5 316.351C376.5 318.865 374.44 321.413 372.45 323.983C370.87 326.029 369.448 328.224 368.2 330.543C367.148 332.469 366.254 334.499 365.53 336.608C366.049 334.462 366.684 332.354 367.43 330.295V330.228C368.804 326.587 370.38 323.048 372.15 319.632L372.21 319.496C373.697 316.443 375.503 313.6 377.59 311.031C378.739 309.642 380.028 308.409 381.43 307.356C383.03 306.229 384.43 305.429 384.83 306.004C385.13 306.421 384.72 307.593 384.28 308.461Z" fill="white"/>
<path d="M372.44 319.778C370.98 323.329 369.58 326.936 368.2 330.555C367.54 332.245 366.89 333.936 366.26 335.627V335.728L365.56 337.566C363.46 343.101 361.14 348.759 359.85 354.621C359.201 357.729 358.81 360.899 358.68 364.089C358.68 364.416 358.68 364.743 358.68 365.07C358.68 365.25 358.68 365.431 358.68 365.611C358.675 365.713 358.675 365.814 358.68 365.916C358.59 368.677 358.68 371.45 358.68 374.144C358.74 377.909 359.03 381.64 359.35 385.417C359.34 385.525 359.34 385.635 359.35 385.743C359.35 385.913 359.35 386.082 359.35 386.251C359.355 386.337 359.355 386.424 359.35 386.51C359.35 386.668 359.35 386.826 359.35 386.983C359.46 388.189 359.55 389.384 359.64 390.59H358.64C357.988 386.929 357.576 383.218 357.41 379.487C357.405 379.412 357.405 379.337 357.41 379.262C357.41 378.901 357.41 378.529 357.36 378.135C357.31 377.74 357.36 377.244 357.36 376.793C357.36 375.666 357.3 374.652 357.28 373.592C357.18 367.437 357.28 361.035 358.45 355.004C358.45 354.835 358.52 354.677 358.55 354.508C358.561 354.435 358.578 354.363 358.6 354.294C358.6 354.17 358.6 354.057 358.67 353.933L358.8 353.37C358.88 353.031 358.97 352.693 359.06 352.355L359.14 352.062C360.701 346.821 362.579 341.706 364.76 336.754C365.13 335.852 365.5 334.951 365.88 334.049C366.1 333.553 366.31 333.057 366.52 332.561C366.85 331.806 367.19 331.051 367.52 330.307V330.239C369.08 326.699 370.7 323.194 372.24 319.643C372.26 319.485 372.55 319.643 372.44 319.778Z" fill="#455A64"/>
<path d="M0 390.557C131.69 389.869 279.41 389.858 411.1 390.557C279.41 391.256 131.69 391.244 0 390.557Z" fill="#263238"/>
<path d="M140.9 122.041C137.31 154.82 128.11 193.484 138.32 225.745C146.32 251.006 165.63 269.222 186.01 281.622C230.85 308.867 295.68 317.58 331.8 268.467C346.22 248.842 351.43 205.793 330.98 188.085C320.46 179.067 307.43 175.978 295.2 171.064C279.04 164.638 267.86 153.152 261.42 135.161C248.83 100.127 253.52 75.6892 253.19 38.9529C253.11 32.1332 252.19 25.3361 246.62 19.1025C242.02 12.8351 235.48 8.23607 228.25 5.40674C222.17 2.02507 215.69 -0.229387 208.83 0.0186024C194.38 0.446948 179.59 14.1427 167.83 22.4504C156.07 30.758 150.12 40.2492 148.15 56.0416C145.47 77.9774 143.33 100.026 140.9 122.041Z" fill="#263238"/>
<path d="M136.22 137.224C141.22 107.421 146.75 77.7632 152.1 48.0383C152.1 47.8693 152.38 47.8918 152.35 48.0383C148.58 72.6344 145.11 97.2642 141.05 121.815C137.05 145.881 131.52 170.286 129.42 194.679C124.72 249.383 173.16 276.065 214.67 276.966C216.56 276.966 216.29 280.348 214.38 280.28C177.95 278.161 135.54 260.362 127.64 214.901C123.32 190.069 132.13 161.595 136.22 137.224Z" fill="#263238"/>
<path d="M251.04 35.8418C251.051 35.7222 251.103 35.6123 251.186 35.5362C251.268 35.4601 251.374 35.424 251.48 35.436C251.586 35.4479 251.684 35.5069 251.751 35.5999C251.819 35.6929 251.851 35.8124 251.84 35.932C250.98 66.1641 247.46 101.311 260.84 128.905C267.461 142.483 277.57 153.485 289.84 160.468C299.55 165.957 310.17 167.287 320.5 170.534C360.91 183.215 356.99 245.708 325.5 267.475C324.84 267.937 324.12 266.675 324.77 266.179C347.06 249.169 356.34 215.454 340.97 188.84C328.63 167.423 301.81 171.537 283.83 159.002C246.55 132.986 247.2 79.5443 251.04 35.8418Z" fill="#263238"/>
<path d="M337.9 328.199C331.3 362.015 291.47 367.843 285.63 360.279C262 329.698 237.75 271.172 211.55 205.85C191.05 154.809 205.3 153.783 224.09 167.941C267.74 200.856 341.45 309.994 337.9 328.199Z" fill="#FFC727"/>
<path opacity="0.4" d="M214.24 161.832C212.76 162.884 211.257 163.887 209.73 164.841C207.072 166.519 204.308 167.974 201.46 169.192C201.46 168.708 201.46 168.257 201.51 167.817C205.475 166.036 209.285 163.843 212.89 161.268C213.33 161.437 213.78 161.629 214.24 161.832ZM261.09 204.666C254.982 206.81 248.652 208.046 242.26 208.341C231.906 208.704 221.548 207.758 211.38 205.523L211.51 205.838C211.65 206.199 211.8 206.549 211.94 206.909C225.94 209.705 240.05 211.125 254.24 208.037C256.874 207.477 259.473 206.724 262.02 205.782L261.09 204.666ZM309.45 287.371C310.666 282.677 311.41 277.845 311.67 272.965L310.67 271.375C310.484 278.865 309.028 286.246 306.38 293.119C303.82 299.409 299.64 306.364 293.56 308.709C287.48 311.054 282.21 307.086 279.2 301.393C271.9 287.652 278.12 270.868 277.88 256.068C277.71 245.37 274.19 232.847 264.45 228.8C255.45 225.058 245.17 230.581 239.55 238.674C235.28 244.829 233.71 252.404 233.75 260.092C234.18 261.106 234.61 262.109 235.03 263.113C234.47 252.551 236.72 241.977 244.4 234.932C248.61 231.066 254.08 228.541 259.58 228.947C265.77 229.397 270.78 233.906 273.58 240.005C280.04 254.253 274.67 270.293 274.58 285.285C274.58 295.036 278.16 308.867 288.24 310.546C299.38 312.406 306.79 297.425 309.45 287.382V287.371ZM327.35 299.353C325.26 302.16 323.08 304.91 320.83 307.57C311.83 318.178 301.83 328.424 296.34 341.973C293.589 348.561 292.221 355.773 292.34 363.052L293.58 363.165C293.378 359.343 293.692 355.508 294.51 351.791C297.82 336.506 307.51 324.907 316.97 313.951C320.77 309.543 324.46 305.068 327.97 300.424C327.74 300.086 327.55 299.725 327.35 299.353Z" fill="white"/>
<path opacity="0.1" d="M337.9 328.199C331.3 362.015 291.47 367.843 285.63 360.279C262 329.698 237.75 271.172 211.55 205.85C201.62 181.118 199.48 165.799 203.83 161.471L337.55 321.401C338.11 323.61 338.23 325.932 337.9 328.199Z" fill="black"/>
<path d="M294.55 352.456C282.36 334.613 286.55 297.606 295.34 208.905C296.56 196.629 378.54 191.23 377.84 204.396C376.96 221 365.15 287.066 361.75 296.828C345.11 344.882 302.81 364.552 294.55 352.456Z" fill="#F7A9A0"/>
<path d="M380.84 169.948C382.71 187.803 373.84 225.982 368.59 234.278C363.34 242.575 305.22 227.774 301.29 218.283C297.36 208.792 295.2 148.158 303.82 132.614C312.44 117.07 378.9 151.461 380.84 169.948Z" fill="#F7A9A0"/>
<path d="M294.84 159.577C302.62 163.286 304.91 155.891 304.91 155.891C304.91 155.891 301.32 173.927 309.33 179.326C317.06 184.523 322.54 170.771 322.94 169.79C322.76 170.748 319.85 187.408 328.39 191.917C337.27 196.595 340.67 181.772 340.88 180.758C340.96 181.716 342.2 194.431 349.38 196.189C361.72 199.21 359.38 166.6 366.3 158.134C366.3 158.134 380.37 169.756 380.84 169.993C380.84 169.993 379.15 138.926 368.5 129.007C366.973 127.552 365.053 126.725 363.054 126.661C361.056 126.598 359.097 127.302 357.5 128.657C357.5 128.657 357.94 118.569 351.31 114.781C347.9 112.842 342.13 117.261 342.13 117.261C342.13 117.261 342.13 109.179 336.13 106.214C331.28 103.847 326.24 108.649 326.24 108.649C326.24 108.649 333.86 68.272 324.7 64.7889C308.92 58.7921 296.92 146.197 290.34 149.872C287.01 151.687 291.45 157.909 294.84 159.577Z" fill="#F7A9A0"/>
<path d="M325.27 109.224C325.284 109.212 325.296 109.196 325.304 109.178C325.312 109.16 325.316 109.14 325.317 109.12C325.317 109.099 325.313 109.079 325.306 109.061C325.298 109.042 325.287 109.026 325.274 109.013C325.26 109 325.244 108.991 325.226 108.986C325.209 108.981 325.191 108.98 325.173 108.984C325.155 108.988 325.139 108.997 325.124 109.009C325.11 109.021 325.098 109.037 325.09 109.055C314.61 121.669 306.52 139.163 304.59 156.398C304.53 156.962 305.59 159.34 305.68 158.709C308.34 143.018 316.17 124.43 325.27 109.224Z" fill="#263238"/>
<path d="M342.12 116.946C342.22 116.788 341.98 116.596 341.85 116.754C331.11 129.83 322.48 149.804 322.33 169.993C322.33 170.692 322.94 171.312 323 170.523C324 157.109 333.87 130.585 342.12 116.946Z" fill="#263238"/>
<path d="M341.3 182.122C342.11 162.767 348.3 145.656 356.98 129.142C357.09 128.928 356.81 128.77 356.68 128.917C350.49 135.68 345.96 146.896 343.09 155.97C340.287 164.304 339.463 173.319 340.7 182.122C340.76 182.437 341.29 182.539 341.3 182.122Z" fill="#263238"/>
<path d="M304.66 156.004C304.58 156.68 306.19 155.587 306.13 156.274C305.57 163.692 305.13 177.015 310.39 178.898C314.6 180.397 319.3 175.065 320.39 172.213L323.14 165.055L322.76 172.856C322.568 176.324 322.879 179.804 323.68 183.159C324.49 186.416 326.07 189.415 328.54 190.722C329.698 191.454 331.044 191.715 332.353 191.463C333.661 191.21 334.853 190.46 335.73 189.336C337.646 186.774 338.954 183.706 339.53 180.42L341.39 171.402L342.24 180.555C342.476 183.107 343 185.615 343.8 188.017C344.48 190.323 345.745 192.354 347.44 193.856C348.228 194.494 349.159 194.871 350.127 194.945C351.096 195.018 352.063 194.786 352.92 194.273C354.63 193.146 355.86 190.813 356.83 188.479C358.77 183.7 359.83 178.391 361.1 173.183C361.72 170.568 362.34 167.941 363.1 165.292C363.86 162.643 364.65 160.028 366.32 158.022C364.86 160.197 364.32 162.914 363.74 165.495C363.16 168.076 362.74 170.771 362.31 173.386C361.551 178.798 360.335 184.116 358.68 189.268C357.68 191.816 356.57 194.532 354.18 196.381C352.952 197.231 351.531 197.66 350.091 197.614C348.65 197.568 347.253 197.049 346.07 196.122C343.916 194.327 342.284 191.851 341.38 189.009C340.452 186.352 339.833 183.571 339.54 180.735L342.25 180.882C341.634 184.785 340.117 188.436 337.85 191.466C336.553 193.117 334.784 194.202 332.85 194.532C330.948 194.791 329.021 194.398 327.32 193.405C323.86 191.455 322.02 187.487 321.16 183.835C320.325 180.13 320.037 176.295 320.31 172.484L322.69 173.138C321.19 176.7 316.5 183.283 309.69 181.907C301.11 178.74 303.92 159.476 304.66 156.004Z" fill="#263238"/>
<path d="M301.29 218.283C301.29 218.283 274.29 178.965 275.38 162.204C276.47 145.442 305.63 127.868 317.18 123.371C333.12 117.171 335.45 130.686 330.18 139.05C324.05 148.756 310.99 159.25 310.09 159.994C310.09 159.994 333.36 172.676 335.3 193.811C337.24 214.946 301.29 218.283 301.29 218.283Z" fill="#F7A9A0"/>
<path d="M295.82 135.556C301.311 131.256 307.135 127.521 313.22 124.396C316.281 122.705 319.557 121.564 322.93 121.015C332.01 119.888 336.26 128.364 332.18 137.157C330.529 140.542 328.492 143.668 326.12 146.456C321.59 152.102 316.343 156.961 310.55 160.873L310.43 159.059C322.11 164.762 331.68 176.316 334.81 190.328C330.6 176.384 320.3 165.213 308.11 160.197C314.278 156.08 319.856 150.93 324.65 144.923C325.47 143.897 327.07 141.767 327.83 140.685C331.52 135.951 334.65 126.268 327.64 123.393C322.98 121.59 318.17 123.799 313.69 125.648C307.537 128.477 301.566 131.783 295.82 135.545V135.556Z" fill="#263238"/>
<path d="M380.55 266.472L290.85 243.871C290.85 243.871 270.63 341.06 283.45 358.025C289.18 365.622 307.63 384.346 323.31 380.908C359.37 372.972 380.55 266.472 380.55 266.472Z" fill="#FFC727"/>
<path opacity="0.4" d="M288.23 310.558C285.449 310.1 282.883 308.608 280.94 306.319C281.01 305.688 281.08 305.068 281.14 304.437C284.25 308.371 288.7 310.58 293.53 308.72C299.61 306.376 303.79 299.421 306.35 293.131C311.58 280.213 311.22 265.243 309.93 251.423C309.84 250.488 309.75 249.552 309.65 248.617L310.81 248.898C312.07 261.692 312.75 274.915 309.45 287.382C306.79 297.425 299.38 312.406 288.23 310.558ZM351.15 259.077L349.99 258.784C342.797 276.797 332.936 293.299 320.83 307.582C311.83 318.189 301.83 328.435 296.34 341.985C293.14 349.875 291.34 359.366 292.79 368.035C293.33 368.531 293.88 369.015 294.44 369.5C293.136 363.693 293.136 357.61 294.44 351.803C297.75 336.518 307.44 324.918 316.9 313.962C325.9 303.558 334.2 292.781 341.05 280.438C344.857 273.594 348.232 266.456 351.15 259.077ZM355.55 332.042C350.99 332.448 347.1 335.695 344.22 339.505C337.07 348.996 336.58 361.26 332.95 372.51C332.375 374.321 331.679 376.08 330.87 377.774C331.47 377.402 332.06 377.007 332.65 376.579C334.474 371.786 335.887 366.807 336.87 361.711C338.22 355.489 339.6 349.447 342.7 343.98C345.7 338.761 350.29 333.497 356.14 333.282C357.574 333.222 359.004 333.479 360.35 334.038C360.51 333.654 360.67 333.271 360.82 332.91C359.142 332.185 357.342 331.889 355.55 332.042Z" fill="white"/>
<path d="M289.81 270.44C299.98 272.694 310.23 274.238 320.48 275.805C330.73 277.372 341 278.95 351.29 280.224C357.1 280.945 362.91 281.712 368.74 282.197C368.89 282.197 368.95 281.926 368.79 281.892C358.64 279.638 348.38 278.037 338.16 276.403C327.94 274.768 317.63 273.246 307.35 271.837C301.55 271.037 295.73 270.361 289.9 269.865C289.61 269.842 289.55 270.372 289.81 270.44Z" fill="#263238"/>
<path d="M291.83 243.476C290.91 243.048 289.64 242.586 289.58 242.823C288.22 249.135 287.34 256.022 286.46 262.448C285.58 268.873 284.86 275.151 284.21 281.52C283.85 284.902 283.56 288.385 283.36 291.823C281.706 296.063 280.779 300.619 280.63 305.248C280.63 305.474 280.98 305.508 281 305.248C281.271 301.129 282.041 297.071 283.29 293.187C282.727 301.586 283.287 310.033 284.95 318.245C284.95 318.245 285.03 318.245 285.02 318.245C282.62 305.97 284.83 292.917 286.12 280.63C286.76 274.475 287.53 268.343 288.32 262.211C289.11 256.079 290.12 250.003 290.85 243.882C290.85 243.882 291.85 244.142 292.01 244.175C292.17 244.209 292 243.555 291.83 243.476Z" fill="#263238"/>
<path d="M267.85 390.545L260.43 302.52C260.43 302.52 273.64 271.308 259.48 244.232C252.33 230.525 234.05 180.318 212.32 162.226C186.75 140.944 162.21 160.535 152.67 175.122C133.55 204.328 105.18 266.224 89.55 390.579L267.85 390.545Z" fill="#FFC727"/>
<path opacity="0.4" d="M212.94 162.745C211.88 163.477 210.81 164.176 209.73 164.853C200.73 170.489 189.81 174.524 179.59 171.03C173.05 168.775 169.69 164.593 168.49 159.352L169.49 158.721C169.844 160.446 170.5 162.075 171.42 163.511C175.12 169.249 182.01 171.064 187.97 170.985C196.66 170.872 204.61 166.915 211.97 161.967L212.34 162.271L212.94 162.745ZM214.83 314.007C207.37 308.698 197.22 309.498 189.64 314.007C180.21 319.643 175.24 331.614 173.47 343.033C171.03 358.758 174.27 374.697 176.19 390.512H177.19C175.35 375.35 172.32 360.077 174.3 345.006C175.97 332.245 181.52 318.809 192.75 313.759C202.1 309.566 214.69 311.2 219.94 321.954C226.71 335.852 217.65 352.558 212.71 365.262C209.71 373.062 207.41 381.854 207.52 390.5H208.69C208.663 388.894 208.717 387.287 208.85 385.687C210.03 370.864 217.72 358.634 221.57 344.679C224.61 333.857 224.24 320.77 214.83 314.007ZM121.83 317.389C114.655 316.289 107.349 317.46 100.73 320.77C100.63 321.277 100.53 321.785 100.42 322.303C107.8 318.538 116.35 317.028 124.12 319.237C129.178 320.546 133.614 323.95 136.55 328.774C140.15 334.917 140.62 342.402 139.27 349.447C136.4 364.416 127.06 377.492 118.15 388.584C117.61 389.26 117.06 389.914 116.5 390.568H118.07C122.494 385.169 126.599 379.449 130.36 373.445C136.76 363.244 142.8 350.123 140.74 337.216C139 326.406 131.27 319.079 121.85 317.389H121.83ZM185.64 229.138C174.45 231.066 164.19 236.939 154.03 242.27C143.87 247.602 132.84 253.193 121.27 252.754C120.21 252.754 119.13 252.618 118.05 252.472L117.66 253.689C128.2 255.222 138.5 251.435 148.06 246.712C158.97 241.38 169.49 234.65 181.12 231.46C192.43 228.349 207.88 228.89 213.48 242.665C218.71 255.526 212.81 270.519 204.15 279.379C195.49 288.239 183.6 292.747 172.02 293.717C150.64 295.487 130.66 286.086 110.49 278.68L110.19 279.807C134.44 288.565 160.13 300.863 185.8 292.206C195.65 288.825 204.88 282.524 210.8 272.886C216.5 263.631 218.91 250.262 213.54 240.129C207.87 229.352 195.71 227.459 185.66 229.183L185.64 229.138ZM243.02 208.251H242.24C212.39 209.829 184.06 195.987 154.45 194.386C150.078 194.131 145.695 194.191 141.33 194.566L140.65 195.908C150.174 195.138 159.745 195.618 169.17 197.339C193.79 201.431 218.57 211.283 243.64 209.468L243.02 208.251ZM262.77 330.453C252.68 313.409 242.22 296.58 237.12 276.651C233.49 262.47 233.3 245.021 244.35 234.943C246.858 232.62 249.751 230.88 252.86 229.826L252.34 228.699C247.286 230.509 242.83 233.988 239.55 238.686C232.07 249.462 232.89 264.612 236.07 277.011C241.4 297.842 252.53 315.393 263.07 333.271L262.77 330.453Z" fill="white"/>
<path d="M189.67 294.461C198.356 294.213 207.046 294.688 215.67 295.881C219.95 296.546 224.17 297.425 228.4 298.406C230.51 298.902 232.62 299.308 234.75 299.702C236.962 300.196 239.218 300.382 241.47 300.255C241.51 300.255 241.548 300.273 241.576 300.304C241.604 300.336 241.62 300.379 241.62 300.424C241.62 300.469 241.604 300.512 241.576 300.543C241.548 300.575 241.51 300.593 241.47 300.593C239.37 300.985 237.248 301.215 235.12 301.28C233.056 301.273 230.994 301.107 228.95 300.784C224.6 300.164 220.28 299.308 215.95 298.631C207.19 297.279 198.44 295.915 189.61 295.25C189.532 295.222 189.465 295.165 189.419 295.089C189.374 295.012 189.353 294.92 189.36 294.828C189.367 294.736 189.401 294.65 189.458 294.583C189.514 294.516 189.589 294.473 189.67 294.461Z" fill="#263238"/>
<path d="M169.3 305.778C176.313 304.028 183.408 302.723 190.55 301.867C194.12 301.461 197.68 301.281 201.27 301.202C202.98 301.202 204.7 301.202 206.41 301.202C208.3 301.202 210.18 301.528 212.06 301.528C212.26 301.528 212.29 301.867 212.06 301.878C210.29 301.934 208.51 302.34 206.74 302.52L201.4 303.05C197.84 303.411 194.29 303.817 190.72 304.177C183.58 304.82 176.48 305.553 169.37 306.432C168.98 306.488 168.94 305.868 169.3 305.778Z" fill="#263238"/>
<path d="M149.18 176.159C98.1801 233.151 33.5801 353.55 45.1801 378.27C58.0801 405.797 129.09 325.899 128.86 321.187C128.69 317.614 154.11 244.311 173.37 191.004C192.63 137.698 161.78 162.068 149.18 176.159Z" fill="#F7A9A0"/>
<path d="M129.31 321.277C131.53 313.387 166.09 216.773 176 186.202C184.89 158.754 180.47 147.392 160 164.221C122.27 195.197 47.2601 290.651 33.0501 340.328C19.3601 388.189 54.6401 392.552 83.7901 370.763C107.66 352.941 129.31 321.277 129.31 321.277Z" fill="#FFC727"/>
<path opacity="0.4" d="M121.85 317.389C124.56 317.852 127.182 318.82 129.61 320.252C129.483 320.658 129.383 320.984 129.31 321.232L129.21 321.379C127.604 320.429 125.901 319.703 124.14 319.215C114.08 316.352 102.72 319.733 94.2701 326.158C83.4901 334.353 75.5801 346.358 66.0901 356.188C58.2801 364.315 49.5501 370.368 38.7901 371.777C36.6694 372.055 34.5309 372.12 32.4001 371.969C32.1947 371.534 32.0111 371.086 31.8501 370.627C33.9554 370.853 36.0748 370.853 38.1801 370.627C49.9501 369.241 59.2701 361.959 67.5501 352.907C76.3301 343.326 84.0601 332.054 94.4501 324.535C102.39 318.809 112.47 315.799 121.85 317.389ZM89.3501 272.187C82.9741 270.752 76.4812 270.083 69.9801 270.192L69.1201 271.477C82.7701 270.913 96.2901 274.779 109.22 279.367C119.22 282.952 129.49 287.19 139.89 290.358C140.01 290.031 140.12 289.704 140.24 289.366C123.18 284.259 106.55 275.941 89.3501 272.232V272.187ZM121.29 252.754C115.01 252.506 108.2 250.601 103.66 245.415C100.389 241.441 98.6298 236.181 98.7601 230.761C98.4001 231.235 98.0301 231.697 97.6601 232.17C97.8009 237.194 99.4711 242.01 102.39 245.81C106.13 250.465 111.66 252.754 117.05 253.644C127.81 255.425 138.33 251.525 148.05 246.757C150.96 245.336 153.85 243.815 156.74 242.248L157.34 240.523L154.02 242.282C143.8 247.692 132.86 253.238 121.29 252.799V252.754ZM154.47 194.521C145.052 193.839 135.598 194.87 126.47 197.576C125.89 198.207 125.31 198.861 124.73 199.515C125.24 199.323 125.73 199.154 126.27 198.985C140.19 194.476 154.96 195.119 169.16 197.474C170.16 197.632 171.09 197.801 172.06 197.982C172.2 197.587 172.33 197.193 172.46 196.798C166.508 195.646 160.501 194.886 154.47 194.521ZM171.41 163.545C170.34 161.872 169.629 159.943 169.33 157.909C169 158.067 168.65 158.247 168.33 158.439C169.33 164.075 172.69 168.685 179.62 171.052L179.85 171.131C179.92 170.703 179.98 170.275 180.03 169.869C176.604 168.903 173.567 166.664 171.41 163.511V163.545Z" fill="white"/>
<path d="M124.9 333.767C136.233 296.944 148.863 260.685 162.79 224.99C151.457 261.813 138.827 298.072 124.9 333.767Z" fill="#263238"/>
<path d="M155.79 246.182C157.836 241.591 160.36 237.292 163.31 233.377C161.521 238.128 158.972 242.469 155.79 246.182Z" fill="#263238"/>
<path d="M45.9902 377.695C59.7002 393.814 90.7001 391.932 169.17 395.426C180.03 395.911 203.67 310.456 192.1 309.261C177.52 307.773 120.68 305.519 116.5 305.947C81.2802 309.498 36.7002 366.761 45.9902 377.695Z" fill="#F7A9A0"/>
<path d="M179.95 312.418C179.95 312.418 209.44 302.374 226.38 302.509C249.06 302.678 268.58 313.364 276.52 318.392C293.09 328.898 326.72 367.212 318.62 380.051C311.29 391.684 278.67 350.563 278.67 350.563C278.67 350.563 318.07 386.296 306.96 398.47C295.85 410.644 260.39 360.471 260.39 360.471C260.39 360.471 300.13 398.222 286.91 408.728C276.91 416.618 242.54 373.276 242.54 373.276C242.54 373.276 276.54 405.966 266.54 414.645C255.54 424.216 221.54 386.465 221.54 386.465C192.93 403.678 173.06 398.684 159.3 393.228C155.99 391.864 179.95 312.418 179.95 312.418Z" fill="#F7A9A0"/>
<path d="M265.75 337.216C270.51 341.229 275.35 345.242 279.75 349.717C284.15 354.192 288.48 358.848 292.52 363.763C302.43 375.824 306.96 385.123 306.63 384.582C298.69 371.811 283.05 355.522 278.63 351.047C274.21 346.572 269.99 341.872 265.57 337.397C265.48 337.284 265.63 337.126 265.75 337.216Z" fill="#263238"/>
<path d="M251.13 354.959C257.01 360.37 263.03 365.51 268.71 371.213C274.39 376.917 279.27 382.846 284.55 388.956C284.96 389.418 284.6 389.52 284.18 389.057C278.68 383.196 273.18 378.259 267.64 372.465C262.1 366.671 256.72 360.64 251 355.105C250.91 355.015 251.04 354.869 251.13 354.959Z" fill="#263238"/>
<path d="M236.15 367.64C245.52 375.395 253.61 385.09 261.34 394.818C261.73 395.302 261.25 395.359 260.83 394.896C252.61 385.676 246.22 378.383 235.91 368.001C235.75 367.843 235.95 367.471 236.15 367.64Z" fill="#263238"/>
<path d="M178.01 299.049L123.32 413.27C123.32 413.27 45.7301 395.787 36.0801 377.864C29.1801 365.059 76.1801 310.918 115.08 305.508L178.01 299.049Z" fill="#FFC727"/>
<path opacity="0.4" d="M130.35 373.445C126.507 379.576 122.308 385.412 117.78 390.917C113.28 396.396 108.12 401.062 103.66 406.608C103.29 407.07 102.93 407.533 102.6 408.006L101.4 407.679C102.19 406.542 103.038 405.458 103.94 404.433C108.6 399.056 113.65 394.175 118.14 388.584C127.05 377.492 136.39 364.416 139.26 349.447C140.61 342.402 140.14 334.917 136.54 328.774C133.608 323.966 129.184 320.571 124.14 319.26C114.08 316.397 102.72 319.778 94.2701 326.203C83.4901 334.398 75.5801 346.403 66.0901 356.233C58.2801 364.315 49.5501 370.368 38.7901 371.777C37.7901 371.912 36.7901 371.991 35.7301 372.036C35.8149 371.6 35.9251 371.171 36.0601 370.751C36.7701 370.751 37.4801 370.661 38.1801 370.582C49.9501 369.241 59.2701 361.959 67.5501 352.907C76.3301 343.326 84.0601 332.054 94.4501 324.535C102.38 318.809 112.45 315.799 121.84 317.434C131.23 319.068 138.99 326.395 140.72 337.216C142.79 350.078 136.75 363.244 130.35 373.445Z" fill="white"/>
<path d="M71.2501 330.228C76.1201 323.464 92.6801 308.923 115.11 305.429C115.31 305.429 115.4 305.744 115.2 305.801C98.7101 310.231 76.6501 324.422 71.4701 330.487C71.3301 330.645 71.1301 330.397 71.2501 330.228Z" fill="#263238"/>
<path d="M111.18 392.315C115.68 380.84 120.72 369.647 125.78 358.498C130.84 347.35 135.9 336.112 141.21 325.076C144.21 318.843 147.21 312.575 150.38 306.466C150.46 306.297 150.72 306.466 150.65 306.59C146.17 318.054 141.17 329.281 136.18 340.474C131.19 351.667 126.06 362.861 120.86 373.975C117.93 380.254 114.86 386.465 111.69 392.586C111.55 392.913 111.05 392.642 111.18 392.315Z" fill="#263238"/>
<path d="M177.87 297.944C173.53 297.804 169.187 297.992 164.87 298.508C160.55 298.88 156.23 299.342 151.92 299.838C143.35 300.841 125.07 301.855 109.92 306.5C109.75 306.5 110.83 307.21 111 307.142C118.12 304.516 172.69 300.469 177 299.522C176.9 299.891 176.827 300.268 176.78 300.649C176.78 300.909 177.03 301.157 177.21 300.92C177.65 300.356 177.91 299.736 178.3 299.139C178.382 299.04 178.438 298.916 178.46 298.783C178.482 298.65 178.469 298.512 178.424 298.386C178.379 298.261 178.303 298.152 178.204 298.074C178.106 297.995 177.99 297.95 177.87 297.944Z" fill="#263238"/>
<path d="M157.37 166.419C157.37 166.419 184.09 202.119 206.59 203.618C229.09 205.117 231.66 174.163 231.66 174.163C231.66 174.163 217.41 156.072 197.94 152.814C190.707 151.626 183.331 152.228 176.325 154.578C169.319 156.927 162.851 160.968 157.37 166.419Z" fill="#F7A9A0"/>
<path d="M178.41 163.489C179.11 167.468 193.41 192.334 209.35 189.088C220.54 186.833 217.25 161.369 217.25 161.369L225.46 126.031L186.63 96.0243C186.63 96.0243 178.14 161.832 178.41 163.489Z" fill="#F7A9A0"/>
<path d="M183.67 119.132C186.586 128.112 191.109 136.321 196.958 143.247C202.807 150.174 209.857 155.671 217.67 159.397L225.44 126.031L186.61 96.0243C186.61 96.0243 185.29 106.462 183.67 119.132Z" fill="#263238"/>
<path d="M267.42 70.921C274.55 130.224 243.79 141.711 232.42 143.424C222.1 144.98 186.79 148.79 174.25 90.6248C161.71 32.4601 183.96 9.99452 207.39 5.03473C230.82 0.0749454 260.29 11.6065 267.42 70.921Z" fill="#F7A9A0"/>
<path d="M254.97 64.2929C253.744 64.1597 252.526 63.9528 251.32 63.6729C249.92 63.4137 248.79 63.3799 247.71 62.2414C247.434 61.8862 247.271 61.4377 247.245 60.9664C247.22 60.4951 247.334 60.0276 247.57 59.6375C248.67 58.0368 250.45 57.8677 252.15 58.0932C253.862 58.2683 255.456 59.1469 256.63 60.5618C256.891 60.899 257.058 61.3163 257.108 61.7604C257.158 62.2046 257.09 62.6556 256.912 63.0558C256.734 63.456 256.454 63.7875 256.108 64.0078C255.762 64.2281 255.366 64.3274 254.97 64.2929Z" fill="#263238"/>
<path d="M218.43 68.5538C219.63 68.2472 220.815 67.8709 221.98 67.4266C223.35 66.987 224.47 66.8067 225.43 65.5329C225.664 65.1421 225.778 64.675 225.752 64.2041C225.727 63.7333 225.564 63.2851 225.29 62.929C224.03 61.4861 222.24 61.5425 220.59 61.9934C218.907 62.3886 217.412 63.4679 216.39 65.0256C216.152 65.395 216.019 65.837 216.009 66.2933C215.999 66.7496 216.112 67.1986 216.333 67.581C216.554 67.9634 216.873 68.2611 217.247 68.4348C217.622 68.6085 218.034 68.65 218.43 68.5538Z" fill="#263238"/>
<path d="M226.94 81.2464C226.94 81.0998 226.67 81.4718 226.69 81.6296C227.1 85.6989 226.96 90.4333 223.78 92.0903C223.68 92.1466 223.71 92.3495 223.78 92.3157C227.79 91.3125 227.91 85.0226 226.94 81.2464Z" fill="#263238"/>
<path d="M223.39 77.2898C217.53 77.2898 218.03 90.5234 223.46 90.4896C228.89 90.4558 228.31 77.2898 223.39 77.2898Z" fill="#263238"/>
<path d="M221.12 78.0902C220.12 78.8905 219.17 80.2544 217.94 80.4461C216.51 80.6828 215.38 79.3188 214.4 78.0676C214.29 77.9323 214.2 78.0676 214.2 78.2254C214.26 80.7504 215.2 83.3092 217.65 83.5685C219.86 83.8052 221.36 81.4944 221.82 78.9243C221.91 78.417 221.55 77.7745 221.12 78.0902Z" fill="#263238"/>
<path d="M247.78 78.9017C247.78 78.7439 248.07 79.0821 248.07 79.2512C248.07 83.343 248.71 88.0323 252.07 89.2609C252.17 89.2609 252.17 89.5089 252.07 89.4977C247.98 89.0129 247.21 82.7794 247.78 78.9017Z" fill="#263238"/>
<path d="M250.89 74.5056C256.72 73.7729 257.59 86.905 252.19 87.6265C246.79 88.3479 246 75.1143 250.89 74.5056Z" fill="#263238"/>
<path d="M253.39 75.1706C254.39 75.7906 255.39 76.9855 256.47 76.9742C257.76 76.9742 258.61 75.4524 259.34 74.0209C259.41 73.8743 259.51 74.0209 259.53 74.1449C259.76 76.6586 259.19 79.3526 257.07 80.0064C255.14 80.6151 253.56 78.5748 252.86 76.1062C252.73 75.6553 253 74.9226 253.39 75.1706Z" fill="#263238"/>
<path d="M230.05 114.139C230.92 115.108 231.78 116.393 233.1 116.562C234.453 116.537 235.786 116.188 237.01 115.537C237.036 115.524 237.064 115.522 237.091 115.529C237.118 115.536 237.142 115.553 237.16 115.577C237.178 115.601 237.189 115.631 237.19 115.662C237.192 115.693 237.185 115.724 237.17 115.751C236.652 116.562 235.949 117.199 235.136 117.596C234.323 117.993 233.429 118.134 232.55 118.005C230.9 117.678 230.09 116.066 229.7 114.375C229.64 114.094 229.92 114.003 230.05 114.139Z" fill="#263238"/>
<path d="M244.55 98.4478C244.55 98.4478 245.6 104.501 245.74 107.387C245.74 107.657 245.14 107.815 244.27 107.928C244.27 107.928 244.21 107.928 244.17 107.928C241.996 108.513 239.72 108.413 237.593 107.637C235.466 106.862 233.569 105.441 232.11 103.532C231.92 103.261 232.23 102.945 232.47 103.115C235.98 105.696 239.74 106.192 243.75 106.023C243.9 105.211 241.65 95.7086 242.06 95.6523C243.45 95.4268 246.26 96.3286 247.94 96.7795C246.09 84.087 242.44 71.834 240.76 59.164C240.75 59.0718 240.769 58.9786 240.814 58.9007C240.859 58.8229 240.927 58.7654 241.006 58.7385C241.085 58.7115 241.17 58.7168 241.245 58.7534C241.321 58.7901 241.383 58.8556 241.42 58.9386C246.05 71.4846 248.47 85.992 250.68 99.0791C250.93 100.714 245.55 98.8762 244.55 98.4478Z" fill="#263238"/>
<path d="M242.55 107.082C241.374 109.18 239.738 110.899 237.8 112.076C236.728 112.683 235.515 112.895 234.33 112.685C231.75 112.2 231.47 109.596 231.75 107.319C231.911 106.106 232.196 104.918 232.6 103.78C235.519 106.05 239.006 107.208 242.55 107.082Z" fill="#263238"/>
<path d="M237.8 112.076C236.728 112.682 235.515 112.895 234.33 112.685C231.75 112.2 231.47 109.596 231.75 107.319C234.48 107.353 237.33 109.134 237.8 112.076Z" fill="#FF9CBD"/>
<path d="M177.55 94.0967C187.17 95.7087 190.12 70.8759 190.12 70.8759C190.12 70.8759 231.36 64.0337 235.57 26.4069C235.57 26.4069 244.83 49.9772 266.13 61.3509C266.13 61.3509 261.54 14.5711 232.62 5.8238C232.62 5.8238 200.86 -7.70288 178.37 23.5889C155.36 55.726 171.13 93.071 177.55 94.0967Z" fill="#263238"/>
<path d="M235.8 23.6227C236.174 29.4543 235.434 35.3086 233.63 40.7903C231.902 46.3995 229.15 51.5376 225.55 55.8726C224.667 56.9624 223.721 57.9866 222.72 58.9386L221.3 60.3814C220.78 60.8211 220.24 61.2381 219.7 61.6665C218.62 62.4894 217.57 63.3573 216.46 64.1351C215.35 64.9129 214.15 65.4878 212.99 66.1303C212.41 66.4572 211.84 66.8066 211.24 67.0997L209.42 67.8437L205.78 69.3203C203.28 70.0305 200.78 70.6054 198.25 71.1352C200.63 70.0079 203.07 69.2189 205.4 68.1029L208.83 66.3219L210.55 65.4427C211.1 65.1045 211.62 64.71 212.16 64.3155C213.23 63.5715 214.3 62.8501 215.38 62.1512C216.46 61.4523 217.38 60.4716 218.38 59.6488L219.87 58.3863L221.23 56.9547C222.16 56.0325 223.044 55.0541 223.88 54.0239C227.264 49.9083 230.003 45.1741 231.98 40.0238C232.994 37.4381 233.814 34.7609 234.43 32.0205C235.103 29.2715 235.561 26.4616 235.8 23.6227Z" fill="#263238"/>
<path d="M236.04 83.6248L234.55 81.7987C236.83 79.1159 242.27 75.2495 246.55 79.8373L245.08 81.7987C241.23 77.6393 236.25 83.3768 236.04 83.6248Z" fill="#37474F"/>
<path d="M162.22 101.841L160 101.277C160.24 100.15 162.4 89.8133 167.1 87.4574C171.49 85.2706 201.7 79.6344 202.98 79.3977L203.35 81.9227C194.69 83.5234 171.41 88.0999 168.02 89.8133C164.92 91.3576 162.78 99.0227 162.22 101.841Z" fill="#37474F"/>
<path d="M217.4 98.2111C213.62 97.9856 210.19 97.0839 208.22 95.4156C202.81 90.8391 199.48 73.8405 199.34 73.1191L199.02 71.4733H200.55C201.7 71.4733 228.76 71.6086 234.99 78.3494C238.34 81.9678 236.59 90.918 234.35 93.6007C231.55 96.9261 223.95 98.5943 217.4 98.2111ZM202.04 74.2125C203.25 79.7021 206.17 90.2754 209.67 93.24C214.38 97.2304 229.31 95.641 232.56 91.7408C234.11 89.8809 235.45 82.6441 233.29 80.3108C228.98 75.6553 210.55 74.3703 202.04 74.2125Z" fill="#37474F"/>
<path d="M254.76 92.7553C252.24 92.6088 249.58 91.7972 247.93 89.8245C245.93 87.3897 243.88 81.0435 245.57 75.9259C248.05 68.3847 264.5 65.1722 266.37 64.8227L267.8 64.5635V66.1979C267.8 66.863 267.51 82.7907 265.21 87.8857C264.11 90.3092 261.48 92.0339 257.99 92.5975C256.921 92.7688 255.839 92.8216 254.76 92.7553ZM265.32 67.7986C259.9 68.9934 249.37 72.1948 247.83 76.8164C246.45 80.9871 248.31 86.2512 249.68 87.897C251.05 89.5427 254.36 90.3769 257.61 89.8471C260.28 89.4187 262.3 88.2013 263.03 86.5894C264.55 83.2754 265.16 73.0853 265.32 67.7986Z" fill="#37474F"/>
<path d="M185.27 89.7907C185.27 89.7907 172.88 71.7552 165.55 76.8051C158.22 81.8551 168.1 108.435 177.09 111.67C186.08 114.905 188.9 105.594 188.9 105.594L185.27 89.7907Z" fill="#F7A9A0"/>
<path d="M168.55 84.3462C168.41 84.3462 168.39 84.5604 168.55 84.6055C174.86 87.1079 178.4 93.3866 180.97 99.9696C178.97 97.4897 176.45 96.2159 173.48 98.8423C173.32 98.9776 173.48 99.2594 173.66 99.2031C176.17 98.4591 178.03 98.8536 179.84 101.052C181.057 102.712 182.113 104.515 182.99 106.429C183.3 107.037 184.29 106.654 184.05 105.944L183.99 105.786C183.74 96.8922 177.07 84.7859 168.55 84.3462Z" fill="#263238"/>
</svg>
