<svg width="153" height="44" viewBox="0 0 153 44" fill="none" xmlns="http://www.w3.org/2000/svg">
<path d="M17.2714 32.6586C14.7891 32.6586 12.4862 32.2698 10.3628 31.4923C8.26933 30.6848 6.445 29.5483 4.88982 28.0828C3.36456 26.6174 2.16827 24.8977 1.30096 22.9239C0.433654 20.9201 0 18.7219 0 16.3293C0 13.9367 0.433654 11.7535 1.30096 9.77965C2.16827 7.77587 3.36456 6.04125 4.88982 4.5758C6.445 3.11035 8.26933 1.98883 10.3628 1.21124C12.4862 0.403747 14.7891 0 17.2714 0C20.1724 0 22.7594 0.508423 25.0323 1.52527C27.3352 2.54211 29.2492 4.00756 30.7745 5.92162L25.122 11.0357C24.1052 9.83946 22.9837 8.92729 21.7575 8.29924C20.5612 7.67119 19.2154 7.35717 17.72 7.35717C16.434 7.35717 15.2527 7.56652 14.176 7.98522C13.0993 8.40392 12.1722 9.01701 11.3946 9.82451C10.647 10.6021 10.0488 11.5442 9.6002 12.6507C9.1815 13.7573 8.97215 14.9835 8.97215 16.3293C8.97215 17.6751 9.1815 18.9013 9.6002 20.0079C10.0488 21.1145 10.647 22.0715 11.3946 22.879C12.1722 23.6566 13.0993 24.2547 14.176 24.6734C15.2527 25.0921 16.434 25.3015 17.72 25.3015C19.2154 25.3015 20.5612 24.9874 21.7575 24.3594C22.9837 23.7313 24.1052 22.8192 25.122 21.6229L30.7745 26.737C29.2492 28.6212 27.3352 30.0866 25.0323 31.1334C22.7594 32.1502 20.1724 32.6586 17.2714 32.6586Z" fill="#717171"/>
<path d="M34.7348 32.0306V0.628051H43.6173V24.9874H58.6008V32.0306H34.7348Z" fill="#717171"/>
<path d="M70.2803 12.7853H84.8601V19.4247H70.2803V12.7853ZM70.9084 25.1669H87.3274V32.0306H62.1157V0.628051H86.7442V7.49175H70.9084V25.1669Z" fill="#717171"/>
<path d="M5.06188 42.2588C4.63196 42.2588 4.22085 42.1943 3.82856 42.0654C3.43626 41.931 3.12726 41.7591 2.90155 41.5495L3.1998 40.9207C3.41476 41.1088 3.68883 41.2647 4.02202 41.3883C4.3552 41.5119 4.70182 41.5737 5.06188 41.5737C5.38969 41.5737 5.6557 41.536 5.85991 41.4608C6.06412 41.3856 6.21459 41.2835 6.31132 41.1545C6.40805 41.0201 6.45642 40.8697 6.45642 40.7031C6.45642 40.5096 6.39193 40.3538 6.26295 40.2355C6.13935 40.1173 5.97545 40.0233 5.77124 39.9534C5.5724 39.8782 5.35207 39.8137 5.11024 39.7599C4.86841 39.7062 4.6239 39.6444 4.3767 39.5745C4.13487 39.4993 3.91185 39.4053 3.70764 39.2924C3.50881 39.1796 3.34759 39.0291 3.22399 38.841C3.10039 38.6475 3.03859 38.4003 3.03859 38.0994C3.03859 37.8092 3.11382 37.5432 3.26429 37.3014C3.42014 37.0542 3.65659 36.858 3.97365 36.7129C4.29609 36.5625 4.70451 36.4872 5.19891 36.4872C5.52672 36.4872 5.85185 36.5302 6.17428 36.6162C6.49672 36.7022 6.77617 36.8258 7.01262 36.987L6.74661 37.6319C6.50478 37.4706 6.24952 37.3551 5.98082 37.2852C5.71212 37.21 5.45149 37.1724 5.19891 37.1724C4.88185 37.1724 4.62121 37.2127 4.417 37.2933C4.21279 37.3739 4.06232 37.4814 3.96559 37.6157C3.87423 37.7501 3.82856 37.9006 3.82856 38.0672C3.82856 38.266 3.89036 38.4245 4.01396 38.5428C4.14293 38.661 4.30684 38.755 4.50567 38.8249C4.70988 38.8947 4.9329 38.9592 5.17473 39.0183C5.41656 39.0721 5.65838 39.1339 5.90021 39.2037C6.14741 39.2736 6.37043 39.365 6.56927 39.4778C6.77348 39.5907 6.93738 39.7411 7.06098 39.9292C7.18459 40.1173 7.24639 40.3591 7.24639 40.6547C7.24639 40.9395 7.16846 41.2055 7.01262 41.4527C6.85677 41.6946 6.61495 41.8907 6.28714 42.0412C5.9647 42.1863 5.55628 42.2588 5.06188 42.2588Z" fill="#717171"/>
<path d="M10.9713 42.2588C10.5414 42.2588 10.141 42.1863 9.77021 42.0412C9.40478 41.8961 9.08772 41.6946 8.81902 41.4366C8.55032 41.1733 8.34074 40.867 8.19027 40.5177C8.0398 40.1684 7.96456 39.7868 7.96456 39.373C7.96456 38.9592 8.0398 38.5777 8.19027 38.2284C8.34074 37.8791 8.55032 37.5754 8.81902 37.3175C9.08772 37.0542 9.40478 36.85 9.77021 36.7049C10.1356 36.5598 10.536 36.4872 10.9713 36.4872C11.4012 36.4872 11.7962 36.5598 12.1562 36.7049C12.5217 36.8446 12.8387 37.0461 13.1074 37.3094C13.3815 37.5674 13.5911 37.871 13.7362 38.2203C13.8867 38.5696 13.9619 38.9539 13.9619 39.373C13.9619 39.7922 13.8867 40.1764 13.7362 40.5257C13.5911 40.875 13.3815 41.1814 13.1074 41.4447C12.8387 41.7026 12.5217 41.9042 12.1562 42.0493C11.7962 42.189 11.4012 42.2588 10.9713 42.2588ZM10.9713 41.5414C11.283 41.5414 11.5705 41.4877 11.8338 41.3802C12.1025 41.2727 12.3336 41.1222 12.527 40.9288C12.7259 40.7299 12.879 40.4989 12.9865 40.2355C13.0994 39.9722 13.1558 39.6847 13.1558 39.373C13.1558 39.0613 13.0994 38.7738 12.9865 38.5105C12.879 38.2472 12.7259 38.0188 12.527 37.8253C12.3336 37.6265 12.1025 37.4733 11.8338 37.3659C11.5705 37.2584 11.283 37.2046 10.9713 37.2046C10.6542 37.2046 10.3613 37.2584 10.0926 37.3659C9.82932 37.4733 9.59824 37.6265 9.39941 37.8253C9.20057 38.0188 9.04473 38.2472 8.93187 38.5105C8.82439 38.7738 8.77065 39.0613 8.77065 39.373C8.77065 39.6847 8.82439 39.9722 8.93187 40.2355C9.04473 40.4989 9.20057 40.7299 9.39941 40.9288C9.59824 41.1222 9.82932 41.2727 10.0926 41.3802C10.3613 41.4877 10.6542 41.5414 10.9713 41.5414Z" fill="#717171"/>
<path d="M15.1939 42.1943V36.5517H16V41.493H19.0551V42.1943H15.1939Z" fill="#717171"/>
<path d="M22.2233 42.2588C21.4817 42.2588 20.8986 42.0466 20.4741 41.622C20.0496 41.1975 19.8373 40.5768 19.8373 39.7599V36.5517H20.6434V39.7277C20.6434 40.3565 20.7804 40.8159 21.0545 41.1061C21.3339 41.3963 21.7262 41.5414 22.2314 41.5414C22.7419 41.5414 23.1342 41.3963 23.4083 41.1061C23.6877 40.8159 23.8274 40.3565 23.8274 39.7277V36.5517H24.6094V39.7599C24.6094 40.5768 24.3971 41.1975 23.9725 41.622C23.5534 42.0466 22.9703 42.2588 22.2233 42.2588Z" fill="#717171"/>
<path d="M28.785 42.2588C28.3551 42.2588 27.9574 42.189 27.592 42.0493C27.232 41.9042 26.9176 41.7026 26.6489 41.4447C26.3856 41.1814 26.1787 40.875 26.0282 40.5257C25.8777 40.1764 25.8025 39.7922 25.8025 39.373C25.8025 38.9539 25.8777 38.5696 26.0282 38.2203C26.1787 37.871 26.3883 37.5674 26.6569 37.3094C26.9256 37.0461 27.24 36.8446 27.6001 36.7049C27.9655 36.5598 28.3632 36.4872 28.7931 36.4872C29.2284 36.4872 29.6287 36.5625 29.9942 36.7129C30.365 36.858 30.6793 37.0757 30.9373 37.3659L30.4133 37.8737C30.1984 37.648 29.9566 37.4814 29.6879 37.3739C29.4192 37.2611 29.1317 37.2046 28.8253 37.2046C28.5083 37.2046 28.2127 37.2584 27.9386 37.3659C27.6699 37.4733 27.4362 37.6238 27.2373 37.8173C27.0385 38.0107 26.8827 38.2418 26.7698 38.5105C26.6623 38.7738 26.6086 39.0613 26.6086 39.373C26.6086 39.6847 26.6623 39.9749 26.7698 40.2436C26.8827 40.5069 27.0385 40.7353 27.2373 40.9288C27.4362 41.1222 27.6699 41.2727 27.9386 41.3802C28.2127 41.4877 28.5083 41.5414 28.8253 41.5414C29.1317 41.5414 29.4192 41.4877 29.6879 41.3802C29.9566 41.2673 30.1984 41.0954 30.4133 40.8643L30.9373 41.3721C30.6793 41.6623 30.365 41.8827 29.9942 42.0331C29.6287 42.1836 29.2257 42.2588 28.785 42.2588ZM28.4545 44C28.3148 44 28.1858 43.9839 28.0676 43.9516C27.9494 43.9248 27.8392 43.8818 27.7371 43.8227L27.9064 43.4277C27.9924 43.476 28.0784 43.511 28.1643 43.5325C28.2557 43.554 28.3524 43.5647 28.4545 43.5647C28.6104 43.5647 28.7232 43.5351 28.7931 43.476C28.8683 43.4223 28.9059 43.3444 28.9059 43.2423C28.9059 43.1455 28.8683 43.0676 28.7931 43.0085C28.7232 42.9548 28.6077 42.9279 28.4465 42.9279H28.2288L28.4304 42.1379H28.8737L28.7528 42.5974C28.9839 42.6189 29.1585 42.6914 29.2767 42.815C29.395 42.9386 29.4541 43.0891 29.4541 43.2664C29.4541 43.4922 29.3627 43.6695 29.18 43.7985C28.9973 43.9328 28.7555 44 28.4545 44Z" fill="#717171"/>
<path d="M34.5164 42.2588C34.0865 42.2588 33.6861 42.1863 33.3153 42.0412C32.9499 41.8961 32.6328 41.6946 32.3641 41.4366C32.0954 41.1733 31.8859 40.867 31.7354 40.5177C31.5849 40.1684 31.5097 39.7868 31.5097 39.373C31.5097 38.9592 31.5849 38.5777 31.7354 38.2284C31.8859 37.8791 32.0954 37.5754 32.3641 37.3175C32.6328 37.0542 32.9499 36.85 33.3153 36.7049C33.6808 36.5598 34.0811 36.4872 34.5164 36.4872C34.9463 36.4872 35.3413 36.5598 35.7014 36.7049C36.0668 36.8446 36.3839 37.0461 36.6526 37.3094C36.9266 37.5674 37.1362 37.871 37.2813 38.2203C37.4318 38.5696 37.507 38.9539 37.507 39.373C37.507 39.7922 37.4318 40.1764 37.2813 40.5257C37.1362 40.875 36.9266 41.1814 36.6526 41.4447C36.3839 41.7026 36.0668 41.9042 35.7014 42.0493C35.3413 42.189 34.9463 42.2588 34.5164 42.2588ZM34.5164 41.5414C34.8281 41.5414 35.1156 41.4877 35.3789 41.3802C35.6476 41.2727 35.8787 41.1222 36.0722 40.9288C36.271 40.7299 36.4242 40.4989 36.5316 40.2355C36.6445 39.9722 36.7009 39.6847 36.7009 39.373C36.7009 39.0613 36.6445 38.7738 36.5316 38.5105C36.4242 38.2472 36.271 38.0188 36.0722 37.8253C35.8787 37.6265 35.6476 37.4733 35.3789 37.3659C35.1156 37.2584 34.8281 37.2046 34.5164 37.2046C34.1993 37.2046 33.9065 37.2584 33.6378 37.3659C33.3744 37.4733 33.1434 37.6265 32.9445 37.8253C32.7457 38.0188 32.5898 38.2472 32.477 38.5105C32.3695 38.7738 32.3158 39.0613 32.3158 39.373C32.3158 39.6847 32.3695 39.9722 32.477 40.2355C32.5898 40.4989 32.7457 40.7299 32.9445 40.9288C33.1434 41.1222 33.3744 41.2727 33.6378 41.3802C33.9065 41.4877 34.1993 41.5414 34.5164 41.5414ZM35.0807 36.068C34.9517 36.068 34.8362 36.0412 34.7341 35.9874C34.6373 35.9337 34.5487 35.8719 34.468 35.802C34.3874 35.7268 34.3095 35.6623 34.2343 35.6086C34.159 35.5548 34.0838 35.528 34.0086 35.528C33.8903 35.528 33.7936 35.5736 33.7184 35.665C33.6485 35.751 33.6082 35.8719 33.5975 36.0277H33.1622C33.1729 35.7268 33.2482 35.4877 33.3879 35.3103C33.5276 35.133 33.7157 35.0443 33.9521 35.0443C34.0811 35.0443 34.1967 35.0739 34.2988 35.133C34.4009 35.1867 34.4922 35.2512 34.5728 35.3264C34.6534 35.3963 34.7287 35.4581 34.7985 35.5118C34.8738 35.5656 34.949 35.5925 35.0243 35.5925C35.1425 35.5925 35.2392 35.5495 35.3144 35.4635C35.3897 35.3775 35.43 35.2593 35.4354 35.1088H35.8706C35.8653 35.3936 35.79 35.6247 35.6449 35.802C35.5052 35.9794 35.3171 36.068 35.0807 36.068Z" fill="#717171"/>
<path d="M39.4726 38.9861H42.3745V39.6713H39.4726V38.9861ZM39.5452 41.493H42.834V42.1943H38.7391V36.5517H42.7212V37.253H39.5452V41.493Z" fill="#717171"/>
<path d="M45.7837 42.2588C45.3538 42.2588 44.9427 42.1943 44.5504 42.0654C44.1581 41.931 43.8491 41.7591 43.6234 41.5495L43.9216 40.9207C44.1366 41.1088 44.4106 41.2647 44.7438 41.3883C45.077 41.5119 45.4236 41.5737 45.7837 41.5737C46.1115 41.5737 46.3775 41.536 46.5817 41.4608C46.7859 41.3856 46.9364 41.2835 47.0331 41.1545C47.1299 41.0201 47.1782 40.8697 47.1782 40.7031C47.1782 40.5096 47.1137 40.3538 46.9848 40.2355C46.8612 40.1173 46.6973 40.0233 46.493 39.9534C46.2942 39.8782 46.0739 39.8137 45.8321 39.7599C45.5902 39.7062 45.3457 39.6444 45.0985 39.5745C44.8567 39.4993 44.6337 39.4053 44.4295 39.2924C44.2306 39.1796 44.0694 39.0291 43.9458 38.841C43.8222 38.6475 43.7604 38.4003 43.7604 38.0994C43.7604 37.8092 43.8356 37.5432 43.9861 37.3014C44.1419 37.0542 44.3784 36.858 44.6955 36.7129C45.0179 36.5625 45.4263 36.4872 45.9207 36.4872C46.2485 36.4872 46.5737 36.5302 46.8961 36.6162C47.2185 36.7022 47.498 36.8258 47.7344 36.987L47.4684 37.6319C47.2266 37.4706 46.9713 37.3551 46.7026 37.2852C46.4339 37.21 46.1733 37.1724 45.9207 37.1724C45.6037 37.1724 45.343 37.2127 45.1388 37.2933C44.9346 37.3739 44.7841 37.4814 44.6874 37.6157C44.596 37.7501 44.5504 37.9006 44.5504 38.0672C44.5504 38.266 44.6122 38.4245 44.7358 38.5428C44.8647 38.661 45.0286 38.755 45.2275 38.8249C45.4317 38.8947 45.6547 38.9592 45.8965 39.0183C46.1384 39.0721 46.3802 39.1339 46.622 39.2037C46.8692 39.2736 47.0922 39.365 47.2911 39.4778C47.4953 39.5907 47.6592 39.7411 47.7828 39.9292C47.9064 40.1173 47.9682 40.3591 47.9682 40.6547C47.9682 40.9395 47.8903 41.2055 47.7344 41.4527C47.5786 41.6946 47.3368 41.8907 47.0089 42.0412C46.6865 42.1863 46.2781 42.2588 45.7837 42.2588Z" fill="#717171"/>
<path d="M52.0442 38.9861H54.9461V39.6713H52.0442V38.9861ZM52.1167 41.493H55.4056V42.1943H51.3106V36.5517H55.2927V37.253H52.1167V41.493Z" fill="#717171"/>
<path d="M56.7108 42.1943V36.5517H57.5169V41.493H60.572V42.1943H56.7108Z" fill="#717171"/>
<path d="M62.2305 38.9861H65.1325V39.6713H62.2305V38.9861ZM62.3031 41.493H65.5919V42.1943H61.497V36.5517H65.4791V37.253H62.3031V41.493ZM62.8915 36.0922L63.9878 35.0443H64.9712L63.617 36.0922H62.8915Z" fill="#717171"/>
<path d="M68.0177 42.1943V37.253H66.083V36.5517H70.7503V37.253H68.8157V42.1943H68.0177Z" fill="#717171"/>
<path d="M71.6283 42.1943V36.5517H73.8289C74.3233 36.5517 74.7451 36.6296 75.0944 36.7855C75.4437 36.9413 75.7124 37.167 75.9005 37.4626C76.0886 37.7582 76.1827 38.1101 76.1827 38.5186C76.1827 38.927 76.0886 39.279 75.9005 39.5745C75.7124 39.8647 75.4437 40.0878 75.0944 40.2436C74.7451 40.3994 74.3233 40.4774 73.8289 40.4774H72.0716L72.4343 40.1066V42.1943H71.6283ZM75.4008 42.1943L73.9659 40.1469H74.8284L76.2794 42.1943H75.4008ZM72.4343 40.1872L72.0716 39.7922H73.8047C74.3206 39.7922 74.7102 39.682 74.9735 39.4617C75.2422 39.236 75.3766 38.9216 75.3766 38.5186C75.3766 38.1155 75.2422 37.8038 74.9735 37.5835C74.7102 37.3632 74.3206 37.253 73.8047 37.253H72.0716L72.4343 36.85V40.1872Z" fill="#717171"/>
<path d="M77.485 42.1943V36.5517H78.2911V42.1943H77.485Z" fill="#717171"/>
<path d="M82.5035 42.2588C82.0736 42.2588 81.6759 42.189 81.3105 42.0493C80.9504 41.9042 80.6361 41.7026 80.3674 41.4447C80.104 41.1814 79.8971 40.875 79.7467 40.5257C79.5962 40.1764 79.521 39.7922 79.521 39.373C79.521 38.9539 79.5962 38.5696 79.7467 38.2203C79.8971 37.871 80.1067 37.5674 80.3754 37.3094C80.6441 37.0461 80.9585 36.8446 81.3185 36.7049C81.684 36.5598 82.0816 36.4872 82.5116 36.4872C82.9468 36.4872 83.3472 36.5625 83.7126 36.7129C84.0834 36.858 84.3978 37.0757 84.6558 37.3659L84.1318 37.8737C83.9168 37.648 83.675 37.4814 83.4063 37.3739C83.1376 37.2611 82.8501 37.2046 82.5438 37.2046C82.2267 37.2046 81.9312 37.2584 81.6571 37.3659C81.3884 37.4733 81.1546 37.6238 80.9558 37.8173C80.757 38.0107 80.6011 38.2418 80.4883 38.5105C80.3808 38.7738 80.327 39.0613 80.327 39.373C80.327 39.6847 80.3808 39.9749 80.4883 40.2436C80.6011 40.5069 80.757 40.7353 80.9558 40.9288C81.1546 41.1222 81.3884 41.2727 81.6571 41.3802C81.9312 41.4877 82.2267 41.5414 82.5438 41.5414C82.8501 41.5414 83.1376 41.4877 83.4063 41.3802C83.675 41.2673 83.9168 41.0954 84.1318 40.8643L84.6558 41.3721C84.3978 41.6623 84.0834 41.8827 83.7126 42.0331C83.3472 42.1836 82.9442 42.2588 82.5035 42.2588Z" fill="#717171"/>
<path d="M84.8174 42.1943L87.3727 36.5517H88.1708L90.7341 42.1943H89.8877L87.6065 37.0031H87.9289L85.6477 42.1943H84.8174ZM85.9056 40.7837L86.1233 40.1388H89.2993L89.5331 40.7837H85.9056Z" fill="#717171"/>
<path d="M93.2203 42.2588C92.7904 42.2588 92.3793 42.1943 91.987 42.0654C91.5947 41.931 91.2857 41.7591 91.06 41.5495L91.3582 40.9207C91.5732 41.1088 91.8473 41.2647 92.1804 41.3883C92.5136 41.5119 92.8602 41.5737 93.2203 41.5737C93.5481 41.5737 93.8141 41.536 94.0183 41.4608C94.2225 41.3856 94.373 41.2835 94.4697 41.1545C94.5665 41.0201 94.6148 40.8697 94.6148 40.7031C94.6148 40.5096 94.5504 40.3538 94.4214 40.2355C94.2978 40.1173 94.1339 40.0233 93.9297 39.9534C93.7308 39.8782 93.5105 39.8137 93.2687 39.7599C93.0268 39.7062 92.7823 39.6444 92.5351 39.5745C92.2933 39.4993 92.0703 39.4053 91.8661 39.2924C91.6672 39.1796 91.506 39.0291 91.3824 38.841C91.2588 38.6475 91.197 38.4003 91.197 38.0994C91.197 37.8092 91.2722 37.5432 91.4227 37.3014C91.5786 37.0542 91.815 36.858 92.1321 36.7129C92.4545 36.5625 92.8629 36.4872 93.3573 36.4872C93.6851 36.4872 94.0103 36.5302 94.3327 36.6162C94.6552 36.7022 94.9346 36.8258 95.171 36.987L94.905 37.6319C94.6632 37.4706 94.4079 37.3551 94.1393 37.2852C93.8706 37.21 93.6099 37.1724 93.3573 37.1724C93.0403 37.1724 92.7796 37.2127 92.5754 37.2933C92.3712 37.3739 92.2207 37.4814 92.124 37.6157C92.0327 37.7501 91.987 37.9006 91.987 38.0672C91.987 38.266 92.0488 38.4245 92.1724 38.5428C92.3014 38.661 92.4653 38.755 92.6641 38.8249C92.8683 38.8947 93.0913 38.9592 93.3332 39.0183C93.575 39.0721 93.8168 39.1339 94.0586 39.2037C94.3058 39.2736 94.5289 39.365 94.7277 39.4778C94.9319 39.5907 95.0958 39.7411 95.2194 39.9292C95.343 40.1173 95.4048 40.3591 95.4048 40.6547C95.4048 40.9395 95.3269 41.2055 95.171 41.4527C95.0152 41.6946 94.7734 41.8907 94.4456 42.0412C94.1231 42.1863 93.7147 42.2588 93.2203 42.2588Z" fill="#717171"/>
<path d="M98.7473 42.1943V36.5517H99.5534V42.1943H98.7473Z" fill="#717171"/>
<path d="M101.243 42.1943V36.5517H101.904L105.636 41.1867H105.289V36.5517H106.095V42.1943H105.434L101.702 37.5593H102.049V42.1943H101.243Z" fill="#717171"/>
<path d="M107.784 42.1943V36.5517H110.162C110.764 36.5517 111.293 36.6699 111.75 36.9064C112.212 37.1428 112.57 37.4733 112.822 37.8979C113.08 38.3224 113.209 38.8141 113.209 39.373C113.209 39.9319 113.08 40.4236 112.822 40.8482C112.57 41.2727 112.212 41.6032 111.75 41.8397C111.293 42.0761 110.764 42.1943 110.162 42.1943H107.784ZM108.59 41.493H110.114C110.581 41.493 110.984 41.4044 111.323 41.227C111.667 41.0497 111.933 40.8025 112.121 40.4854C112.309 40.163 112.403 39.7922 112.403 39.373C112.403 38.9485 112.309 38.5777 112.121 38.2606C111.933 37.9436 111.667 37.6964 111.323 37.519C110.984 37.3417 110.581 37.253 110.114 37.253H108.59V41.493Z" fill="#717171"/>
<path d="M116.782 42.2588C116.04 42.2588 115.457 42.0466 115.032 41.622C114.608 41.1975 114.396 40.5768 114.396 39.7599V36.5517H115.202V39.7277C115.202 40.3565 115.339 40.8159 115.613 41.1061C115.892 41.3963 116.285 41.5414 116.79 41.5414C117.3 41.5414 117.693 41.3963 117.967 41.1061C118.246 40.8159 118.386 40.3565 118.386 39.7277V36.5517H119.168V39.7599C119.168 40.5768 118.955 41.1975 118.531 41.622C118.112 42.0466 117.529 42.2588 116.782 42.2588Z" fill="#717171"/>
<path d="M122.465 42.2588C122.035 42.2588 121.624 42.1943 121.231 42.0654C120.839 41.931 120.53 41.7591 120.304 41.5495L120.603 40.9207C120.818 41.1088 121.092 41.2647 121.425 41.3883C121.758 41.5119 122.105 41.5737 122.465 41.5737C122.793 41.5737 123.059 41.536 123.263 41.4608C123.467 41.3856 123.617 41.2835 123.714 41.1545C123.811 41.0201 123.859 40.8697 123.859 40.7031C123.859 40.5096 123.795 40.3538 123.666 40.2355C123.542 40.1173 123.378 40.0233 123.174 39.9534C122.975 39.8782 122.755 39.8137 122.513 39.7599C122.271 39.7062 122.027 39.6444 121.78 39.5745C121.538 39.4993 121.315 39.4053 121.111 39.2924C120.912 39.1796 120.75 39.0291 120.627 38.841C120.503 38.6475 120.441 38.4003 120.441 38.0994C120.441 37.8092 120.517 37.5432 120.667 37.3014C120.823 37.0542 121.059 36.858 121.377 36.7129C121.699 36.5625 122.107 36.4872 122.602 36.4872C122.93 36.4872 123.255 36.5302 123.577 36.6162C123.9 36.7022 124.179 36.8258 124.415 36.987L124.149 37.6319C123.908 37.4706 123.652 37.3551 123.384 37.2852C123.115 37.21 122.854 37.1724 122.602 37.1724C122.285 37.1724 122.024 37.2127 121.82 37.2933C121.616 37.3739 121.465 37.4814 121.368 37.6157C121.277 37.7501 121.231 37.9006 121.231 38.0672C121.231 38.266 121.293 38.4245 121.417 38.5428C121.546 38.661 121.71 38.755 121.909 38.8249C122.113 38.8947 122.336 38.9592 122.578 39.0183C122.819 39.0721 123.061 39.1339 123.303 39.2037C123.55 39.2736 123.773 39.365 123.972 39.4778C124.176 39.5907 124.34 39.7411 124.464 39.9292C124.587 40.1173 124.649 40.3591 124.649 40.6547C124.649 40.9395 124.571 41.2055 124.415 41.4527C124.26 41.6946 124.018 41.8907 123.69 42.0412C123.368 42.1863 122.959 42.2588 122.465 42.2588Z" fill="#717171"/>
<path d="M126.869 42.1943V37.253H124.934V36.5517H129.601V37.253H127.667V42.1943H126.869Z" fill="#717171"/>
<path d="M130.479 42.1943V36.5517H132.68C133.174 36.5517 133.596 36.6296 133.945 36.7855C134.295 36.9413 134.563 37.167 134.752 37.4626C134.94 37.7582 135.034 38.1101 135.034 38.5186C135.034 38.927 134.94 39.279 134.752 39.5745C134.563 39.8647 134.295 40.0878 133.945 40.2436C133.596 40.3994 133.174 40.4774 132.68 40.4774H130.923L131.285 40.1066V42.1943H130.479ZM134.252 42.1943L132.817 40.1469H133.679L135.13 42.1943H134.252ZM131.285 40.1872L130.923 39.7922H132.656C133.172 39.7922 133.561 39.682 133.825 39.4617C134.093 39.236 134.228 38.9216 134.228 38.5186C134.228 38.1155 134.093 37.8038 133.825 37.5835C133.561 37.3632 133.172 37.253 132.656 37.253H130.923L131.285 36.85V40.1872Z" fill="#717171"/>
<path d="M136.336 42.1943V36.5517H137.142V42.1943H136.336Z" fill="#717171"/>
<path d="M137.977 42.1943L140.532 36.5517H141.33L143.894 42.1943H143.047L140.766 37.0031H141.088L138.807 42.1943H137.977ZM139.065 40.7837L139.283 40.1388H142.459L142.693 40.7837H139.065Z" fill="#717171"/>
<path d="M144.735 42.1943V36.5517H145.542V42.1943H144.735Z" fill="#717171"/>
<path d="M148.875 42.2588C148.445 42.2588 148.034 42.1943 147.642 42.0654C147.25 41.931 146.941 41.7591 146.715 41.5495L147.013 40.9207C147.228 41.1088 147.502 41.2647 147.835 41.3883C148.169 41.5119 148.515 41.5737 148.875 41.5737C149.203 41.5737 149.469 41.536 149.673 41.4608C149.878 41.3856 150.028 41.2835 150.125 41.1545C150.221 41.0201 150.27 40.8697 150.27 40.7031C150.27 40.5096 150.205 40.3538 150.076 40.2355C149.953 40.1173 149.789 40.0233 149.585 39.9534C149.386 39.8782 149.165 39.8137 148.924 39.7599C148.682 39.7062 148.437 39.6444 148.19 39.5745C147.948 39.4993 147.725 39.4053 147.521 39.2924C147.322 39.1796 147.161 39.0291 147.037 38.841C146.914 38.6475 146.852 38.4003 146.852 38.0994C146.852 37.8092 146.927 37.5432 147.078 37.3014C147.234 37.0542 147.47 36.858 147.787 36.7129C148.109 36.5625 148.518 36.4872 149.012 36.4872C149.34 36.4872 149.665 36.5302 149.988 36.6162C150.31 36.7022 150.59 36.8258 150.826 36.987L150.56 37.6319C150.318 37.4706 150.063 37.3551 149.794 37.2852C149.526 37.21 149.265 37.1724 149.012 37.1724C148.695 37.1724 148.435 37.2127 148.23 37.2933C148.026 37.3739 147.876 37.4814 147.779 37.6157C147.688 37.7501 147.642 37.9006 147.642 38.0672C147.642 38.266 147.704 38.4245 147.827 38.5428C147.956 38.661 148.12 38.755 148.319 38.8249C148.523 38.8947 148.746 38.9592 148.988 39.0183C149.23 39.0721 149.472 39.1339 149.714 39.2037C149.961 39.2736 150.184 39.365 150.383 39.4778C150.587 39.5907 150.751 39.7411 150.874 39.9292C150.998 40.1173 151.06 40.3591 151.06 40.6547C151.06 40.9395 150.982 41.2055 150.826 41.4527C150.67 41.6946 150.428 41.8907 150.101 42.0412C149.778 42.1863 149.37 42.2588 148.875 42.2588Z" fill="#717171"/>
<path d="M89.3206 32.0306L103.183 0.628052H111.93L125.837 32.0306H116.596L105.74 4.97955H109.239L98.3824 32.0306H89.3206ZM96.902 25.9295L99.1899 19.3799H114.532L116.82 25.9295H96.902Z" fill="#717171"/>
<path d="M88.8972 19.4135H140.067V26.0725H88.8972V19.4135Z" fill="#B2B2B2"/>
<path d="M122.178 32.0306V0.628052H129.491L146.807 21.5332H143.353V0.628052H152.056V32.0306H144.743L127.427 11.1255H130.881V32.0306H122.178Z" fill="#717171"/>
</svg>
