<svg width="168" height="15" viewBox="0 0 168 15" fill="none" xmlns="http://www.w3.org/2000/svg">
<path d="M2.94239 2.55587V6.22207H7.8814V8.54749H2.94239V12.4232H8.51192V14.8115H0V0.167597H8.51192V2.55587H2.94239Z" fill="#717171"/>
<path d="M16.0408 12.1089L18.9832 3.20531H22.1147L17.8062 14.8115H14.2333L9.94584 3.20531H13.0984L16.0408 12.1089Z" fill="#717171"/>
<path d="M34.5912 8.75698C34.5912 9.17598 34.5631 9.55307 34.5071 9.88827H25.9952C26.0652 10.7263 26.3595 11.3827 26.8779 11.8575C27.3963 12.3324 28.0338 12.5698 28.7904 12.5698C29.8833 12.5698 30.661 12.102 31.1233 11.1662H34.2969C33.9606 12.2835 33.3161 13.2053 32.3633 13.9316C31.4106 14.6439 30.2406 15 28.8535 15C27.7326 15 26.7238 14.7556 25.827 14.2668C24.9443 13.764 24.2508 13.0587 23.7463 12.1508C23.2559 11.243 23.0107 10.1955 23.0107 9.00838C23.0107 7.80726 23.2559 6.75279 23.7463 5.84497C24.2367 4.93715 24.9233 4.23883 25.806 3.75C26.6887 3.26117 27.7046 3.01676 28.8535 3.01676C29.9604 3.01676 30.9482 3.25419 31.8169 3.72905C32.6996 4.20391 33.3792 4.88128 33.8556 5.76117C34.346 6.62709 34.5912 7.6257 34.5912 8.75698ZM31.5437 7.91899C31.5297 7.1648 31.2564 6.56425 30.724 6.11732C30.1916 5.65642 29.5401 5.42598 28.7694 5.42598C28.0408 5.42598 27.4243 5.64944 26.9199 6.09637C26.4295 6.52933 26.1283 7.13687 26.0162 7.91899H31.5437Z" fill="#717171"/>
<path d="M43.1911 3.03771C44.5782 3.03771 45.6991 3.47765 46.5538 4.35754C47.4085 5.22346 47.8359 6.43855 47.8359 8.00279V14.8115H44.8935V8.40084C44.8935 7.47905 44.6623 6.77374 44.1999 6.28492C43.7375 5.78212 43.107 5.53073 42.3084 5.53073C41.4957 5.53073 40.8512 5.78212 40.3748 6.28492C39.9124 6.77374 39.6812 7.47905 39.6812 8.40084V14.8115H36.7388V3.20531H39.6812V4.65084C40.0735 4.14804 40.5709 3.75698 41.1734 3.47765C41.7899 3.18436 42.4625 3.03771 43.1911 3.03771Z" fill="#717171"/>
<path d="M54.0597 5.61452V11.229C54.0597 11.6201 54.1508 11.9064 54.3329 12.088C54.5291 12.2556 54.8513 12.3394 55.2997 12.3394H56.6658V14.8115H54.8163C52.3363 14.8115 51.0963 13.6103 51.0963 11.2081V5.61452H49.7092V3.20531H51.0963V0.335195H54.0597V3.20531H56.6658V5.61452H54.0597Z" fill="#717171"/>
<path d="M63.9523 15C62.8314 15 61.8226 14.7556 60.9259 14.2668C60.0291 13.764 59.3216 13.0587 58.8032 12.1508C58.2987 11.243 58.0465 10.1955 58.0465 9.00838C58.0465 7.82123 58.3058 6.77374 58.8242 5.86592C59.3566 4.9581 60.0782 4.25978 60.9889 3.77095C61.8997 3.26816 62.9155 3.01676 64.0364 3.01676C65.1573 3.01676 66.1731 3.26816 67.0839 3.77095C67.9946 4.25978 68.7092 4.9581 69.2276 5.86592C69.7601 6.77374 70.0263 7.82123 70.0263 9.00838C70.0263 10.1955 69.7531 11.243 69.2066 12.1508C68.6742 13.0587 67.9456 13.764 67.0208 14.2668C66.1101 14.7556 65.0873 15 63.9523 15ZM63.9523 12.4441C64.4848 12.4441 64.9822 12.3184 65.4445 12.067C65.9209 11.8017 66.2992 11.4106 66.5795 10.8939C66.8597 10.3771 66.9998 9.7486 66.9998 9.00838C66.9998 7.90503 66.7056 7.06006 66.1171 6.47346C65.5426 5.8729 64.8351 5.57263 63.9944 5.57263C63.1537 5.57263 62.4461 5.8729 61.8717 6.47346C61.3112 7.06006 61.031 7.90503 61.031 9.00838C61.031 10.1117 61.3042 10.9637 61.8506 11.5642C62.4111 12.1508 63.1117 12.4441 63.9523 12.4441Z" fill="#717171"/>
<path d="M71.47 7.47905C71.47 6.0405 71.7923 4.75559 72.4368 3.6243C73.0954 2.47905 73.9851 1.59218 75.106 0.963687C76.2409 0.321229 77.509 0 78.9101 0C80.5494 0 81.9856 0.418994 83.2186 1.25698C84.4516 2.09497 85.3133 3.25419 85.8037 4.73464H82.4199C82.0837 4.03631 81.6073 3.51257 80.9908 3.16341C80.3883 2.81425 79.6877 2.63966 78.8891 2.63966C78.0344 2.63966 77.2708 2.84218 76.5982 3.24721C75.9397 3.63827 75.4213 4.19693 75.043 4.92318C74.6787 5.64944 74.4965 6.5014 74.4965 7.47905C74.4965 8.44274 74.6787 9.29469 75.043 10.0349C75.4213 10.7612 75.9397 11.3268 76.5982 11.7318C77.2708 12.1229 78.0344 12.3184 78.8891 12.3184C79.6877 12.3184 80.3883 12.1439 80.9908 11.7947C81.6073 11.4316 82.0837 10.9008 82.4199 10.2025H85.8037C85.3133 11.6969 84.4516 12.8631 83.2186 13.7011C81.9996 14.5251 80.5634 14.9372 78.9101 14.9372C77.509 14.9372 76.2409 14.6229 75.106 13.9944C73.9851 13.352 73.0954 12.4651 72.4368 11.3338C71.7923 10.2025 71.47 8.9176 71.47 7.47905Z" fill="#717171"/>
<path d="M93.4871 15C92.3662 15 91.3574 14.7556 90.4606 14.2668C89.5639 13.764 88.8563 13.0587 88.3379 12.1508C87.8335 11.243 87.5813 10.1955 87.5813 9.00838C87.5813 7.82123 87.8405 6.77374 88.3589 5.86592C88.8913 4.9581 89.6129 4.25978 90.5237 3.77095C91.4344 3.26816 92.4502 3.01676 93.5712 3.01676C94.6921 3.01676 95.7079 3.26816 96.6186 3.77095C97.5294 4.25978 98.2439 4.9581 98.7624 5.86592C99.2948 6.77374 99.561 7.82123 99.561 9.00838C99.561 10.1955 99.2878 11.243 98.7413 12.1508C98.2089 13.0587 97.4803 13.764 96.5556 14.2668C95.6448 14.7556 94.622 15 93.4871 15ZM93.4871 12.4441C94.0195 12.4441 94.5169 12.3184 94.9793 12.067C95.4557 11.8017 95.834 11.4106 96.1142 10.8939C96.3944 10.3771 96.5346 9.7486 96.5346 9.00838C96.5346 7.90503 96.2403 7.06006 95.6518 6.47346C95.0774 5.8729 94.3698 5.57263 93.5291 5.57263C92.6884 5.57263 91.9809 5.8729 91.4064 6.47346C90.8459 7.06006 90.5657 7.90503 90.5657 9.00838C90.5657 10.1117 90.8389 10.9637 91.3854 11.5642C91.9458 12.1508 92.6464 12.4441 93.4871 12.4441Z" fill="#717171"/>
<path d="M108.172 3.03771C109.559 3.03771 110.68 3.47765 111.534 4.35754C112.389 5.22346 112.816 6.43855 112.816 8.00279V14.8115H109.874V8.40084C109.874 7.47905 109.643 6.77374 109.18 6.28492C108.718 5.78212 108.088 5.53073 107.289 5.53073C106.476 5.53073 105.832 5.78212 105.355 6.28492C104.893 6.77374 104.662 7.47905 104.662 8.40084V14.8115H101.719V3.20531H104.662V4.65084C105.054 4.14804 105.551 3.75698 106.154 3.47765C106.77 3.18436 107.443 3.03771 108.172 3.03771Z" fill="#717171"/>
<path d="M122.067 3.03771C123.454 3.03771 124.575 3.47765 125.429 4.35754C126.284 5.22346 126.711 6.43855 126.711 8.00279V14.8115H123.769V8.40084C123.769 7.47905 123.538 6.77374 123.076 6.28492C122.613 5.78212 121.983 5.53073 121.184 5.53073C120.371 5.53073 119.727 5.78212 119.25 6.28492C118.788 6.77374 118.557 7.47905 118.557 8.40084V14.8115H115.614V3.20531H118.557V4.65084C118.949 4.14804 119.447 3.75698 120.049 3.47765C120.666 3.18436 121.338 3.03771 122.067 3.03771Z" fill="#717171"/>
<path d="M140.333 8.75698C140.333 9.17598 140.305 9.55307 140.249 9.88827H131.737C131.807 10.7263 132.102 11.3827 132.62 11.8575C133.138 12.3324 133.776 12.5698 134.533 12.5698C135.626 12.5698 136.403 12.102 136.866 11.1662H140.039C139.703 12.2835 139.058 13.2053 138.106 13.9316C137.153 14.6439 135.983 15 134.596 15C133.475 15 132.466 14.7556 131.569 14.2668C130.686 13.764 129.993 13.0587 129.489 12.1508C128.998 11.243 128.753 10.1955 128.753 9.00838C128.753 7.80726 128.998 6.75279 129.489 5.84497C129.979 4.93715 130.665 4.23883 131.548 3.75C132.431 3.26117 133.447 3.01676 134.596 3.01676C135.703 3.01676 136.69 3.25419 137.559 3.72905C138.442 4.20391 139.121 4.88128 139.598 5.76117C140.088 6.62709 140.333 7.6257 140.333 8.75698ZM137.286 7.91899C137.272 7.1648 136.999 6.56425 136.466 6.11732C135.934 5.65642 135.282 5.42598 134.512 5.42598C133.783 5.42598 133.167 5.64944 132.662 6.09637C132.172 6.52933 131.87 7.13687 131.758 7.91899H137.286Z" fill="#717171"/>
<path d="M141.724 9.00838C141.724 7.80726 141.97 6.75978 142.46 5.86592C142.95 4.9581 143.63 4.25978 144.499 3.77095C145.367 3.26816 146.362 3.01676 147.483 3.01676C148.926 3.01676 150.117 3.37989 151.056 4.10614C152.009 4.81844 152.646 5.82402 152.969 7.1229H149.795C149.627 6.62011 149.34 6.22905 148.933 5.94972C148.541 5.65642 148.051 5.50978 147.462 5.50978C146.621 5.50978 145.956 5.81704 145.465 6.43156C144.975 7.03212 144.73 7.89106 144.73 9.00838C144.73 10.1117 144.975 10.9707 145.465 11.5852C145.956 12.1858 146.621 12.486 147.462 12.486C148.653 12.486 149.431 11.9553 149.795 10.8939H152.969C152.646 12.1508 152.009 13.1494 151.056 13.8897C150.103 14.6299 148.912 15 147.483 15C146.362 15 145.367 14.7556 144.499 14.2668C143.63 13.764 142.95 13.0656 142.46 12.1718C141.97 11.264 141.724 10.2095 141.724 9.00838Z" fill="#717171"/>
<path d="M158.55 5.61452V11.229C158.55 11.6201 158.641 11.9064 158.823 12.088C159.019 12.2556 159.342 12.3394 159.79 12.3394H161.156V14.8115H159.306C156.826 14.8115 155.586 13.6103 155.586 11.2081V5.61452H154.199V3.20531H155.586V0.335195H158.55V3.20531H161.156V5.61452H158.55Z" fill="#717171"/>
<path d="M168 12.1928C168 13.639 166.824 14.8115 165.373 14.8115C163.922 14.8115 162.746 13.639 162.746 12.1928C162.746 10.7465 163.922 9.57404 165.373 9.57404C166.824 9.57404 168 10.7465 168 12.1928Z" fill="#B2B2B2"/>
</svg>
