<svg width="132" height="35" viewBox="0 0 132 35" fill="none" xmlns="http://www.w3.org/2000/svg">
<path d="M20.144 0.304348H23.4318V30.7391H20.144V4.43478L10.8824 30.7826V4.47826L1.52816 30.7391H0L10.8824 0.304348H13.8924V17.7826L20.144 0.304348ZM37.3745 0.347822H40.7548V30.7826H37.4671V26.3478H28.3444L26.5384 30.7826H24.9176L37.3745 0.347822ZM28.9464 25H37.4671V4.43478L28.9464 25ZM58.03 13.1304C58.03 17.2609 55.9462 20.913 52.7046 23.3043L57.5206 30.7826H53.816L49.8798 24.9565C48.9537 25.3913 47.8886 25.6957 46.8235 25.9565V30.7826H43.5356V0C43.5356 0 43.5356 0 43.5819 0C51.5469 0 58.03 5.86957 58.03 13.1304ZM46.8235 1.47826V24.7826C51.5006 23.2609 54.6958 18.6522 54.6958 13.1304C54.6958 7.65217 51.5006 3 46.8235 1.47826ZM64.8493 10.6957C70.6841 12.0435 74.8981 16 74.8981 20.6522C74.8981 26.4348 68.415 31.1304 60.45 31.1304C60.4037 31.1304 60.4037 31.1304 60.4037 31.1304V0C65.9606 0 70.4525 2.52174 70.4525 5.6087C70.4525 7.82609 68.1371 9.78261 64.8493 10.6957ZM67.6277 5.6087C67.6277 3.56522 66.1459 1.95652 63.6916 1.17391V10.2174C66.1459 9.43478 67.6277 7.69565 67.6277 5.6087ZM63.6916 29.9565C68.3687 28.7391 71.5639 25.0435 71.5639 20.6522C71.5639 16.2609 68.3687 12.5652 63.6916 11.3913V29.9565ZM91.9568 1.86957H80.3335V8.30435H90.5212V9.69565H80.3335V29.2609H91.9568V30.7826H77.0456V0.347822H91.9568V1.86957ZM98.0154 33.4783H111.074V35H94.7275V0.347822H98.0154V33.4783ZM116.024 0C124.869 0 132 6.95652 132 15.5652C132 24.1739 124.869 31.1739 116.024 31.1739C107.225 31.1739 100.048 24.1739 100.048 15.5652C100.048 6.95652 107.225 0 116.024 0ZM116.024 30.3478C123.063 30.3478 128.342 23.5217 128.342 15.5652C128.342 7.6087 123.063 0.782605 116.024 0.782605C108.985 0.782605 103.752 7.6087 103.752 15.5652C103.752 23.5217 108.985 30.3478 116.024 30.3478Z" fill="#717171"/>
</svg>
