<svg width="146" height="42" viewBox="0 0 146 42" fill="none" xmlns="http://www.w3.org/2000/svg">
<path d="M10.1139 34.2144C8.17539 34.2144 6.27904 33.99 4.42482 33.5411C2.59869 33.0922 1.12374 32.5311 0 31.8577L2.40204 26.3868C3.46964 27.0321 4.71981 27.5511 6.15261 27.9439C7.58541 28.3086 8.99014 28.491 10.3667 28.491C11.7153 28.491 12.6424 28.3507 13.1481 28.0701C13.6818 27.7896 13.9487 27.4108 13.9487 26.9339C13.9487 26.485 13.6959 26.1623 13.1902 25.9659C12.7126 25.7415 12.0664 25.5731 11.2517 25.4609C10.4651 25.3487 9.59413 25.2225 8.63894 25.0822C7.68376 24.9419 6.71451 24.7595 5.7312 24.5351C4.77602 24.2826 3.89105 23.9179 3.0763 23.4409C2.28968 22.9359 1.65757 22.2625 1.17995 21.4208C0.702331 20.5792 0.463548 19.513 0.463548 18.2224C0.463548 16.7635 0.88496 15.4729 1.72778 14.3507C2.59869 13.2004 3.86292 12.3026 5.52049 11.6573C7.17806 10.984 9.20084 10.6473 11.5888 10.6473C13.1902 10.6473 14.8056 10.8156 16.4351 11.1523C18.0926 11.4609 19.4833 11.9379 20.607 12.5832L18.205 18.012C17.0812 17.3667 15.9574 16.9319 14.8337 16.7074C13.71 16.4549 12.6424 16.3287 11.631 16.3287C10.2825 16.3287 9.32727 16.483 8.76537 16.7916C8.2316 17.1002 7.96468 17.479 7.96468 17.9279C7.96468 18.3767 8.20347 18.7275 8.68108 18.98C9.1587 19.2044 9.79082 19.3868 10.5774 19.5271C11.3922 19.6393 12.2772 19.7655 13.2323 19.9058C14.1875 20.018 15.1428 20.2004 16.0979 20.4529C17.0813 20.7054 17.9662 21.0842 18.7528 21.5892C19.5676 22.0661 20.2137 22.7255 20.6913 23.5671C21.1689 24.3808 21.4077 25.4329 21.4077 26.7234C21.4077 28.1263 20.9723 29.3888 20.1014 30.511C19.2585 31.6332 17.9943 32.5311 16.3086 33.2044C14.6511 33.8778 12.5862 34.2144 10.1139 34.2144ZM24.8581 33.8357V11.0261H32.8649V33.8357H24.8581ZM28.8615 8.501C27.4005 8.501 26.2206 8.09421 25.3216 7.28056C24.4226 6.46692 23.9731 5.4569 23.9731 4.2505C23.9731 3.04411 24.4226 2.03409 25.3216 1.22044C26.2206 0.406797 27.4005 0 28.8615 0C30.3224 0 31.5023 0.392802 32.4013 1.17836C33.3003 1.93587 33.7499 2.91785 33.7499 4.12425C33.7499 5.38677 33.3003 6.43888 32.4013 7.28056C31.5304 8.09421 30.3504 8.501 28.8615 8.501ZM67.8201 10.6473C69.5899 10.6473 71.1634 11.012 72.5397 11.7415C73.9446 12.4429 75.0402 13.5371 75.827 15.024C76.6418 16.511 77.0489 18.4329 77.0489 20.7896V33.8357H69.0421V22.0942C69.0421 20.467 68.7333 19.2886 68.1152 18.5591C67.4971 17.8016 66.6542 17.4228 65.5867 17.4228C64.828 17.4228 64.1395 17.6052 63.5214 17.9699C62.9033 18.3347 62.4259 18.8958 62.089 19.6533C61.7517 20.3828 61.583 21.3367 61.583 22.515V33.8357H53.5762V22.0942C53.5762 20.467 53.2674 19.2886 52.6493 18.5591C52.0592 17.8016 51.2164 17.4228 50.1208 17.4228C49.3341 17.4228 48.6319 17.6052 48.0138 17.9699C47.4237 18.3347 46.9462 18.8958 46.5809 19.6533C46.2435 20.3828 46.0752 21.3367 46.0752 22.515V33.8357H38.0683V11.0261H45.6959V17.3808L44.1788 15.5711C45.0216 13.9439 46.1735 12.7235 47.6341 11.9098C49.0951 11.0681 50.7247 10.6473 52.5229 10.6473C54.5734 10.6473 56.3717 11.1803 57.9167 12.2465C59.4902 13.2846 60.5435 14.9118 61.0775 17.1283L58.4645 16.5812C59.2793 14.7295 60.5017 13.2846 62.1308 12.2465C63.7884 11.1803 65.685 10.6473 67.8201 10.6473ZM96.4726 34.2144C94.5342 34.2144 92.8766 33.7936 91.5002 32.9519C90.1234 32.0822 89.0701 30.7916 88.3394 29.0802C87.6372 27.3407 87.2861 25.1242 87.2861 22.4309C87.2861 19.7094 87.6229 17.493 88.2976 15.7816C88.9718 14.0421 89.9833 12.7515 91.3316 11.9098C92.7079 11.0681 94.4221 10.6473 96.4726 10.6473C98.5516 10.6473 100.434 11.1383 102.12 12.1202C103.833 13.0741 105.182 14.4349 106.165 16.2024C107.177 17.9419 107.683 20.018 107.683 22.4309C107.683 24.8437 107.177 26.9339 106.165 28.7014C105.182 30.4689 103.833 31.8297 102.12 32.7836C100.434 33.7375 98.5516 34.2144 96.4726 34.2144ZM82.1028 42V11.0261H89.73V14.8978L89.6882 22.4309L90.1096 30.006V42H82.1028ZM94.7869 27.8597C95.6863 27.8597 96.4869 27.6493 97.189 27.2285C97.9198 26.8076 98.4956 26.1904 98.917 25.3768C99.3664 24.5631 99.5911 23.5812 99.5911 22.4309C99.5911 21.2805 99.3664 20.2986 98.917 19.485C98.4956 18.6713 97.9198 18.0541 97.189 17.6333C96.4869 17.2124 95.6863 17.002 94.7869 17.002C93.8881 17.002 93.0733 17.2124 92.3431 17.6333C91.6404 18.0541 91.0646 18.6713 90.6151 19.485C90.1937 20.2986 89.9833 21.2805 89.9833 22.4309C89.9833 23.5812 90.1937 24.5631 90.6151 25.3768C91.0646 26.1904 91.6404 26.8076 92.3431 27.2285C93.0733 27.6493 93.8881 27.8597 94.7869 27.8597ZM111.404 33.8357V2.60922H119.411V33.8357H111.404ZM124.614 33.8357V11.0261H132.621V33.8357H124.614ZM128.618 8.501C127.157 8.501 125.977 8.09421 125.078 7.28056C124.179 6.46692 123.729 5.4569 123.729 4.2505C123.729 3.04411 124.179 2.03409 125.078 1.22044C125.977 0.406797 127.157 0 128.618 0C130.079 0 131.259 0.392802 132.158 1.17836C133.056 1.93587 133.506 2.91785 133.506 4.12425C133.506 5.38677 133.056 6.43888 132.158 7.28056C131.287 8.09421 130.107 8.501 128.618 8.501ZM141.196 34.2144C139.847 34.2144 138.71 33.7655 137.782 32.8677C136.855 31.9699 136.392 30.8337 136.392 29.4589C136.392 28.0281 136.855 26.8918 137.782 26.0501C138.71 25.1804 139.847 24.7455 141.196 24.7455C142.544 24.7455 143.682 25.1804 144.609 26.0501C145.536 26.8918 146 28.0281 146 29.4589C146 30.8337 145.536 31.9699 144.609 32.8677C143.682 33.7655 142.544 34.2144 141.196 34.2144Z" fill="#717171"/>
</svg>
