<svg width="158" height="51" viewBox="0 0 158 51" fill="none" xmlns="http://www.w3.org/2000/svg">
<path d="M3.454 13.3091C3.454 11.726 3.43558 10.1337 3.39874 8.53221C3.3619 6.9307 3.3619 5.33839 3.39874 3.75528C3.41716 2.79805 3.88691 2.31944 4.80797 2.31944H11.5502C12.5081 2.31944 12.9871 2.79805 12.9871 3.75528C12.9871 5.33839 12.9778 6.9307 12.9594 8.53221C12.941 10.1337 12.9318 11.726 12.9318 13.3091C12.9318 13.6037 13.0792 13.7509 13.3739 13.7509H28.8202C29.7781 13.7509 30.2571 14.2296 30.2571 15.1868C30.2571 16.144 30.2479 17.1012 30.2295 18.0585C30.2295 18.9973 30.2295 19.9453 30.2295 20.9025C30.2295 21.8414 29.7597 22.3108 28.8202 22.3108H13.3739C13.0607 22.3108 12.9042 22.458 12.9042 22.7526C12.9042 25.5322 12.9134 28.3211 12.9318 31.1191C12.9686 33.9172 12.9871 36.7152 12.9871 39.5133C12.9871 40.4705 12.5081 40.9491 11.5502 40.9491H4.80797C3.85006 40.9491 3.37111 40.4705 3.37111 39.5133C3.37111 36.7152 3.38953 33.9172 3.42637 31.1191C3.46322 28.3211 3.48164 25.5322 3.48164 22.7526C3.48164 22.4396 3.30663 22.2832 2.95663 22.2832C2.60662 22.2832 2.20135 22.3016 1.74082 22.3384C1.29871 22.3568 0.902647 22.2832 0.552641 22.1175C0.202635 21.9518 0.027632 21.5468 0.027632 20.9025C0.027632 19.9453 0.0184214 18.9973 0 18.0585C0 17.1012 0 16.144 0 15.1868C0 14.5241 0.175003 14.1099 0.525009 13.9442C0.875015 13.7786 1.27107 13.7141 1.71319 13.7509C2.17372 13.7878 2.57899 13.8062 2.929 13.8062C3.279 13.7878 3.454 13.6221 3.454 13.3091Z" fill="#717171"/>
<path d="M29.1242 14.0823C29.7873 14.0823 30.1558 14.3124 30.2295 14.7726C30.3216 15.2328 30.4045 15.7114 30.4781 16.2084C30.4966 16.2821 30.5242 16.457 30.561 16.7331C30.5979 16.9908 30.6808 17.1197 30.8097 17.1197C30.9387 17.1197 31.0768 17.0276 31.2242 16.8435C31.3716 16.641 31.4729 16.503 31.5282 16.4293C32.3203 15.3801 33.2782 14.6437 34.4019 14.2204C35.544 13.797 36.7598 13.5853 38.0493 13.5853C38.3993 13.5853 38.8599 13.6037 39.4309 13.6405C40.002 13.6589 40.5178 13.7694 40.9783 13.9718C41.4388 14.1559 41.6691 14.4873 41.6691 14.9659C41.6691 15.1868 41.5862 15.6378 41.4204 16.3189C41.2731 16.9816 41.0888 17.7271 40.8678 18.5555C40.6651 19.3839 40.4625 20.157 40.2599 20.8749C40.0757 21.5929 39.9467 22.0991 39.873 22.3936C39.6704 23.1852 39.2191 23.5809 38.5191 23.5809C38.2427 23.5809 37.9756 23.5625 37.7177 23.5257C37.4598 23.4705 37.1927 23.4429 36.9164 23.4429C35.5164 23.4429 34.3835 23.9215 33.5177 24.8787C32.6519 25.836 32.0255 26.9865 31.6387 28.3303C31.2518 29.6741 31.0584 30.9258 31.0584 32.0855V39.5409C31.0584 40.4797 30.5887 40.9491 29.6492 40.9491H22.7688C21.8293 40.9491 21.3596 40.4705 21.3596 39.5133C21.3596 36.5864 21.378 33.6594 21.4148 30.7325C21.4701 27.8056 21.4977 24.8787 21.4977 21.9518C21.4977 20.8657 21.4885 19.7888 21.4701 18.7212C21.4701 17.6535 21.4701 16.5858 21.4701 15.5181C21.4701 14.5609 21.949 14.0823 22.907 14.0823H29.1242Z" fill="#717171"/>
<path d="M44.5152 21.51V15.4905C44.5152 14.5517 44.985 14.0823 45.9244 14.0823H51.9759C52.9154 14.0823 53.3851 14.5517 53.3851 15.4905C53.3851 19.4851 53.3943 23.4889 53.4127 27.5019C53.4312 31.4965 53.4404 35.5003 53.4404 39.5133C53.4404 40.4705 52.9614 40.9491 52.0035 40.9491H45.8692C44.9113 40.9491 44.4323 40.4705 44.4323 39.5133C44.4323 36.5127 44.4415 33.5122 44.4599 30.5116C44.4968 27.5111 44.5152 24.5106 44.5152 21.51Z" fill="#717171"/>
<path d="M89.4725 27.64C89.4725 32.0211 88.2567 35.4635 85.8251 37.967C83.4119 40.4705 80.004 41.7223 75.6013 41.7223C74.4776 41.7223 73.4368 41.575 72.4788 41.2805C71.5209 41.0043 70.5999 40.5165 69.7156 39.817C69.642 39.7618 69.5498 39.6973 69.4393 39.6237C69.3288 39.5317 69.2183 39.4857 69.1077 39.4857C68.9788 39.4857 68.8959 39.5869 68.859 39.7894C68.8406 39.9735 68.8314 40.1023 68.8314 40.176L68.7485 49.6194C68.7485 50.5398 68.2788 51 67.3393 51H60.4036C59.4641 51 58.9944 50.5122 58.9944 49.5365C58.9944 48.0087 59.0312 46.4808 59.1049 44.9529C59.197 43.425 59.2615 41.9063 59.2984 40.3969C59.4641 33.9908 59.547 27.5847 59.547 21.1787C59.547 20.2398 59.5286 19.301 59.4918 18.3622C59.4734 17.405 59.4826 16.4662 59.5194 15.5457C59.5378 14.5885 60.0076 14.1099 60.9286 14.1099H66.7314C67.284 14.1099 67.6617 14.294 67.8643 14.6622C68.0853 15.0119 68.2511 15.3709 68.3617 15.739C68.4722 16.1072 68.638 16.2913 68.859 16.2913C68.9511 16.2913 69.0709 16.2361 69.2183 16.1256C70.3788 15.2052 71.567 14.5149 72.7828 14.0547C73.9986 13.5761 75.3526 13.3368 76.8447 13.3368C79.7553 13.3368 82.1408 13.9718 84.0014 15.242C85.862 16.4938 87.2343 18.1965 88.1186 20.3503C89.0212 22.5041 89.4725 24.9339 89.4725 27.64ZM74.2197 32.7482C75.8407 32.7482 77.1947 32.2328 78.2816 31.202C79.3684 30.1527 79.9119 28.8181 79.9119 27.1982C79.9119 25.4678 79.35 24.0688 78.2263 23.0011C77.1026 21.9334 75.6934 21.3996 73.9986 21.3996C73.0775 21.3996 72.1657 21.5836 71.263 21.9518C70.3788 22.3016 69.6327 22.8354 69.0248 23.5533V30.346C69.5591 31.2296 70.3143 31.8554 71.2907 32.2236C72.2854 32.5734 73.2617 32.7482 74.2197 32.7482Z" fill="#717171"/>
<path d="M93.6726 1.43584C93.6726 0.478614 94.1516 0 95.1095 0H102.017C102.975 0 103.454 0.478614 103.454 1.43584C103.454 4.60206 103.436 7.77748 103.399 10.9621C103.381 14.1283 103.371 17.2945 103.371 20.4607C103.371 23.627 103.381 26.8024 103.399 29.987C103.436 33.1532 103.454 36.3286 103.454 39.5133C103.454 40.4705 102.975 40.9491 102.017 40.9491H95.1095C94.17 40.9491 93.7002 40.4705 93.7002 39.5133C93.7002 36.7152 93.7095 33.9264 93.7279 31.1467C93.7647 28.3671 93.7831 25.5874 93.7831 22.8078C93.7831 19.2366 93.7647 15.6746 93.7279 12.1218C93.691 8.55062 93.6726 4.98863 93.6726 1.43584Z" fill="#717171"/>
<path d="M129.318 40.9491C128.6 40.9491 128.139 40.5717 127.936 39.817C127.881 39.5961 127.789 39.2003 127.66 38.6297C127.549 38.0406 127.439 37.47 127.328 36.9177C127.236 36.347 127.19 35.9697 127.19 35.7856C127.19 35.5647 127.264 35.2886 127.411 34.9572C126.472 36.9453 125.201 38.5744 123.598 39.8446C121.995 41.0964 120.034 41.7223 117.712 41.7223C116.147 41.7223 114.673 41.4277 113.291 40.8387C111.91 40.2312 110.786 39.3384 109.92 38.1603C109.073 36.9821 108.649 35.5463 108.649 33.8527C108.649 31.8094 108.668 29.7753 108.704 27.7504C108.741 25.7071 108.76 23.6638 108.76 21.6205C108.76 20.608 108.75 19.5956 108.732 18.5831C108.732 17.5522 108.732 16.5306 108.732 15.5181C108.732 14.5609 109.211 14.0823 110.169 14.0823H116.69C117.63 14.0823 118.099 14.5517 118.099 15.4905C118.099 17.9388 118.081 20.3871 118.044 22.8354C118.026 25.2837 118.035 27.732 118.072 30.1803C118.09 31.2296 118.366 31.9751 118.901 32.4169C119.453 32.8587 120.236 33.0796 121.249 33.0796C122.447 33.0796 123.423 32.7759 124.178 32.1684C124.952 31.5425 125.56 30.7417 126.002 29.7661C126.444 28.7905 126.748 27.7596 126.914 26.6735C127.098 25.5874 127.19 24.575 127.19 23.6362V15.4905C127.19 14.5517 127.66 14.0823 128.6 14.0823H135.093C136.051 14.0823 136.53 14.5609 136.53 15.5181C136.53 16.5674 136.521 17.6167 136.502 18.6659C136.502 19.6968 136.502 20.7369 136.502 21.7861C136.502 23.7926 136.511 25.7991 136.53 27.8056C136.548 29.7937 136.576 31.791 136.613 33.7975C136.631 34.7547 136.65 35.712 136.668 36.6692C136.705 37.608 136.723 38.556 136.723 39.5133C136.723 40.4705 136.254 40.9491 135.314 40.9491H129.318ZM127.66 34.405C127.623 34.4786 127.586 34.5522 127.549 34.6259C127.605 34.5338 127.642 34.4602 127.66 34.405Z" fill="#717171"/>
<path d="M148.301 41.8051C147.012 41.8051 145.704 41.6026 144.377 41.1976C143.051 40.7926 141.9 40.1483 140.923 39.2648C140.629 38.9886 140.481 38.6849 140.481 38.3535C140.481 38.0774 140.564 37.6356 140.73 37.0282C140.914 36.4207 141.108 35.804 141.31 35.1781C141.531 34.5522 141.688 34.0828 141.78 33.7699C141.872 33.4938 141.992 33.2361 142.139 32.9967C142.305 32.739 142.554 32.6102 142.885 32.6102C143.309 32.6102 143.935 32.8403 144.764 33.3005C145.593 33.7607 146.487 33.9908 147.445 33.9908C147.979 33.9908 148.504 33.8895 149.02 33.6871C149.535 33.4662 149.793 33.0336 149.793 32.3893C149.793 31.7818 149.526 31.2848 148.992 30.8982C148.458 30.5116 147.85 30.1803 147.168 29.9042C146.505 29.628 145.952 29.3703 145.51 29.131C144.073 28.3211 142.968 27.2442 142.194 25.9004C141.421 24.5382 141.034 23.0379 141.034 21.3996C141.034 19.5403 141.448 18.0217 142.277 16.8435C143.106 15.647 144.221 14.7726 145.621 14.2204C147.021 13.6497 148.577 13.3644 150.291 13.3644C151.156 13.3644 152.105 13.4564 153.137 13.6405C154.168 13.8062 155.08 14.0731 155.872 14.4413C156.407 14.6806 156.674 15.0487 156.674 15.5457C156.674 15.6746 156.609 16.006 156.48 16.5398C156.37 17.0736 156.241 17.6167 156.093 18.1689C155.964 18.7212 155.872 19.0985 155.817 19.301C155.743 19.5956 155.624 19.8533 155.458 20.0742C155.31 20.2951 155.053 20.4055 154.684 20.4055C154.279 20.4055 153.846 20.3319 153.385 20.1846C152.925 20.0189 152.437 19.9361 151.921 19.9361C151.405 19.9361 150.88 20.0466 150.346 20.2675C149.812 20.4884 149.545 20.921 149.545 21.5652C149.545 22.1359 149.793 22.6605 150.291 23.1391C150.788 23.6178 151.396 24.0596 152.114 24.4645C152.851 24.8695 153.56 25.2561 154.242 25.6243C154.942 25.9924 155.485 26.3422 155.872 26.6735C156.664 27.3546 157.217 28.2106 157.53 29.2415C157.843 30.2539 158 31.2664 158 32.2788C158 34.1749 157.586 35.8408 156.757 37.2767C155.928 38.6941 154.776 39.8078 153.303 40.6178C151.847 41.4093 150.18 41.8051 148.301 41.8051Z" fill="#717171"/>
</svg>
