<svg width="136" height="33" viewBox="0 0 136 33" fill="none" xmlns="http://www.w3.org/2000/svg">
<path d="M8.35773 25.0939L0 3.76992e-06H6.98838L12.088 17.0772L11.0492 16.9348L16.6682 3.60518H20.6346L26.4898 16.9823L25.3565 17.0772L30.4561 3.76992e-06H37.4445L28.9451 25.0939H24.0816L18.1792 10.8155L18.9347 10.9104L13.174 25.0939H8.35773Z" fill="#717171"/>
<path d="M48.2462 31.0235C45.6964 31.0235 43.4142 30.4701 41.3995 29.3632C39.4163 28.2247 37.8423 26.6751 36.6776 24.7144C35.5443 22.7537 34.9777 20.5084 34.9777 17.9784C34.9777 15.4485 35.5443 13.219 36.6776 11.2899C37.8423 9.32918 39.4163 7.77959 41.3995 6.64111C43.4142 5.50264 45.6964 4.9334 48.2462 4.9334C50.7645 4.9334 53.0153 5.50264 54.9985 6.64111C57.0132 7.77959 58.5871 9.32918 59.7204 11.2899C60.8536 13.219 61.4203 15.4485 61.4203 17.9784C61.4203 20.5084 60.8536 22.7537 59.7204 24.7144C58.5871 26.6751 57.0132 28.2247 54.9985 29.3632C53.0153 30.4701 50.7645 31.0235 48.2462 31.0235ZM48.2462 25.1414C49.4739 25.1414 50.5757 24.8409 51.5515 24.2401C52.5274 23.6076 53.2829 22.7537 53.818 21.6785C54.3847 20.5716 54.668 19.3383 54.668 17.9784C54.668 16.587 54.3847 15.3536 53.818 14.2784C53.2829 13.1715 52.5274 12.3177 51.5515 11.7168C50.5757 11.0843 49.4739 10.7681 48.2462 10.7681C46.987 10.7681 45.8695 11.0843 44.8937 11.7168C43.9178 12.3493 43.1466 13.2032 42.58 14.2784C42.0133 15.3536 41.7458 16.587 41.7772 17.9784C41.7458 19.3383 42.0133 20.5716 42.58 21.6785C43.1466 22.7537 43.9178 23.6076 44.8937 24.2401C45.8695 24.8409 46.987 25.1414 48.2462 25.1414Z" fill="#717171"/>
<path d="M66.8894 25.0939L58.5316 0H65.52L70.6197 17.0771L69.5808 16.9348L75.1999 3.60518H79.1663L85.0214 16.9823L83.8881 17.0771L88.9878 0H95.9762L87.4768 25.0939H82.6132L76.7109 10.8155L77.4664 10.9104L71.7057 25.0939H66.8894Z" fill="#717171"/>
<path d="M105.762 25.0939L97.4042 0H104.393L109.492 17.0771L108.453 16.9348L114.072 3.60518H118.039L123.894 16.9823L122.761 17.0771L127.86 0H134.848L126.349 25.0939H121.486L115.583 10.8155L116.339 10.9104L110.578 25.0939H105.762Z" fill="#717171"/>
<path d="M61.2369 28.0587H136V33H61.2369V28.0587Z" fill="#717171"/>
</svg>
